G04 #@! TF.GenerationSoftware,KiCad,Pcbnew,(5.1.5)-3*
G04 #@! TF.CreationDate,2021-10-03T17:07:44+03:00*
G04 #@! TF.ProjectId,OPL3,4f504c33-2e6b-4696-9361-645f70636258,rev?*
G04 #@! TF.SameCoordinates,Original*
G04 #@! TF.FileFunction,Soldermask,Top*
G04 #@! TF.FilePolarity,Negative*
%FSLAX46Y46*%
G04 Gerber Fmt 4.6, Leading zero omitted, Abs format (unit mm)*
G04 Created by KiCad (PCBNEW (5.1.5)-3) date 2021-10-03 17:07:44*
%MOMM*%
%LPD*%
G04 APERTURE LIST*
%ADD10C,0.100000*%
G04 APERTURE END LIST*
D10*
G36*
X102713000Y-123861000D02*
G01*
X101087000Y-123861000D01*
X101087000Y-116901000D01*
X102713000Y-116901000D01*
X102713000Y-123861000D01*
G37*
G36*
X140813000Y-123861000D02*
G01*
X139187000Y-123861000D01*
X139187000Y-116901000D01*
X140813000Y-116901000D01*
X140813000Y-123861000D01*
G37*
G36*
X178913000Y-123861000D02*
G01*
X177287000Y-123861000D01*
X177287000Y-116901000D01*
X178913000Y-116901000D01*
X178913000Y-123861000D01*
G37*
G36*
X173833000Y-123861000D02*
G01*
X172207000Y-123861000D01*
X172207000Y-116901000D01*
X173833000Y-116901000D01*
X173833000Y-123861000D01*
G37*
G36*
X171293000Y-123861000D02*
G01*
X169667000Y-123861000D01*
X169667000Y-116901000D01*
X171293000Y-116901000D01*
X171293000Y-123861000D01*
G37*
G36*
X168753000Y-123861000D02*
G01*
X167127000Y-123861000D01*
X167127000Y-116901000D01*
X168753000Y-116901000D01*
X168753000Y-123861000D01*
G37*
G36*
X166213000Y-123861000D02*
G01*
X164587000Y-123861000D01*
X164587000Y-116901000D01*
X166213000Y-116901000D01*
X166213000Y-123861000D01*
G37*
G36*
X163673000Y-123861000D02*
G01*
X162047000Y-123861000D01*
X162047000Y-116901000D01*
X163673000Y-116901000D01*
X163673000Y-123861000D01*
G37*
G36*
X161133000Y-123861000D02*
G01*
X159507000Y-123861000D01*
X159507000Y-116901000D01*
X161133000Y-116901000D01*
X161133000Y-123861000D01*
G37*
G36*
X158593000Y-123861000D02*
G01*
X156967000Y-123861000D01*
X156967000Y-116901000D01*
X158593000Y-116901000D01*
X158593000Y-123861000D01*
G37*
G36*
X156053000Y-123861000D02*
G01*
X154427000Y-123861000D01*
X154427000Y-116901000D01*
X156053000Y-116901000D01*
X156053000Y-123861000D01*
G37*
G36*
X153513000Y-123861000D02*
G01*
X151887000Y-123861000D01*
X151887000Y-116901000D01*
X153513000Y-116901000D01*
X153513000Y-123861000D01*
G37*
G36*
X150973000Y-123861000D02*
G01*
X149347000Y-123861000D01*
X149347000Y-116901000D01*
X150973000Y-116901000D01*
X150973000Y-123861000D01*
G37*
G36*
X148433000Y-123861000D02*
G01*
X146807000Y-123861000D01*
X146807000Y-116901000D01*
X148433000Y-116901000D01*
X148433000Y-123861000D01*
G37*
G36*
X145893000Y-123861000D02*
G01*
X144267000Y-123861000D01*
X144267000Y-116901000D01*
X145893000Y-116901000D01*
X145893000Y-123861000D01*
G37*
G36*
X143353000Y-123861000D02*
G01*
X141727000Y-123861000D01*
X141727000Y-116901000D01*
X143353000Y-116901000D01*
X143353000Y-123861000D01*
G37*
G36*
X138273000Y-123861000D02*
G01*
X136647000Y-123861000D01*
X136647000Y-116901000D01*
X138273000Y-116901000D01*
X138273000Y-123861000D01*
G37*
G36*
X105253000Y-123861000D02*
G01*
X103627000Y-123861000D01*
X103627000Y-116901000D01*
X105253000Y-116901000D01*
X105253000Y-123861000D01*
G37*
G36*
X107793000Y-123861000D02*
G01*
X106167000Y-123861000D01*
X106167000Y-116901000D01*
X107793000Y-116901000D01*
X107793000Y-123861000D01*
G37*
G36*
X110333000Y-123861000D02*
G01*
X108707000Y-123861000D01*
X108707000Y-116901000D01*
X110333000Y-116901000D01*
X110333000Y-123861000D01*
G37*
G36*
X112873000Y-123861000D02*
G01*
X111247000Y-123861000D01*
X111247000Y-116901000D01*
X112873000Y-116901000D01*
X112873000Y-123861000D01*
G37*
G36*
X115413000Y-123861000D02*
G01*
X113787000Y-123861000D01*
X113787000Y-116901000D01*
X115413000Y-116901000D01*
X115413000Y-123861000D01*
G37*
G36*
X117953000Y-123861000D02*
G01*
X116327000Y-123861000D01*
X116327000Y-116901000D01*
X117953000Y-116901000D01*
X117953000Y-123861000D01*
G37*
G36*
X120493000Y-123861000D02*
G01*
X118867000Y-123861000D01*
X118867000Y-116901000D01*
X120493000Y-116901000D01*
X120493000Y-123861000D01*
G37*
G36*
X123033000Y-123861000D02*
G01*
X121407000Y-123861000D01*
X121407000Y-116901000D01*
X123033000Y-116901000D01*
X123033000Y-123861000D01*
G37*
G36*
X125573000Y-123861000D02*
G01*
X123947000Y-123861000D01*
X123947000Y-116901000D01*
X125573000Y-116901000D01*
X125573000Y-123861000D01*
G37*
G36*
X128113000Y-123861000D02*
G01*
X126487000Y-123861000D01*
X126487000Y-116901000D01*
X128113000Y-116901000D01*
X128113000Y-123861000D01*
G37*
G36*
X130653000Y-123861000D02*
G01*
X129027000Y-123861000D01*
X129027000Y-116901000D01*
X130653000Y-116901000D01*
X130653000Y-123861000D01*
G37*
G36*
X133193000Y-123861000D02*
G01*
X131567000Y-123861000D01*
X131567000Y-116901000D01*
X133193000Y-116901000D01*
X133193000Y-123861000D01*
G37*
G36*
X135733000Y-123861000D02*
G01*
X134107000Y-123861000D01*
X134107000Y-116901000D01*
X135733000Y-116901000D01*
X135733000Y-123861000D01*
G37*
G36*
X176373000Y-123861000D02*
G01*
X174747000Y-123861000D01*
X174747000Y-116901000D01*
X176373000Y-116901000D01*
X176373000Y-123861000D01*
G37*
G36*
X114868228Y-110181703D02*
G01*
X115023100Y-110245853D01*
X115162481Y-110338985D01*
X115281015Y-110457519D01*
X115374147Y-110596900D01*
X115438297Y-110751772D01*
X115471000Y-110916184D01*
X115471000Y-111083816D01*
X115438297Y-111248228D01*
X115374147Y-111403100D01*
X115281015Y-111542481D01*
X115162481Y-111661015D01*
X115023100Y-111754147D01*
X114868228Y-111818297D01*
X114703816Y-111851000D01*
X114536184Y-111851000D01*
X114371772Y-111818297D01*
X114216900Y-111754147D01*
X114077519Y-111661015D01*
X113958985Y-111542481D01*
X113865853Y-111403100D01*
X113801703Y-111248228D01*
X113769000Y-111083816D01*
X113769000Y-110916184D01*
X113801703Y-110751772D01*
X113865853Y-110596900D01*
X113958985Y-110457519D01*
X114077519Y-110338985D01*
X114216900Y-110245853D01*
X114371772Y-110181703D01*
X114536184Y-110149000D01*
X114703816Y-110149000D01*
X114868228Y-110181703D01*
G37*
G36*
X107851000Y-111851000D02*
G01*
X106149000Y-111851000D01*
X106149000Y-110149000D01*
X107851000Y-110149000D01*
X107851000Y-111851000D01*
G37*
G36*
X109788228Y-110181703D02*
G01*
X109943100Y-110245853D01*
X110082481Y-110338985D01*
X110201015Y-110457519D01*
X110294147Y-110596900D01*
X110358297Y-110751772D01*
X110391000Y-110916184D01*
X110391000Y-111083816D01*
X110358297Y-111248228D01*
X110294147Y-111403100D01*
X110201015Y-111542481D01*
X110082481Y-111661015D01*
X109943100Y-111754147D01*
X109788228Y-111818297D01*
X109623816Y-111851000D01*
X109456184Y-111851000D01*
X109291772Y-111818297D01*
X109136900Y-111754147D01*
X108997519Y-111661015D01*
X108878985Y-111542481D01*
X108785853Y-111403100D01*
X108721703Y-111248228D01*
X108689000Y-111083816D01*
X108689000Y-110916184D01*
X108721703Y-110751772D01*
X108785853Y-110596900D01*
X108878985Y-110457519D01*
X108997519Y-110338985D01*
X109136900Y-110245853D01*
X109291772Y-110181703D01*
X109456184Y-110149000D01*
X109623816Y-110149000D01*
X109788228Y-110181703D01*
G37*
G36*
X112328228Y-110181703D02*
G01*
X112483100Y-110245853D01*
X112622481Y-110338985D01*
X112741015Y-110457519D01*
X112834147Y-110596900D01*
X112898297Y-110751772D01*
X112931000Y-110916184D01*
X112931000Y-111083816D01*
X112898297Y-111248228D01*
X112834147Y-111403100D01*
X112741015Y-111542481D01*
X112622481Y-111661015D01*
X112483100Y-111754147D01*
X112328228Y-111818297D01*
X112163816Y-111851000D01*
X111996184Y-111851000D01*
X111831772Y-111818297D01*
X111676900Y-111754147D01*
X111537519Y-111661015D01*
X111418985Y-111542481D01*
X111325853Y-111403100D01*
X111261703Y-111248228D01*
X111229000Y-111083816D01*
X111229000Y-110916184D01*
X111261703Y-110751772D01*
X111325853Y-110596900D01*
X111418985Y-110457519D01*
X111537519Y-110338985D01*
X111676900Y-110245853D01*
X111831772Y-110181703D01*
X111996184Y-110149000D01*
X112163816Y-110149000D01*
X112328228Y-110181703D01*
G37*
G36*
X117408228Y-110181703D02*
G01*
X117563100Y-110245853D01*
X117702481Y-110338985D01*
X117821015Y-110457519D01*
X117914147Y-110596900D01*
X117978297Y-110751772D01*
X118011000Y-110916184D01*
X118011000Y-111083816D01*
X117978297Y-111248228D01*
X117914147Y-111403100D01*
X117821015Y-111542481D01*
X117702481Y-111661015D01*
X117563100Y-111754147D01*
X117408228Y-111818297D01*
X117243816Y-111851000D01*
X117076184Y-111851000D01*
X116911772Y-111818297D01*
X116756900Y-111754147D01*
X116617519Y-111661015D01*
X116498985Y-111542481D01*
X116405853Y-111403100D01*
X116341703Y-111248228D01*
X116309000Y-111083816D01*
X116309000Y-110916184D01*
X116341703Y-110751772D01*
X116405853Y-110596900D01*
X116498985Y-110457519D01*
X116617519Y-110338985D01*
X116756900Y-110245853D01*
X116911772Y-110181703D01*
X117076184Y-110149000D01*
X117243816Y-110149000D01*
X117408228Y-110181703D01*
G37*
G36*
X119948228Y-110181703D02*
G01*
X120103100Y-110245853D01*
X120242481Y-110338985D01*
X120361015Y-110457519D01*
X120454147Y-110596900D01*
X120518297Y-110751772D01*
X120551000Y-110916184D01*
X120551000Y-111083816D01*
X120518297Y-111248228D01*
X120454147Y-111403100D01*
X120361015Y-111542481D01*
X120242481Y-111661015D01*
X120103100Y-111754147D01*
X119948228Y-111818297D01*
X119783816Y-111851000D01*
X119616184Y-111851000D01*
X119451772Y-111818297D01*
X119296900Y-111754147D01*
X119157519Y-111661015D01*
X119038985Y-111542481D01*
X118945853Y-111403100D01*
X118881703Y-111248228D01*
X118849000Y-111083816D01*
X118849000Y-110916184D01*
X118881703Y-110751772D01*
X118945853Y-110596900D01*
X119038985Y-110457519D01*
X119157519Y-110338985D01*
X119296900Y-110245853D01*
X119451772Y-110181703D01*
X119616184Y-110149000D01*
X119783816Y-110149000D01*
X119948228Y-110181703D01*
G37*
G36*
X130108228Y-110181703D02*
G01*
X130263100Y-110245853D01*
X130402481Y-110338985D01*
X130521015Y-110457519D01*
X130614147Y-110596900D01*
X130678297Y-110751772D01*
X130711000Y-110916184D01*
X130711000Y-111083816D01*
X130678297Y-111248228D01*
X130614147Y-111403100D01*
X130521015Y-111542481D01*
X130402481Y-111661015D01*
X130263100Y-111754147D01*
X130108228Y-111818297D01*
X129943816Y-111851000D01*
X129776184Y-111851000D01*
X129611772Y-111818297D01*
X129456900Y-111754147D01*
X129317519Y-111661015D01*
X129198985Y-111542481D01*
X129105853Y-111403100D01*
X129041703Y-111248228D01*
X129009000Y-111083816D01*
X129009000Y-110916184D01*
X129041703Y-110751772D01*
X129105853Y-110596900D01*
X129198985Y-110457519D01*
X129317519Y-110338985D01*
X129456900Y-110245853D01*
X129611772Y-110181703D01*
X129776184Y-110149000D01*
X129943816Y-110149000D01*
X130108228Y-110181703D01*
G37*
G36*
X127568228Y-110181703D02*
G01*
X127723100Y-110245853D01*
X127862481Y-110338985D01*
X127981015Y-110457519D01*
X128074147Y-110596900D01*
X128138297Y-110751772D01*
X128171000Y-110916184D01*
X128171000Y-111083816D01*
X128138297Y-111248228D01*
X128074147Y-111403100D01*
X127981015Y-111542481D01*
X127862481Y-111661015D01*
X127723100Y-111754147D01*
X127568228Y-111818297D01*
X127403816Y-111851000D01*
X127236184Y-111851000D01*
X127071772Y-111818297D01*
X126916900Y-111754147D01*
X126777519Y-111661015D01*
X126658985Y-111542481D01*
X126565853Y-111403100D01*
X126501703Y-111248228D01*
X126469000Y-111083816D01*
X126469000Y-110916184D01*
X126501703Y-110751772D01*
X126565853Y-110596900D01*
X126658985Y-110457519D01*
X126777519Y-110338985D01*
X126916900Y-110245853D01*
X127071772Y-110181703D01*
X127236184Y-110149000D01*
X127403816Y-110149000D01*
X127568228Y-110181703D01*
G37*
G36*
X122488228Y-110181703D02*
G01*
X122643100Y-110245853D01*
X122782481Y-110338985D01*
X122901015Y-110457519D01*
X122994147Y-110596900D01*
X123058297Y-110751772D01*
X123091000Y-110916184D01*
X123091000Y-111083816D01*
X123058297Y-111248228D01*
X122994147Y-111403100D01*
X122901015Y-111542481D01*
X122782481Y-111661015D01*
X122643100Y-111754147D01*
X122488228Y-111818297D01*
X122323816Y-111851000D01*
X122156184Y-111851000D01*
X121991772Y-111818297D01*
X121836900Y-111754147D01*
X121697519Y-111661015D01*
X121578985Y-111542481D01*
X121485853Y-111403100D01*
X121421703Y-111248228D01*
X121389000Y-111083816D01*
X121389000Y-110916184D01*
X121421703Y-110751772D01*
X121485853Y-110596900D01*
X121578985Y-110457519D01*
X121697519Y-110338985D01*
X121836900Y-110245853D01*
X121991772Y-110181703D01*
X122156184Y-110149000D01*
X122323816Y-110149000D01*
X122488228Y-110181703D01*
G37*
G36*
X125028228Y-110181703D02*
G01*
X125183100Y-110245853D01*
X125322481Y-110338985D01*
X125441015Y-110457519D01*
X125534147Y-110596900D01*
X125598297Y-110751772D01*
X125631000Y-110916184D01*
X125631000Y-111083816D01*
X125598297Y-111248228D01*
X125534147Y-111403100D01*
X125441015Y-111542481D01*
X125322481Y-111661015D01*
X125183100Y-111754147D01*
X125028228Y-111818297D01*
X124863816Y-111851000D01*
X124696184Y-111851000D01*
X124531772Y-111818297D01*
X124376900Y-111754147D01*
X124237519Y-111661015D01*
X124118985Y-111542481D01*
X124025853Y-111403100D01*
X123961703Y-111248228D01*
X123929000Y-111083816D01*
X123929000Y-110916184D01*
X123961703Y-110751772D01*
X124025853Y-110596900D01*
X124118985Y-110457519D01*
X124237519Y-110338985D01*
X124376900Y-110245853D01*
X124531772Y-110181703D01*
X124696184Y-110149000D01*
X124863816Y-110149000D01*
X125028228Y-110181703D01*
G37*
G36*
X130108228Y-102561703D02*
G01*
X130263100Y-102625853D01*
X130402481Y-102718985D01*
X130521015Y-102837519D01*
X130614147Y-102976900D01*
X130678297Y-103131772D01*
X130711000Y-103296184D01*
X130711000Y-103463816D01*
X130678297Y-103628228D01*
X130614147Y-103783100D01*
X130521015Y-103922481D01*
X130402481Y-104041015D01*
X130263100Y-104134147D01*
X130108228Y-104198297D01*
X129943816Y-104231000D01*
X129776184Y-104231000D01*
X129611772Y-104198297D01*
X129456900Y-104134147D01*
X129317519Y-104041015D01*
X129198985Y-103922481D01*
X129105853Y-103783100D01*
X129041703Y-103628228D01*
X129009000Y-103463816D01*
X129009000Y-103296184D01*
X129041703Y-103131772D01*
X129105853Y-102976900D01*
X129198985Y-102837519D01*
X129317519Y-102718985D01*
X129456900Y-102625853D01*
X129611772Y-102561703D01*
X129776184Y-102529000D01*
X129943816Y-102529000D01*
X130108228Y-102561703D01*
G37*
G36*
X107248228Y-102561703D02*
G01*
X107403100Y-102625853D01*
X107542481Y-102718985D01*
X107661015Y-102837519D01*
X107754147Y-102976900D01*
X107818297Y-103131772D01*
X107851000Y-103296184D01*
X107851000Y-103463816D01*
X107818297Y-103628228D01*
X107754147Y-103783100D01*
X107661015Y-103922481D01*
X107542481Y-104041015D01*
X107403100Y-104134147D01*
X107248228Y-104198297D01*
X107083816Y-104231000D01*
X106916184Y-104231000D01*
X106751772Y-104198297D01*
X106596900Y-104134147D01*
X106457519Y-104041015D01*
X106338985Y-103922481D01*
X106245853Y-103783100D01*
X106181703Y-103628228D01*
X106149000Y-103463816D01*
X106149000Y-103296184D01*
X106181703Y-103131772D01*
X106245853Y-102976900D01*
X106338985Y-102837519D01*
X106457519Y-102718985D01*
X106596900Y-102625853D01*
X106751772Y-102561703D01*
X106916184Y-102529000D01*
X107083816Y-102529000D01*
X107248228Y-102561703D01*
G37*
G36*
X127568228Y-102561703D02*
G01*
X127723100Y-102625853D01*
X127862481Y-102718985D01*
X127981015Y-102837519D01*
X128074147Y-102976900D01*
X128138297Y-103131772D01*
X128171000Y-103296184D01*
X128171000Y-103463816D01*
X128138297Y-103628228D01*
X128074147Y-103783100D01*
X127981015Y-103922481D01*
X127862481Y-104041015D01*
X127723100Y-104134147D01*
X127568228Y-104198297D01*
X127403816Y-104231000D01*
X127236184Y-104231000D01*
X127071772Y-104198297D01*
X126916900Y-104134147D01*
X126777519Y-104041015D01*
X126658985Y-103922481D01*
X126565853Y-103783100D01*
X126501703Y-103628228D01*
X126469000Y-103463816D01*
X126469000Y-103296184D01*
X126501703Y-103131772D01*
X126565853Y-102976900D01*
X126658985Y-102837519D01*
X126777519Y-102718985D01*
X126916900Y-102625853D01*
X127071772Y-102561703D01*
X127236184Y-102529000D01*
X127403816Y-102529000D01*
X127568228Y-102561703D01*
G37*
G36*
X125028228Y-102561703D02*
G01*
X125183100Y-102625853D01*
X125322481Y-102718985D01*
X125441015Y-102837519D01*
X125534147Y-102976900D01*
X125598297Y-103131772D01*
X125631000Y-103296184D01*
X125631000Y-103463816D01*
X125598297Y-103628228D01*
X125534147Y-103783100D01*
X125441015Y-103922481D01*
X125322481Y-104041015D01*
X125183100Y-104134147D01*
X125028228Y-104198297D01*
X124863816Y-104231000D01*
X124696184Y-104231000D01*
X124531772Y-104198297D01*
X124376900Y-104134147D01*
X124237519Y-104041015D01*
X124118985Y-103922481D01*
X124025853Y-103783100D01*
X123961703Y-103628228D01*
X123929000Y-103463816D01*
X123929000Y-103296184D01*
X123961703Y-103131772D01*
X124025853Y-102976900D01*
X124118985Y-102837519D01*
X124237519Y-102718985D01*
X124376900Y-102625853D01*
X124531772Y-102561703D01*
X124696184Y-102529000D01*
X124863816Y-102529000D01*
X125028228Y-102561703D01*
G37*
G36*
X122488228Y-102561703D02*
G01*
X122643100Y-102625853D01*
X122782481Y-102718985D01*
X122901015Y-102837519D01*
X122994147Y-102976900D01*
X123058297Y-103131772D01*
X123091000Y-103296184D01*
X123091000Y-103463816D01*
X123058297Y-103628228D01*
X122994147Y-103783100D01*
X122901015Y-103922481D01*
X122782481Y-104041015D01*
X122643100Y-104134147D01*
X122488228Y-104198297D01*
X122323816Y-104231000D01*
X122156184Y-104231000D01*
X121991772Y-104198297D01*
X121836900Y-104134147D01*
X121697519Y-104041015D01*
X121578985Y-103922481D01*
X121485853Y-103783100D01*
X121421703Y-103628228D01*
X121389000Y-103463816D01*
X121389000Y-103296184D01*
X121421703Y-103131772D01*
X121485853Y-102976900D01*
X121578985Y-102837519D01*
X121697519Y-102718985D01*
X121836900Y-102625853D01*
X121991772Y-102561703D01*
X122156184Y-102529000D01*
X122323816Y-102529000D01*
X122488228Y-102561703D01*
G37*
G36*
X119948228Y-102561703D02*
G01*
X120103100Y-102625853D01*
X120242481Y-102718985D01*
X120361015Y-102837519D01*
X120454147Y-102976900D01*
X120518297Y-103131772D01*
X120551000Y-103296184D01*
X120551000Y-103463816D01*
X120518297Y-103628228D01*
X120454147Y-103783100D01*
X120361015Y-103922481D01*
X120242481Y-104041015D01*
X120103100Y-104134147D01*
X119948228Y-104198297D01*
X119783816Y-104231000D01*
X119616184Y-104231000D01*
X119451772Y-104198297D01*
X119296900Y-104134147D01*
X119157519Y-104041015D01*
X119038985Y-103922481D01*
X118945853Y-103783100D01*
X118881703Y-103628228D01*
X118849000Y-103463816D01*
X118849000Y-103296184D01*
X118881703Y-103131772D01*
X118945853Y-102976900D01*
X119038985Y-102837519D01*
X119157519Y-102718985D01*
X119296900Y-102625853D01*
X119451772Y-102561703D01*
X119616184Y-102529000D01*
X119783816Y-102529000D01*
X119948228Y-102561703D01*
G37*
G36*
X117408228Y-102561703D02*
G01*
X117563100Y-102625853D01*
X117702481Y-102718985D01*
X117821015Y-102837519D01*
X117914147Y-102976900D01*
X117978297Y-103131772D01*
X118011000Y-103296184D01*
X118011000Y-103463816D01*
X117978297Y-103628228D01*
X117914147Y-103783100D01*
X117821015Y-103922481D01*
X117702481Y-104041015D01*
X117563100Y-104134147D01*
X117408228Y-104198297D01*
X117243816Y-104231000D01*
X117076184Y-104231000D01*
X116911772Y-104198297D01*
X116756900Y-104134147D01*
X116617519Y-104041015D01*
X116498985Y-103922481D01*
X116405853Y-103783100D01*
X116341703Y-103628228D01*
X116309000Y-103463816D01*
X116309000Y-103296184D01*
X116341703Y-103131772D01*
X116405853Y-102976900D01*
X116498985Y-102837519D01*
X116617519Y-102718985D01*
X116756900Y-102625853D01*
X116911772Y-102561703D01*
X117076184Y-102529000D01*
X117243816Y-102529000D01*
X117408228Y-102561703D01*
G37*
G36*
X114868228Y-102561703D02*
G01*
X115023100Y-102625853D01*
X115162481Y-102718985D01*
X115281015Y-102837519D01*
X115374147Y-102976900D01*
X115438297Y-103131772D01*
X115471000Y-103296184D01*
X115471000Y-103463816D01*
X115438297Y-103628228D01*
X115374147Y-103783100D01*
X115281015Y-103922481D01*
X115162481Y-104041015D01*
X115023100Y-104134147D01*
X114868228Y-104198297D01*
X114703816Y-104231000D01*
X114536184Y-104231000D01*
X114371772Y-104198297D01*
X114216900Y-104134147D01*
X114077519Y-104041015D01*
X113958985Y-103922481D01*
X113865853Y-103783100D01*
X113801703Y-103628228D01*
X113769000Y-103463816D01*
X113769000Y-103296184D01*
X113801703Y-103131772D01*
X113865853Y-102976900D01*
X113958985Y-102837519D01*
X114077519Y-102718985D01*
X114216900Y-102625853D01*
X114371772Y-102561703D01*
X114536184Y-102529000D01*
X114703816Y-102529000D01*
X114868228Y-102561703D01*
G37*
G36*
X112328228Y-102561703D02*
G01*
X112483100Y-102625853D01*
X112622481Y-102718985D01*
X112741015Y-102837519D01*
X112834147Y-102976900D01*
X112898297Y-103131772D01*
X112931000Y-103296184D01*
X112931000Y-103463816D01*
X112898297Y-103628228D01*
X112834147Y-103783100D01*
X112741015Y-103922481D01*
X112622481Y-104041015D01*
X112483100Y-104134147D01*
X112328228Y-104198297D01*
X112163816Y-104231000D01*
X111996184Y-104231000D01*
X111831772Y-104198297D01*
X111676900Y-104134147D01*
X111537519Y-104041015D01*
X111418985Y-103922481D01*
X111325853Y-103783100D01*
X111261703Y-103628228D01*
X111229000Y-103463816D01*
X111229000Y-103296184D01*
X111261703Y-103131772D01*
X111325853Y-102976900D01*
X111418985Y-102837519D01*
X111537519Y-102718985D01*
X111676900Y-102625853D01*
X111831772Y-102561703D01*
X111996184Y-102529000D01*
X112163816Y-102529000D01*
X112328228Y-102561703D01*
G37*
G36*
X109788228Y-102561703D02*
G01*
X109943100Y-102625853D01*
X110082481Y-102718985D01*
X110201015Y-102837519D01*
X110294147Y-102976900D01*
X110358297Y-103131772D01*
X110391000Y-103296184D01*
X110391000Y-103463816D01*
X110358297Y-103628228D01*
X110294147Y-103783100D01*
X110201015Y-103922481D01*
X110082481Y-104041015D01*
X109943100Y-104134147D01*
X109788228Y-104198297D01*
X109623816Y-104231000D01*
X109456184Y-104231000D01*
X109291772Y-104198297D01*
X109136900Y-104134147D01*
X108997519Y-104041015D01*
X108878985Y-103922481D01*
X108785853Y-103783100D01*
X108721703Y-103628228D01*
X108689000Y-103463816D01*
X108689000Y-103296184D01*
X108721703Y-103131772D01*
X108785853Y-102976900D01*
X108878985Y-102837519D01*
X108997519Y-102718985D01*
X109136900Y-102625853D01*
X109291772Y-102561703D01*
X109456184Y-102529000D01*
X109623816Y-102529000D01*
X109788228Y-102561703D01*
G37*
G36*
X153629591Y-100978085D02*
G01*
X153663569Y-100988393D01*
X153694890Y-101005134D01*
X153722339Y-101027661D01*
X153744866Y-101055110D01*
X153761607Y-101086431D01*
X153771915Y-101120409D01*
X153776000Y-101161890D01*
X153776000Y-101838110D01*
X153771915Y-101879591D01*
X153761607Y-101913569D01*
X153744866Y-101944890D01*
X153722339Y-101972339D01*
X153694890Y-101994866D01*
X153663569Y-102011607D01*
X153629591Y-102021915D01*
X153588110Y-102026000D01*
X152986890Y-102026000D01*
X152945409Y-102021915D01*
X152911431Y-102011607D01*
X152880110Y-101994866D01*
X152852661Y-101972339D01*
X152830134Y-101944890D01*
X152813393Y-101913569D01*
X152803085Y-101879591D01*
X152799000Y-101838110D01*
X152799000Y-101161890D01*
X152803085Y-101120409D01*
X152813393Y-101086431D01*
X152830134Y-101055110D01*
X152852661Y-101027661D01*
X152880110Y-101005134D01*
X152911431Y-100988393D01*
X152945409Y-100978085D01*
X152986890Y-100974000D01*
X153588110Y-100974000D01*
X153629591Y-100978085D01*
G37*
G36*
X152054591Y-100978085D02*
G01*
X152088569Y-100988393D01*
X152119890Y-101005134D01*
X152147339Y-101027661D01*
X152169866Y-101055110D01*
X152186607Y-101086431D01*
X152196915Y-101120409D01*
X152201000Y-101161890D01*
X152201000Y-101838110D01*
X152196915Y-101879591D01*
X152186607Y-101913569D01*
X152169866Y-101944890D01*
X152147339Y-101972339D01*
X152119890Y-101994866D01*
X152088569Y-102011607D01*
X152054591Y-102021915D01*
X152013110Y-102026000D01*
X151411890Y-102026000D01*
X151370409Y-102021915D01*
X151336431Y-102011607D01*
X151305110Y-101994866D01*
X151277661Y-101972339D01*
X151255134Y-101944890D01*
X151238393Y-101913569D01*
X151228085Y-101879591D01*
X151224000Y-101838110D01*
X151224000Y-101161890D01*
X151228085Y-101120409D01*
X151238393Y-101086431D01*
X151255134Y-101055110D01*
X151277661Y-101027661D01*
X151305110Y-101005134D01*
X151336431Y-100988393D01*
X151370409Y-100978085D01*
X151411890Y-100974000D01*
X152013110Y-100974000D01*
X152054591Y-100978085D01*
G37*
G36*
X156748228Y-99921703D02*
G01*
X156903100Y-99985853D01*
X157042481Y-100078985D01*
X157161015Y-100197519D01*
X157254147Y-100336900D01*
X157318297Y-100491772D01*
X157351000Y-100656184D01*
X157351000Y-100823816D01*
X157318297Y-100988228D01*
X157254147Y-101143100D01*
X157161015Y-101282481D01*
X157042481Y-101401015D01*
X156903100Y-101494147D01*
X156748228Y-101558297D01*
X156583816Y-101591000D01*
X156416184Y-101591000D01*
X156251772Y-101558297D01*
X156096900Y-101494147D01*
X155957519Y-101401015D01*
X155838985Y-101282481D01*
X155745853Y-101143100D01*
X155681703Y-100988228D01*
X155649000Y-100823816D01*
X155649000Y-100656184D01*
X155681703Y-100491772D01*
X155745853Y-100336900D01*
X155838985Y-100197519D01*
X155957519Y-100078985D01*
X156096900Y-99985853D01*
X156251772Y-99921703D01*
X156416184Y-99889000D01*
X156583816Y-99889000D01*
X156748228Y-99921703D01*
G37*
G36*
X164368228Y-99921703D02*
G01*
X164523100Y-99985853D01*
X164662481Y-100078985D01*
X164781015Y-100197519D01*
X164874147Y-100336900D01*
X164938297Y-100491772D01*
X164971000Y-100656184D01*
X164971000Y-100823816D01*
X164938297Y-100988228D01*
X164874147Y-101143100D01*
X164781015Y-101282481D01*
X164662481Y-101401015D01*
X164523100Y-101494147D01*
X164368228Y-101558297D01*
X164203816Y-101591000D01*
X164036184Y-101591000D01*
X163871772Y-101558297D01*
X163716900Y-101494147D01*
X163577519Y-101401015D01*
X163458985Y-101282481D01*
X163365853Y-101143100D01*
X163301703Y-100988228D01*
X163269000Y-100823816D01*
X163269000Y-100656184D01*
X163301703Y-100491772D01*
X163365853Y-100336900D01*
X163458985Y-100197519D01*
X163577519Y-100078985D01*
X163716900Y-99985853D01*
X163871772Y-99921703D01*
X164036184Y-99889000D01*
X164203816Y-99889000D01*
X164368228Y-99921703D01*
G37*
G36*
X153879591Y-98313085D02*
G01*
X153913569Y-98323393D01*
X153944890Y-98340134D01*
X153972339Y-98362661D01*
X153994866Y-98390110D01*
X154011607Y-98421431D01*
X154021915Y-98455409D01*
X154026000Y-98496890D01*
X154026000Y-99098110D01*
X154021915Y-99139591D01*
X154011607Y-99173569D01*
X153994866Y-99204890D01*
X153972339Y-99232339D01*
X153944890Y-99254866D01*
X153913569Y-99271607D01*
X153879591Y-99281915D01*
X153838110Y-99286000D01*
X153161890Y-99286000D01*
X153120409Y-99281915D01*
X153086431Y-99271607D01*
X153055110Y-99254866D01*
X153027661Y-99232339D01*
X153005134Y-99204890D01*
X152988393Y-99173569D01*
X152978085Y-99139591D01*
X152974000Y-99098110D01*
X152974000Y-98496890D01*
X152978085Y-98455409D01*
X152988393Y-98421431D01*
X153005134Y-98390110D01*
X153027661Y-98362661D01*
X153055110Y-98340134D01*
X153086431Y-98323393D01*
X153120409Y-98313085D01*
X153161890Y-98309000D01*
X153838110Y-98309000D01*
X153879591Y-98313085D01*
G37*
G36*
X151879591Y-98313085D02*
G01*
X151913569Y-98323393D01*
X151944890Y-98340134D01*
X151972339Y-98362661D01*
X151994866Y-98390110D01*
X152011607Y-98421431D01*
X152021915Y-98455409D01*
X152026000Y-98496890D01*
X152026000Y-99098110D01*
X152021915Y-99139591D01*
X152011607Y-99173569D01*
X151994866Y-99204890D01*
X151972339Y-99232339D01*
X151944890Y-99254866D01*
X151913569Y-99271607D01*
X151879591Y-99281915D01*
X151838110Y-99286000D01*
X151161890Y-99286000D01*
X151120409Y-99281915D01*
X151086431Y-99271607D01*
X151055110Y-99254866D01*
X151027661Y-99232339D01*
X151005134Y-99204890D01*
X150988393Y-99173569D01*
X150978085Y-99139591D01*
X150974000Y-99098110D01*
X150974000Y-98496890D01*
X150978085Y-98455409D01*
X150988393Y-98421431D01*
X151005134Y-98390110D01*
X151027661Y-98362661D01*
X151055110Y-98340134D01*
X151086431Y-98323393D01*
X151120409Y-98313085D01*
X151161890Y-98309000D01*
X151838110Y-98309000D01*
X151879591Y-98313085D01*
G37*
G36*
X167279591Y-98303085D02*
G01*
X167313569Y-98313393D01*
X167344890Y-98330134D01*
X167372339Y-98352661D01*
X167394866Y-98380110D01*
X167411607Y-98411431D01*
X167421915Y-98445409D01*
X167426000Y-98486890D01*
X167426000Y-99088110D01*
X167421915Y-99129591D01*
X167411607Y-99163569D01*
X167394866Y-99194890D01*
X167372339Y-99222339D01*
X167344890Y-99244866D01*
X167313569Y-99261607D01*
X167279591Y-99271915D01*
X167238110Y-99276000D01*
X166561890Y-99276000D01*
X166520409Y-99271915D01*
X166486431Y-99261607D01*
X166455110Y-99244866D01*
X166427661Y-99222339D01*
X166405134Y-99194890D01*
X166388393Y-99163569D01*
X166378085Y-99129591D01*
X166374000Y-99088110D01*
X166374000Y-98486890D01*
X166378085Y-98445409D01*
X166388393Y-98411431D01*
X166405134Y-98380110D01*
X166427661Y-98352661D01*
X166455110Y-98330134D01*
X166486431Y-98313393D01*
X166520409Y-98303085D01*
X166561890Y-98299000D01*
X167238110Y-98299000D01*
X167279591Y-98303085D01*
G37*
G36*
X156748228Y-97381703D02*
G01*
X156903100Y-97445853D01*
X157042481Y-97538985D01*
X157161015Y-97657519D01*
X157254147Y-97796900D01*
X157318297Y-97951772D01*
X157351000Y-98116184D01*
X157351000Y-98283816D01*
X157318297Y-98448228D01*
X157254147Y-98603100D01*
X157161015Y-98742481D01*
X157042481Y-98861015D01*
X156903100Y-98954147D01*
X156748228Y-99018297D01*
X156583816Y-99051000D01*
X156416184Y-99051000D01*
X156251772Y-99018297D01*
X156096900Y-98954147D01*
X155957519Y-98861015D01*
X155838985Y-98742481D01*
X155745853Y-98603100D01*
X155681703Y-98448228D01*
X155649000Y-98283816D01*
X155649000Y-98116184D01*
X155681703Y-97951772D01*
X155745853Y-97796900D01*
X155838985Y-97657519D01*
X155957519Y-97538985D01*
X156096900Y-97445853D01*
X156251772Y-97381703D01*
X156416184Y-97349000D01*
X156583816Y-97349000D01*
X156748228Y-97381703D01*
G37*
G36*
X164368228Y-97381703D02*
G01*
X164523100Y-97445853D01*
X164662481Y-97538985D01*
X164781015Y-97657519D01*
X164874147Y-97796900D01*
X164938297Y-97951772D01*
X164971000Y-98116184D01*
X164971000Y-98283816D01*
X164938297Y-98448228D01*
X164874147Y-98603100D01*
X164781015Y-98742481D01*
X164662481Y-98861015D01*
X164523100Y-98954147D01*
X164368228Y-99018297D01*
X164203816Y-99051000D01*
X164036184Y-99051000D01*
X163871772Y-99018297D01*
X163716900Y-98954147D01*
X163577519Y-98861015D01*
X163458985Y-98742481D01*
X163365853Y-98603100D01*
X163301703Y-98448228D01*
X163269000Y-98283816D01*
X163269000Y-98116184D01*
X163301703Y-97951772D01*
X163365853Y-97796900D01*
X163458985Y-97657519D01*
X163577519Y-97538985D01*
X163716900Y-97445853D01*
X163871772Y-97381703D01*
X164036184Y-97349000D01*
X164203816Y-97349000D01*
X164368228Y-97381703D01*
G37*
G36*
X142509928Y-97096764D02*
G01*
X142531009Y-97103160D01*
X142550445Y-97113548D01*
X142567476Y-97127524D01*
X142581452Y-97144555D01*
X142591840Y-97163991D01*
X142598236Y-97185072D01*
X142601000Y-97213140D01*
X142601000Y-97676860D01*
X142598236Y-97704928D01*
X142591840Y-97726009D01*
X142581452Y-97745445D01*
X142567476Y-97762476D01*
X142550445Y-97776452D01*
X142531009Y-97786840D01*
X142509928Y-97793236D01*
X142481860Y-97796000D01*
X141018140Y-97796000D01*
X140990072Y-97793236D01*
X140968991Y-97786840D01*
X140949555Y-97776452D01*
X140932524Y-97762476D01*
X140918548Y-97745445D01*
X140908160Y-97726009D01*
X140901764Y-97704928D01*
X140899000Y-97676860D01*
X140899000Y-97213140D01*
X140901764Y-97185072D01*
X140908160Y-97163991D01*
X140918548Y-97144555D01*
X140932524Y-97127524D01*
X140949555Y-97113548D01*
X140968991Y-97103160D01*
X140990072Y-97096764D01*
X141018140Y-97094000D01*
X142481860Y-97094000D01*
X142509928Y-97096764D01*
G37*
G36*
X149009928Y-97096764D02*
G01*
X149031009Y-97103160D01*
X149050445Y-97113548D01*
X149067476Y-97127524D01*
X149081452Y-97144555D01*
X149091840Y-97163991D01*
X149098236Y-97185072D01*
X149101000Y-97213140D01*
X149101000Y-97676860D01*
X149098236Y-97704928D01*
X149091840Y-97726009D01*
X149081452Y-97745445D01*
X149067476Y-97762476D01*
X149050445Y-97776452D01*
X149031009Y-97786840D01*
X149009928Y-97793236D01*
X148981860Y-97796000D01*
X147518140Y-97796000D01*
X147490072Y-97793236D01*
X147468991Y-97786840D01*
X147449555Y-97776452D01*
X147432524Y-97762476D01*
X147418548Y-97745445D01*
X147408160Y-97726009D01*
X147401764Y-97704928D01*
X147399000Y-97676860D01*
X147399000Y-97213140D01*
X147401764Y-97185072D01*
X147408160Y-97163991D01*
X147418548Y-97144555D01*
X147432524Y-97127524D01*
X147449555Y-97113548D01*
X147468991Y-97103160D01*
X147490072Y-97096764D01*
X147518140Y-97094000D01*
X148981860Y-97094000D01*
X149009928Y-97096764D01*
G37*
G36*
X153879591Y-96738085D02*
G01*
X153913569Y-96748393D01*
X153944890Y-96765134D01*
X153972339Y-96787661D01*
X153994866Y-96815110D01*
X154011607Y-96846431D01*
X154021915Y-96880409D01*
X154026000Y-96921890D01*
X154026000Y-97523110D01*
X154021915Y-97564591D01*
X154011607Y-97598569D01*
X153994866Y-97629890D01*
X153972339Y-97657339D01*
X153944890Y-97679866D01*
X153913569Y-97696607D01*
X153879591Y-97706915D01*
X153838110Y-97711000D01*
X153161890Y-97711000D01*
X153120409Y-97706915D01*
X153086431Y-97696607D01*
X153055110Y-97679866D01*
X153027661Y-97657339D01*
X153005134Y-97629890D01*
X152988393Y-97598569D01*
X152978085Y-97564591D01*
X152974000Y-97523110D01*
X152974000Y-96921890D01*
X152978085Y-96880409D01*
X152988393Y-96846431D01*
X153005134Y-96815110D01*
X153027661Y-96787661D01*
X153055110Y-96765134D01*
X153086431Y-96748393D01*
X153120409Y-96738085D01*
X153161890Y-96734000D01*
X153838110Y-96734000D01*
X153879591Y-96738085D01*
G37*
G36*
X151879591Y-96738085D02*
G01*
X151913569Y-96748393D01*
X151944890Y-96765134D01*
X151972339Y-96787661D01*
X151994866Y-96815110D01*
X152011607Y-96846431D01*
X152021915Y-96880409D01*
X152026000Y-96921890D01*
X152026000Y-97523110D01*
X152021915Y-97564591D01*
X152011607Y-97598569D01*
X151994866Y-97629890D01*
X151972339Y-97657339D01*
X151944890Y-97679866D01*
X151913569Y-97696607D01*
X151879591Y-97706915D01*
X151838110Y-97711000D01*
X151161890Y-97711000D01*
X151120409Y-97706915D01*
X151086431Y-97696607D01*
X151055110Y-97679866D01*
X151027661Y-97657339D01*
X151005134Y-97629890D01*
X150988393Y-97598569D01*
X150978085Y-97564591D01*
X150974000Y-97523110D01*
X150974000Y-96921890D01*
X150978085Y-96880409D01*
X150988393Y-96846431D01*
X151005134Y-96815110D01*
X151027661Y-96787661D01*
X151055110Y-96765134D01*
X151086431Y-96748393D01*
X151120409Y-96738085D01*
X151161890Y-96734000D01*
X151838110Y-96734000D01*
X151879591Y-96738085D01*
G37*
G36*
X167279591Y-96728085D02*
G01*
X167313569Y-96738393D01*
X167344890Y-96755134D01*
X167372339Y-96777661D01*
X167394866Y-96805110D01*
X167411607Y-96836431D01*
X167421915Y-96870409D01*
X167426000Y-96911890D01*
X167426000Y-97513110D01*
X167421915Y-97554591D01*
X167411607Y-97588569D01*
X167394866Y-97619890D01*
X167372339Y-97647339D01*
X167344890Y-97669866D01*
X167313569Y-97686607D01*
X167279591Y-97696915D01*
X167238110Y-97701000D01*
X166561890Y-97701000D01*
X166520409Y-97696915D01*
X166486431Y-97686607D01*
X166455110Y-97669866D01*
X166427661Y-97647339D01*
X166405134Y-97619890D01*
X166388393Y-97588569D01*
X166378085Y-97554591D01*
X166374000Y-97513110D01*
X166374000Y-96911890D01*
X166378085Y-96870409D01*
X166388393Y-96836431D01*
X166405134Y-96805110D01*
X166427661Y-96777661D01*
X166455110Y-96755134D01*
X166486431Y-96738393D01*
X166520409Y-96728085D01*
X166561890Y-96724000D01*
X167238110Y-96724000D01*
X167279591Y-96728085D01*
G37*
G36*
X142509928Y-95826764D02*
G01*
X142531009Y-95833160D01*
X142550445Y-95843548D01*
X142567476Y-95857524D01*
X142581452Y-95874555D01*
X142591840Y-95893991D01*
X142598236Y-95915072D01*
X142601000Y-95943140D01*
X142601000Y-96406860D01*
X142598236Y-96434928D01*
X142591840Y-96456009D01*
X142581452Y-96475445D01*
X142567476Y-96492476D01*
X142550445Y-96506452D01*
X142531009Y-96516840D01*
X142509928Y-96523236D01*
X142481860Y-96526000D01*
X141018140Y-96526000D01*
X140990072Y-96523236D01*
X140968991Y-96516840D01*
X140949555Y-96506452D01*
X140932524Y-96492476D01*
X140918548Y-96475445D01*
X140908160Y-96456009D01*
X140901764Y-96434928D01*
X140899000Y-96406860D01*
X140899000Y-95943140D01*
X140901764Y-95915072D01*
X140908160Y-95893991D01*
X140918548Y-95874555D01*
X140932524Y-95857524D01*
X140949555Y-95843548D01*
X140968991Y-95833160D01*
X140990072Y-95826764D01*
X141018140Y-95824000D01*
X142481860Y-95824000D01*
X142509928Y-95826764D01*
G37*
G36*
X149009928Y-95826764D02*
G01*
X149031009Y-95833160D01*
X149050445Y-95843548D01*
X149067476Y-95857524D01*
X149081452Y-95874555D01*
X149091840Y-95893991D01*
X149098236Y-95915072D01*
X149101000Y-95943140D01*
X149101000Y-96406860D01*
X149098236Y-96434928D01*
X149091840Y-96456009D01*
X149081452Y-96475445D01*
X149067476Y-96492476D01*
X149050445Y-96506452D01*
X149031009Y-96516840D01*
X149009928Y-96523236D01*
X148981860Y-96526000D01*
X147518140Y-96526000D01*
X147490072Y-96523236D01*
X147468991Y-96516840D01*
X147449555Y-96506452D01*
X147432524Y-96492476D01*
X147418548Y-96475445D01*
X147408160Y-96456009D01*
X147401764Y-96434928D01*
X147399000Y-96406860D01*
X147399000Y-95943140D01*
X147401764Y-95915072D01*
X147408160Y-95893991D01*
X147418548Y-95874555D01*
X147432524Y-95857524D01*
X147449555Y-95843548D01*
X147468991Y-95833160D01*
X147490072Y-95826764D01*
X147518140Y-95824000D01*
X148981860Y-95824000D01*
X149009928Y-95826764D01*
G37*
G36*
X164368228Y-94841703D02*
G01*
X164523100Y-94905853D01*
X164662481Y-94998985D01*
X164781015Y-95117519D01*
X164874147Y-95256900D01*
X164938297Y-95411772D01*
X164971000Y-95576184D01*
X164971000Y-95743816D01*
X164938297Y-95908228D01*
X164874147Y-96063100D01*
X164781015Y-96202481D01*
X164662481Y-96321015D01*
X164523100Y-96414147D01*
X164368228Y-96478297D01*
X164203816Y-96511000D01*
X164036184Y-96511000D01*
X163871772Y-96478297D01*
X163716900Y-96414147D01*
X163577519Y-96321015D01*
X163458985Y-96202481D01*
X163365853Y-96063100D01*
X163301703Y-95908228D01*
X163269000Y-95743816D01*
X163269000Y-95576184D01*
X163301703Y-95411772D01*
X163365853Y-95256900D01*
X163458985Y-95117519D01*
X163577519Y-94998985D01*
X163716900Y-94905853D01*
X163871772Y-94841703D01*
X164036184Y-94809000D01*
X164203816Y-94809000D01*
X164368228Y-94841703D01*
G37*
G36*
X156748228Y-94841703D02*
G01*
X156903100Y-94905853D01*
X157042481Y-94998985D01*
X157161015Y-95117519D01*
X157254147Y-95256900D01*
X157318297Y-95411772D01*
X157351000Y-95576184D01*
X157351000Y-95743816D01*
X157318297Y-95908228D01*
X157254147Y-96063100D01*
X157161015Y-96202481D01*
X157042481Y-96321015D01*
X156903100Y-96414147D01*
X156748228Y-96478297D01*
X156583816Y-96511000D01*
X156416184Y-96511000D01*
X156251772Y-96478297D01*
X156096900Y-96414147D01*
X155957519Y-96321015D01*
X155838985Y-96202481D01*
X155745853Y-96063100D01*
X155681703Y-95908228D01*
X155649000Y-95743816D01*
X155649000Y-95576184D01*
X155681703Y-95411772D01*
X155745853Y-95256900D01*
X155838985Y-95117519D01*
X155957519Y-94998985D01*
X156096900Y-94905853D01*
X156251772Y-94841703D01*
X156416184Y-94809000D01*
X156583816Y-94809000D01*
X156748228Y-94841703D01*
G37*
G36*
X117069987Y-93601524D02*
G01*
X117088730Y-93607210D01*
X117105997Y-93616439D01*
X117121136Y-93628864D01*
X117133561Y-93644003D01*
X117142790Y-93661270D01*
X117148476Y-93680013D01*
X117151000Y-93705640D01*
X117151000Y-95594360D01*
X117148476Y-95619987D01*
X117142790Y-95638730D01*
X117133561Y-95655997D01*
X117121136Y-95671136D01*
X117105997Y-95683561D01*
X117088730Y-95692790D01*
X117069987Y-95698476D01*
X117044360Y-95701000D01*
X116605640Y-95701000D01*
X116580013Y-95698476D01*
X116561270Y-95692790D01*
X116544003Y-95683561D01*
X116528864Y-95671136D01*
X116516439Y-95655997D01*
X116507210Y-95638730D01*
X116501524Y-95619987D01*
X116499000Y-95594360D01*
X116499000Y-93705640D01*
X116501524Y-93680013D01*
X116507210Y-93661270D01*
X116516439Y-93644003D01*
X116528864Y-93628864D01*
X116544003Y-93616439D01*
X116561270Y-93607210D01*
X116580013Y-93601524D01*
X116605640Y-93599000D01*
X117044360Y-93599000D01*
X117069987Y-93601524D01*
G37*
G36*
X115799987Y-93601524D02*
G01*
X115818730Y-93607210D01*
X115835997Y-93616439D01*
X115851136Y-93628864D01*
X115863561Y-93644003D01*
X115872790Y-93661270D01*
X115878476Y-93680013D01*
X115881000Y-93705640D01*
X115881000Y-95594360D01*
X115878476Y-95619987D01*
X115872790Y-95638730D01*
X115863561Y-95655997D01*
X115851136Y-95671136D01*
X115835997Y-95683561D01*
X115818730Y-95692790D01*
X115799987Y-95698476D01*
X115774360Y-95701000D01*
X115335640Y-95701000D01*
X115310013Y-95698476D01*
X115291270Y-95692790D01*
X115274003Y-95683561D01*
X115258864Y-95671136D01*
X115246439Y-95655997D01*
X115237210Y-95638730D01*
X115231524Y-95619987D01*
X115229000Y-95594360D01*
X115229000Y-93705640D01*
X115231524Y-93680013D01*
X115237210Y-93661270D01*
X115246439Y-93644003D01*
X115258864Y-93628864D01*
X115274003Y-93616439D01*
X115291270Y-93607210D01*
X115310013Y-93601524D01*
X115335640Y-93599000D01*
X115774360Y-93599000D01*
X115799987Y-93601524D01*
G37*
G36*
X118339987Y-93601524D02*
G01*
X118358730Y-93607210D01*
X118375997Y-93616439D01*
X118391136Y-93628864D01*
X118403561Y-93644003D01*
X118412790Y-93661270D01*
X118418476Y-93680013D01*
X118421000Y-93705640D01*
X118421000Y-95594360D01*
X118418476Y-95619987D01*
X118412790Y-95638730D01*
X118403561Y-95655997D01*
X118391136Y-95671136D01*
X118375997Y-95683561D01*
X118358730Y-95692790D01*
X118339987Y-95698476D01*
X118314360Y-95701000D01*
X117875640Y-95701000D01*
X117850013Y-95698476D01*
X117831270Y-95692790D01*
X117814003Y-95683561D01*
X117798864Y-95671136D01*
X117786439Y-95655997D01*
X117777210Y-95638730D01*
X117771524Y-95619987D01*
X117769000Y-95594360D01*
X117769000Y-93705640D01*
X117771524Y-93680013D01*
X117777210Y-93661270D01*
X117786439Y-93644003D01*
X117798864Y-93628864D01*
X117814003Y-93616439D01*
X117831270Y-93607210D01*
X117850013Y-93601524D01*
X117875640Y-93599000D01*
X118314360Y-93599000D01*
X118339987Y-93601524D01*
G37*
G36*
X114529987Y-93601524D02*
G01*
X114548730Y-93607210D01*
X114565997Y-93616439D01*
X114581136Y-93628864D01*
X114593561Y-93644003D01*
X114602790Y-93661270D01*
X114608476Y-93680013D01*
X114611000Y-93705640D01*
X114611000Y-95594360D01*
X114608476Y-95619987D01*
X114602790Y-95638730D01*
X114593561Y-95655997D01*
X114581136Y-95671136D01*
X114565997Y-95683561D01*
X114548730Y-95692790D01*
X114529987Y-95698476D01*
X114504360Y-95701000D01*
X114065640Y-95701000D01*
X114040013Y-95698476D01*
X114021270Y-95692790D01*
X114004003Y-95683561D01*
X113988864Y-95671136D01*
X113976439Y-95655997D01*
X113967210Y-95638730D01*
X113961524Y-95619987D01*
X113959000Y-95594360D01*
X113959000Y-93705640D01*
X113961524Y-93680013D01*
X113967210Y-93661270D01*
X113976439Y-93644003D01*
X113988864Y-93628864D01*
X114004003Y-93616439D01*
X114021270Y-93607210D01*
X114040013Y-93601524D01*
X114065640Y-93599000D01*
X114504360Y-93599000D01*
X114529987Y-93601524D01*
G37*
G36*
X113259987Y-93601524D02*
G01*
X113278730Y-93607210D01*
X113295997Y-93616439D01*
X113311136Y-93628864D01*
X113323561Y-93644003D01*
X113332790Y-93661270D01*
X113338476Y-93680013D01*
X113341000Y-93705640D01*
X113341000Y-95594360D01*
X113338476Y-95619987D01*
X113332790Y-95638730D01*
X113323561Y-95655997D01*
X113311136Y-95671136D01*
X113295997Y-95683561D01*
X113278730Y-95692790D01*
X113259987Y-95698476D01*
X113234360Y-95701000D01*
X112795640Y-95701000D01*
X112770013Y-95698476D01*
X112751270Y-95692790D01*
X112734003Y-95683561D01*
X112718864Y-95671136D01*
X112706439Y-95655997D01*
X112697210Y-95638730D01*
X112691524Y-95619987D01*
X112689000Y-95594360D01*
X112689000Y-93705640D01*
X112691524Y-93680013D01*
X112697210Y-93661270D01*
X112706439Y-93644003D01*
X112718864Y-93628864D01*
X112734003Y-93616439D01*
X112751270Y-93607210D01*
X112770013Y-93601524D01*
X112795640Y-93599000D01*
X113234360Y-93599000D01*
X113259987Y-93601524D01*
G37*
G36*
X125959987Y-93601524D02*
G01*
X125978730Y-93607210D01*
X125995997Y-93616439D01*
X126011136Y-93628864D01*
X126023561Y-93644003D01*
X126032790Y-93661270D01*
X126038476Y-93680013D01*
X126041000Y-93705640D01*
X126041000Y-95594360D01*
X126038476Y-95619987D01*
X126032790Y-95638730D01*
X126023561Y-95655997D01*
X126011136Y-95671136D01*
X125995997Y-95683561D01*
X125978730Y-95692790D01*
X125959987Y-95698476D01*
X125934360Y-95701000D01*
X125495640Y-95701000D01*
X125470013Y-95698476D01*
X125451270Y-95692790D01*
X125434003Y-95683561D01*
X125418864Y-95671136D01*
X125406439Y-95655997D01*
X125397210Y-95638730D01*
X125391524Y-95619987D01*
X125389000Y-95594360D01*
X125389000Y-93705640D01*
X125391524Y-93680013D01*
X125397210Y-93661270D01*
X125406439Y-93644003D01*
X125418864Y-93628864D01*
X125434003Y-93616439D01*
X125451270Y-93607210D01*
X125470013Y-93601524D01*
X125495640Y-93599000D01*
X125934360Y-93599000D01*
X125959987Y-93601524D01*
G37*
G36*
X122149987Y-93601524D02*
G01*
X122168730Y-93607210D01*
X122185997Y-93616439D01*
X122201136Y-93628864D01*
X122213561Y-93644003D01*
X122222790Y-93661270D01*
X122228476Y-93680013D01*
X122231000Y-93705640D01*
X122231000Y-95594360D01*
X122228476Y-95619987D01*
X122222790Y-95638730D01*
X122213561Y-95655997D01*
X122201136Y-95671136D01*
X122185997Y-95683561D01*
X122168730Y-95692790D01*
X122149987Y-95698476D01*
X122124360Y-95701000D01*
X121685640Y-95701000D01*
X121660013Y-95698476D01*
X121641270Y-95692790D01*
X121624003Y-95683561D01*
X121608864Y-95671136D01*
X121596439Y-95655997D01*
X121587210Y-95638730D01*
X121581524Y-95619987D01*
X121579000Y-95594360D01*
X121579000Y-93705640D01*
X121581524Y-93680013D01*
X121587210Y-93661270D01*
X121596439Y-93644003D01*
X121608864Y-93628864D01*
X121624003Y-93616439D01*
X121641270Y-93607210D01*
X121660013Y-93601524D01*
X121685640Y-93599000D01*
X122124360Y-93599000D01*
X122149987Y-93601524D01*
G37*
G36*
X120879987Y-93601524D02*
G01*
X120898730Y-93607210D01*
X120915997Y-93616439D01*
X120931136Y-93628864D01*
X120943561Y-93644003D01*
X120952790Y-93661270D01*
X120958476Y-93680013D01*
X120961000Y-93705640D01*
X120961000Y-95594360D01*
X120958476Y-95619987D01*
X120952790Y-95638730D01*
X120943561Y-95655997D01*
X120931136Y-95671136D01*
X120915997Y-95683561D01*
X120898730Y-95692790D01*
X120879987Y-95698476D01*
X120854360Y-95701000D01*
X120415640Y-95701000D01*
X120390013Y-95698476D01*
X120371270Y-95692790D01*
X120354003Y-95683561D01*
X120338864Y-95671136D01*
X120326439Y-95655997D01*
X120317210Y-95638730D01*
X120311524Y-95619987D01*
X120309000Y-95594360D01*
X120309000Y-93705640D01*
X120311524Y-93680013D01*
X120317210Y-93661270D01*
X120326439Y-93644003D01*
X120338864Y-93628864D01*
X120354003Y-93616439D01*
X120371270Y-93607210D01*
X120390013Y-93601524D01*
X120415640Y-93599000D01*
X120854360Y-93599000D01*
X120879987Y-93601524D01*
G37*
G36*
X123419987Y-93601524D02*
G01*
X123438730Y-93607210D01*
X123455997Y-93616439D01*
X123471136Y-93628864D01*
X123483561Y-93644003D01*
X123492790Y-93661270D01*
X123498476Y-93680013D01*
X123501000Y-93705640D01*
X123501000Y-95594360D01*
X123498476Y-95619987D01*
X123492790Y-95638730D01*
X123483561Y-95655997D01*
X123471136Y-95671136D01*
X123455997Y-95683561D01*
X123438730Y-95692790D01*
X123419987Y-95698476D01*
X123394360Y-95701000D01*
X122955640Y-95701000D01*
X122930013Y-95698476D01*
X122911270Y-95692790D01*
X122894003Y-95683561D01*
X122878864Y-95671136D01*
X122866439Y-95655997D01*
X122857210Y-95638730D01*
X122851524Y-95619987D01*
X122849000Y-95594360D01*
X122849000Y-93705640D01*
X122851524Y-93680013D01*
X122857210Y-93661270D01*
X122866439Y-93644003D01*
X122878864Y-93628864D01*
X122894003Y-93616439D01*
X122911270Y-93607210D01*
X122930013Y-93601524D01*
X122955640Y-93599000D01*
X123394360Y-93599000D01*
X123419987Y-93601524D01*
G37*
G36*
X127229987Y-93601524D02*
G01*
X127248730Y-93607210D01*
X127265997Y-93616439D01*
X127281136Y-93628864D01*
X127293561Y-93644003D01*
X127302790Y-93661270D01*
X127308476Y-93680013D01*
X127311000Y-93705640D01*
X127311000Y-95594360D01*
X127308476Y-95619987D01*
X127302790Y-95638730D01*
X127293561Y-95655997D01*
X127281136Y-95671136D01*
X127265997Y-95683561D01*
X127248730Y-95692790D01*
X127229987Y-95698476D01*
X127204360Y-95701000D01*
X126765640Y-95701000D01*
X126740013Y-95698476D01*
X126721270Y-95692790D01*
X126704003Y-95683561D01*
X126688864Y-95671136D01*
X126676439Y-95655997D01*
X126667210Y-95638730D01*
X126661524Y-95619987D01*
X126659000Y-95594360D01*
X126659000Y-93705640D01*
X126661524Y-93680013D01*
X126667210Y-93661270D01*
X126676439Y-93644003D01*
X126688864Y-93628864D01*
X126704003Y-93616439D01*
X126721270Y-93607210D01*
X126740013Y-93601524D01*
X126765640Y-93599000D01*
X127204360Y-93599000D01*
X127229987Y-93601524D01*
G37*
G36*
X124689987Y-93601524D02*
G01*
X124708730Y-93607210D01*
X124725997Y-93616439D01*
X124741136Y-93628864D01*
X124753561Y-93644003D01*
X124762790Y-93661270D01*
X124768476Y-93680013D01*
X124771000Y-93705640D01*
X124771000Y-95594360D01*
X124768476Y-95619987D01*
X124762790Y-95638730D01*
X124753561Y-95655997D01*
X124741136Y-95671136D01*
X124725997Y-95683561D01*
X124708730Y-95692790D01*
X124689987Y-95698476D01*
X124664360Y-95701000D01*
X124225640Y-95701000D01*
X124200013Y-95698476D01*
X124181270Y-95692790D01*
X124164003Y-95683561D01*
X124148864Y-95671136D01*
X124136439Y-95655997D01*
X124127210Y-95638730D01*
X124121524Y-95619987D01*
X124119000Y-95594360D01*
X124119000Y-93705640D01*
X124121524Y-93680013D01*
X124127210Y-93661270D01*
X124136439Y-93644003D01*
X124148864Y-93628864D01*
X124164003Y-93616439D01*
X124181270Y-93607210D01*
X124200013Y-93601524D01*
X124225640Y-93599000D01*
X124664360Y-93599000D01*
X124689987Y-93601524D01*
G37*
G36*
X119609987Y-93601524D02*
G01*
X119628730Y-93607210D01*
X119645997Y-93616439D01*
X119661136Y-93628864D01*
X119673561Y-93644003D01*
X119682790Y-93661270D01*
X119688476Y-93680013D01*
X119691000Y-93705640D01*
X119691000Y-95594360D01*
X119688476Y-95619987D01*
X119682790Y-95638730D01*
X119673561Y-95655997D01*
X119661136Y-95671136D01*
X119645997Y-95683561D01*
X119628730Y-95692790D01*
X119609987Y-95698476D01*
X119584360Y-95701000D01*
X119145640Y-95701000D01*
X119120013Y-95698476D01*
X119101270Y-95692790D01*
X119084003Y-95683561D01*
X119068864Y-95671136D01*
X119056439Y-95655997D01*
X119047210Y-95638730D01*
X119041524Y-95619987D01*
X119039000Y-95594360D01*
X119039000Y-93705640D01*
X119041524Y-93680013D01*
X119047210Y-93661270D01*
X119056439Y-93644003D01*
X119068864Y-93628864D01*
X119084003Y-93616439D01*
X119101270Y-93607210D01*
X119120013Y-93601524D01*
X119145640Y-93599000D01*
X119584360Y-93599000D01*
X119609987Y-93601524D01*
G37*
G36*
X149009928Y-94556764D02*
G01*
X149031009Y-94563160D01*
X149050445Y-94573548D01*
X149067476Y-94587524D01*
X149081452Y-94604555D01*
X149091840Y-94623991D01*
X149098236Y-94645072D01*
X149101000Y-94673140D01*
X149101000Y-95136860D01*
X149098236Y-95164928D01*
X149091840Y-95186009D01*
X149081452Y-95205445D01*
X149067476Y-95222476D01*
X149050445Y-95236452D01*
X149031009Y-95246840D01*
X149009928Y-95253236D01*
X148981860Y-95256000D01*
X147518140Y-95256000D01*
X147490072Y-95253236D01*
X147468991Y-95246840D01*
X147449555Y-95236452D01*
X147432524Y-95222476D01*
X147418548Y-95205445D01*
X147408160Y-95186009D01*
X147401764Y-95164928D01*
X147399000Y-95136860D01*
X147399000Y-94673140D01*
X147401764Y-94645072D01*
X147408160Y-94623991D01*
X147418548Y-94604555D01*
X147432524Y-94587524D01*
X147449555Y-94573548D01*
X147468991Y-94563160D01*
X147490072Y-94556764D01*
X147518140Y-94554000D01*
X148981860Y-94554000D01*
X149009928Y-94556764D01*
G37*
G36*
X142509928Y-94556764D02*
G01*
X142531009Y-94563160D01*
X142550445Y-94573548D01*
X142567476Y-94587524D01*
X142581452Y-94604555D01*
X142591840Y-94623991D01*
X142598236Y-94645072D01*
X142601000Y-94673140D01*
X142601000Y-95136860D01*
X142598236Y-95164928D01*
X142591840Y-95186009D01*
X142581452Y-95205445D01*
X142567476Y-95222476D01*
X142550445Y-95236452D01*
X142531009Y-95246840D01*
X142509928Y-95253236D01*
X142481860Y-95256000D01*
X141018140Y-95256000D01*
X140990072Y-95253236D01*
X140968991Y-95246840D01*
X140949555Y-95236452D01*
X140932524Y-95222476D01*
X140918548Y-95205445D01*
X140908160Y-95186009D01*
X140901764Y-95164928D01*
X140899000Y-95136860D01*
X140899000Y-94673140D01*
X140901764Y-94645072D01*
X140908160Y-94623991D01*
X140918548Y-94604555D01*
X140932524Y-94587524D01*
X140949555Y-94573548D01*
X140968991Y-94563160D01*
X140990072Y-94556764D01*
X141018140Y-94554000D01*
X142481860Y-94554000D01*
X142509928Y-94556764D01*
G37*
G36*
X175364903Y-92297075D02*
G01*
X175592571Y-92391378D01*
X175797466Y-92528285D01*
X175971715Y-92702534D01*
X176108622Y-92907429D01*
X176202925Y-93135097D01*
X176251000Y-93376787D01*
X176251000Y-93623213D01*
X176202925Y-93864903D01*
X176108622Y-94092571D01*
X175971715Y-94297466D01*
X175797466Y-94471715D01*
X175592571Y-94608622D01*
X175592570Y-94608623D01*
X175592569Y-94608623D01*
X175364903Y-94702925D01*
X175123214Y-94751000D01*
X174876786Y-94751000D01*
X174635097Y-94702925D01*
X174407431Y-94608623D01*
X174407430Y-94608623D01*
X174407429Y-94608622D01*
X174202534Y-94471715D01*
X174028285Y-94297466D01*
X173891378Y-94092571D01*
X173797075Y-93864903D01*
X173749000Y-93623213D01*
X173749000Y-93376787D01*
X173797075Y-93135097D01*
X173891378Y-92907429D01*
X174028285Y-92702534D01*
X174202534Y-92528285D01*
X174407429Y-92391378D01*
X174635097Y-92297075D01*
X174876786Y-92249000D01*
X175123214Y-92249000D01*
X175364903Y-92297075D01*
G37*
G36*
X170299272Y-92513428D02*
G01*
X170485991Y-92590770D01*
X170485993Y-92590771D01*
X170654037Y-92703054D01*
X170796946Y-92845963D01*
X170838016Y-92907429D01*
X170909230Y-93014009D01*
X170986572Y-93200728D01*
X171026000Y-93398947D01*
X171026000Y-93601053D01*
X170986572Y-93799272D01*
X170914760Y-93972641D01*
X170909229Y-93985993D01*
X170796946Y-94154037D01*
X170654037Y-94296946D01*
X170485993Y-94409229D01*
X170485992Y-94409230D01*
X170485991Y-94409230D01*
X170299272Y-94486572D01*
X170101053Y-94526000D01*
X169898947Y-94526000D01*
X169700728Y-94486572D01*
X169514009Y-94409230D01*
X169514008Y-94409230D01*
X169514007Y-94409229D01*
X169345963Y-94296946D01*
X169203054Y-94154037D01*
X169090771Y-93985993D01*
X169085240Y-93972641D01*
X169013428Y-93799272D01*
X168974000Y-93601053D01*
X168974000Y-93398947D01*
X169013428Y-93200728D01*
X169090770Y-93014009D01*
X169161984Y-92907429D01*
X169203054Y-92845963D01*
X169345963Y-92703054D01*
X169514007Y-92590771D01*
X169514009Y-92590770D01*
X169700728Y-92513428D01*
X169898947Y-92474000D01*
X170101053Y-92474000D01*
X170299272Y-92513428D01*
G37*
G36*
X149009928Y-93286764D02*
G01*
X149031009Y-93293160D01*
X149050445Y-93303548D01*
X149067476Y-93317524D01*
X149081452Y-93334555D01*
X149091840Y-93353991D01*
X149098236Y-93375072D01*
X149101000Y-93403140D01*
X149101000Y-93866860D01*
X149098236Y-93894928D01*
X149091840Y-93916009D01*
X149081452Y-93935445D01*
X149067476Y-93952476D01*
X149050445Y-93966452D01*
X149031009Y-93976840D01*
X149009928Y-93983236D01*
X148981860Y-93986000D01*
X147518140Y-93986000D01*
X147490072Y-93983236D01*
X147468991Y-93976840D01*
X147449555Y-93966452D01*
X147432524Y-93952476D01*
X147418548Y-93935445D01*
X147408160Y-93916009D01*
X147401764Y-93894928D01*
X147399000Y-93866860D01*
X147399000Y-93403140D01*
X147401764Y-93375072D01*
X147408160Y-93353991D01*
X147418548Y-93334555D01*
X147432524Y-93317524D01*
X147449555Y-93303548D01*
X147468991Y-93293160D01*
X147490072Y-93286764D01*
X147518140Y-93284000D01*
X148981860Y-93284000D01*
X149009928Y-93286764D01*
G37*
G36*
X142509928Y-93286764D02*
G01*
X142531009Y-93293160D01*
X142550445Y-93303548D01*
X142567476Y-93317524D01*
X142581452Y-93334555D01*
X142591840Y-93353991D01*
X142598236Y-93375072D01*
X142601000Y-93403140D01*
X142601000Y-93866860D01*
X142598236Y-93894928D01*
X142591840Y-93916009D01*
X142581452Y-93935445D01*
X142567476Y-93952476D01*
X142550445Y-93966452D01*
X142531009Y-93976840D01*
X142509928Y-93983236D01*
X142481860Y-93986000D01*
X141018140Y-93986000D01*
X140990072Y-93983236D01*
X140968991Y-93976840D01*
X140949555Y-93966452D01*
X140932524Y-93952476D01*
X140918548Y-93935445D01*
X140908160Y-93916009D01*
X140901764Y-93894928D01*
X140899000Y-93866860D01*
X140899000Y-93403140D01*
X140901764Y-93375072D01*
X140908160Y-93353991D01*
X140918548Y-93334555D01*
X140932524Y-93317524D01*
X140949555Y-93303548D01*
X140968991Y-93293160D01*
X140990072Y-93286764D01*
X141018140Y-93284000D01*
X142481860Y-93284000D01*
X142509928Y-93286764D01*
G37*
G36*
X164368228Y-92301703D02*
G01*
X164523100Y-92365853D01*
X164662481Y-92458985D01*
X164781015Y-92577519D01*
X164874147Y-92716900D01*
X164938297Y-92871772D01*
X164971000Y-93036184D01*
X164971000Y-93203816D01*
X164938297Y-93368228D01*
X164874147Y-93523100D01*
X164781015Y-93662481D01*
X164662481Y-93781015D01*
X164523100Y-93874147D01*
X164368228Y-93938297D01*
X164203816Y-93971000D01*
X164036184Y-93971000D01*
X163871772Y-93938297D01*
X163716900Y-93874147D01*
X163577519Y-93781015D01*
X163458985Y-93662481D01*
X163365853Y-93523100D01*
X163301703Y-93368228D01*
X163269000Y-93203816D01*
X163269000Y-93036184D01*
X163301703Y-92871772D01*
X163365853Y-92716900D01*
X163458985Y-92577519D01*
X163577519Y-92458985D01*
X163716900Y-92365853D01*
X163871772Y-92301703D01*
X164036184Y-92269000D01*
X164203816Y-92269000D01*
X164368228Y-92301703D01*
G37*
G36*
X156748228Y-92301703D02*
G01*
X156903100Y-92365853D01*
X157042481Y-92458985D01*
X157161015Y-92577519D01*
X157254147Y-92716900D01*
X157318297Y-92871772D01*
X157351000Y-93036184D01*
X157351000Y-93203816D01*
X157318297Y-93368228D01*
X157254147Y-93523100D01*
X157161015Y-93662481D01*
X157042481Y-93781015D01*
X156903100Y-93874147D01*
X156748228Y-93938297D01*
X156583816Y-93971000D01*
X156416184Y-93971000D01*
X156251772Y-93938297D01*
X156096900Y-93874147D01*
X155957519Y-93781015D01*
X155838985Y-93662481D01*
X155745853Y-93523100D01*
X155681703Y-93368228D01*
X155649000Y-93203816D01*
X155649000Y-93036184D01*
X155681703Y-92871772D01*
X155745853Y-92716900D01*
X155838985Y-92577519D01*
X155957519Y-92458985D01*
X156096900Y-92365853D01*
X156251772Y-92301703D01*
X156416184Y-92269000D01*
X156583816Y-92269000D01*
X156748228Y-92301703D01*
G37*
G36*
X142509928Y-92016764D02*
G01*
X142531009Y-92023160D01*
X142550445Y-92033548D01*
X142567476Y-92047524D01*
X142581452Y-92064555D01*
X142591840Y-92083991D01*
X142598236Y-92105072D01*
X142601000Y-92133140D01*
X142601000Y-92596860D01*
X142598236Y-92624928D01*
X142591840Y-92646009D01*
X142581452Y-92665445D01*
X142567476Y-92682476D01*
X142550445Y-92696452D01*
X142531009Y-92706840D01*
X142509928Y-92713236D01*
X142481860Y-92716000D01*
X141018140Y-92716000D01*
X140990072Y-92713236D01*
X140968991Y-92706840D01*
X140949555Y-92696452D01*
X140932524Y-92682476D01*
X140918548Y-92665445D01*
X140908160Y-92646009D01*
X140901764Y-92624928D01*
X140899000Y-92596860D01*
X140899000Y-92133140D01*
X140901764Y-92105072D01*
X140908160Y-92083991D01*
X140918548Y-92064555D01*
X140932524Y-92047524D01*
X140949555Y-92033548D01*
X140968991Y-92023160D01*
X140990072Y-92016764D01*
X141018140Y-92014000D01*
X142481860Y-92014000D01*
X142509928Y-92016764D01*
G37*
G36*
X149009928Y-92016764D02*
G01*
X149031009Y-92023160D01*
X149050445Y-92033548D01*
X149067476Y-92047524D01*
X149081452Y-92064555D01*
X149091840Y-92083991D01*
X149098236Y-92105072D01*
X149101000Y-92133140D01*
X149101000Y-92596860D01*
X149098236Y-92624928D01*
X149091840Y-92646009D01*
X149081452Y-92665445D01*
X149067476Y-92682476D01*
X149050445Y-92696452D01*
X149031009Y-92706840D01*
X149009928Y-92713236D01*
X148981860Y-92716000D01*
X147518140Y-92716000D01*
X147490072Y-92713236D01*
X147468991Y-92706840D01*
X147449555Y-92696452D01*
X147432524Y-92682476D01*
X147418548Y-92665445D01*
X147408160Y-92646009D01*
X147401764Y-92624928D01*
X147399000Y-92596860D01*
X147399000Y-92133140D01*
X147401764Y-92105072D01*
X147408160Y-92083991D01*
X147418548Y-92064555D01*
X147432524Y-92047524D01*
X147449555Y-92033548D01*
X147468991Y-92023160D01*
X147490072Y-92016764D01*
X147518140Y-92014000D01*
X148981860Y-92014000D01*
X149009928Y-92016764D01*
G37*
G36*
X142509928Y-90746764D02*
G01*
X142531009Y-90753160D01*
X142550445Y-90763548D01*
X142567476Y-90777524D01*
X142581452Y-90794555D01*
X142591840Y-90813991D01*
X142598236Y-90835072D01*
X142601000Y-90863140D01*
X142601000Y-91326860D01*
X142598236Y-91354928D01*
X142591840Y-91376009D01*
X142581452Y-91395445D01*
X142567476Y-91412476D01*
X142550445Y-91426452D01*
X142531009Y-91436840D01*
X142509928Y-91443236D01*
X142481860Y-91446000D01*
X141018140Y-91446000D01*
X140990072Y-91443236D01*
X140968991Y-91436840D01*
X140949555Y-91426452D01*
X140932524Y-91412476D01*
X140918548Y-91395445D01*
X140908160Y-91376009D01*
X140901764Y-91354928D01*
X140899000Y-91326860D01*
X140899000Y-90863140D01*
X140901764Y-90835072D01*
X140908160Y-90813991D01*
X140918548Y-90794555D01*
X140932524Y-90777524D01*
X140949555Y-90763548D01*
X140968991Y-90753160D01*
X140990072Y-90746764D01*
X141018140Y-90744000D01*
X142481860Y-90744000D01*
X142509928Y-90746764D01*
G37*
G36*
X149009928Y-90746764D02*
G01*
X149031009Y-90753160D01*
X149050445Y-90763548D01*
X149067476Y-90777524D01*
X149081452Y-90794555D01*
X149091840Y-90813991D01*
X149098236Y-90835072D01*
X149101000Y-90863140D01*
X149101000Y-91326860D01*
X149098236Y-91354928D01*
X149091840Y-91376009D01*
X149081452Y-91395445D01*
X149067476Y-91412476D01*
X149050445Y-91426452D01*
X149031009Y-91436840D01*
X149009928Y-91443236D01*
X148981860Y-91446000D01*
X147518140Y-91446000D01*
X147490072Y-91443236D01*
X147468991Y-91436840D01*
X147449555Y-91426452D01*
X147432524Y-91412476D01*
X147418548Y-91395445D01*
X147408160Y-91376009D01*
X147401764Y-91354928D01*
X147399000Y-91326860D01*
X147399000Y-90863140D01*
X147401764Y-90835072D01*
X147408160Y-90813991D01*
X147418548Y-90794555D01*
X147432524Y-90777524D01*
X147449555Y-90763548D01*
X147468991Y-90753160D01*
X147490072Y-90746764D01*
X147518140Y-90744000D01*
X148981860Y-90744000D01*
X149009928Y-90746764D01*
G37*
G36*
X164368228Y-89761703D02*
G01*
X164523100Y-89825853D01*
X164662481Y-89918985D01*
X164781015Y-90037519D01*
X164874147Y-90176900D01*
X164938297Y-90331772D01*
X164971000Y-90496184D01*
X164971000Y-90663816D01*
X164938297Y-90828228D01*
X164874147Y-90983100D01*
X164781015Y-91122481D01*
X164662481Y-91241015D01*
X164523100Y-91334147D01*
X164368228Y-91398297D01*
X164203816Y-91431000D01*
X164036184Y-91431000D01*
X163871772Y-91398297D01*
X163716900Y-91334147D01*
X163577519Y-91241015D01*
X163458985Y-91122481D01*
X163365853Y-90983100D01*
X163301703Y-90828228D01*
X163269000Y-90663816D01*
X163269000Y-90496184D01*
X163301703Y-90331772D01*
X163365853Y-90176900D01*
X163458985Y-90037519D01*
X163577519Y-89918985D01*
X163716900Y-89825853D01*
X163871772Y-89761703D01*
X164036184Y-89729000D01*
X164203816Y-89729000D01*
X164368228Y-89761703D01*
G37*
G36*
X156748228Y-89761703D02*
G01*
X156903100Y-89825853D01*
X157042481Y-89918985D01*
X157161015Y-90037519D01*
X157254147Y-90176900D01*
X157318297Y-90331772D01*
X157351000Y-90496184D01*
X157351000Y-90663816D01*
X157318297Y-90828228D01*
X157254147Y-90983100D01*
X157161015Y-91122481D01*
X157042481Y-91241015D01*
X156903100Y-91334147D01*
X156748228Y-91398297D01*
X156583816Y-91431000D01*
X156416184Y-91431000D01*
X156251772Y-91398297D01*
X156096900Y-91334147D01*
X155957519Y-91241015D01*
X155838985Y-91122481D01*
X155745853Y-90983100D01*
X155681703Y-90828228D01*
X155649000Y-90663816D01*
X155649000Y-90496184D01*
X155681703Y-90331772D01*
X155745853Y-90176900D01*
X155838985Y-90037519D01*
X155957519Y-89918985D01*
X156096900Y-89825853D01*
X156251772Y-89761703D01*
X156416184Y-89729000D01*
X156583816Y-89729000D01*
X156748228Y-89761703D01*
G37*
G36*
X137379591Y-89503085D02*
G01*
X137413569Y-89513393D01*
X137444890Y-89530134D01*
X137472339Y-89552661D01*
X137494866Y-89580110D01*
X137511607Y-89611431D01*
X137521915Y-89645409D01*
X137526000Y-89686890D01*
X137526000Y-90288110D01*
X137521915Y-90329591D01*
X137511607Y-90363569D01*
X137494866Y-90394890D01*
X137472339Y-90422339D01*
X137444890Y-90444866D01*
X137413569Y-90461607D01*
X137379591Y-90471915D01*
X137338110Y-90476000D01*
X136661890Y-90476000D01*
X136620409Y-90471915D01*
X136586431Y-90461607D01*
X136555110Y-90444866D01*
X136527661Y-90422339D01*
X136505134Y-90394890D01*
X136488393Y-90363569D01*
X136478085Y-90329591D01*
X136474000Y-90288110D01*
X136474000Y-89686890D01*
X136478085Y-89645409D01*
X136488393Y-89611431D01*
X136505134Y-89580110D01*
X136527661Y-89552661D01*
X136555110Y-89530134D01*
X136586431Y-89513393D01*
X136620409Y-89503085D01*
X136661890Y-89499000D01*
X137338110Y-89499000D01*
X137379591Y-89503085D01*
G37*
G36*
X139379591Y-89503085D02*
G01*
X139413569Y-89513393D01*
X139444890Y-89530134D01*
X139472339Y-89552661D01*
X139494866Y-89580110D01*
X139511607Y-89611431D01*
X139521915Y-89645409D01*
X139526000Y-89686890D01*
X139526000Y-90288110D01*
X139521915Y-90329591D01*
X139511607Y-90363569D01*
X139494866Y-90394890D01*
X139472339Y-90422339D01*
X139444890Y-90444866D01*
X139413569Y-90461607D01*
X139379591Y-90471915D01*
X139338110Y-90476000D01*
X138661890Y-90476000D01*
X138620409Y-90471915D01*
X138586431Y-90461607D01*
X138555110Y-90444866D01*
X138527661Y-90422339D01*
X138505134Y-90394890D01*
X138488393Y-90363569D01*
X138478085Y-90329591D01*
X138474000Y-90288110D01*
X138474000Y-89686890D01*
X138478085Y-89645409D01*
X138488393Y-89611431D01*
X138505134Y-89580110D01*
X138527661Y-89552661D01*
X138555110Y-89530134D01*
X138586431Y-89513393D01*
X138620409Y-89503085D01*
X138661890Y-89499000D01*
X139338110Y-89499000D01*
X139379591Y-89503085D01*
G37*
G36*
X142509928Y-89476764D02*
G01*
X142531009Y-89483160D01*
X142550445Y-89493548D01*
X142567476Y-89507524D01*
X142581452Y-89524555D01*
X142591840Y-89543991D01*
X142598236Y-89565072D01*
X142601000Y-89593140D01*
X142601000Y-90056860D01*
X142598236Y-90084928D01*
X142591840Y-90106009D01*
X142581452Y-90125445D01*
X142567476Y-90142476D01*
X142550445Y-90156452D01*
X142531009Y-90166840D01*
X142509928Y-90173236D01*
X142481860Y-90176000D01*
X141018140Y-90176000D01*
X140990072Y-90173236D01*
X140968991Y-90166840D01*
X140949555Y-90156452D01*
X140932524Y-90142476D01*
X140918548Y-90125445D01*
X140908160Y-90106009D01*
X140901764Y-90084928D01*
X140899000Y-90056860D01*
X140899000Y-89593140D01*
X140901764Y-89565072D01*
X140908160Y-89543991D01*
X140918548Y-89524555D01*
X140932524Y-89507524D01*
X140949555Y-89493548D01*
X140968991Y-89483160D01*
X140990072Y-89476764D01*
X141018140Y-89474000D01*
X142481860Y-89474000D01*
X142509928Y-89476764D01*
G37*
G36*
X149009928Y-89476764D02*
G01*
X149031009Y-89483160D01*
X149050445Y-89493548D01*
X149067476Y-89507524D01*
X149081452Y-89524555D01*
X149091840Y-89543991D01*
X149098236Y-89565072D01*
X149101000Y-89593140D01*
X149101000Y-90056860D01*
X149098236Y-90084928D01*
X149091840Y-90106009D01*
X149081452Y-90125445D01*
X149067476Y-90142476D01*
X149050445Y-90156452D01*
X149031009Y-90166840D01*
X149009928Y-90173236D01*
X148981860Y-90176000D01*
X147518140Y-90176000D01*
X147490072Y-90173236D01*
X147468991Y-90166840D01*
X147449555Y-90156452D01*
X147432524Y-90142476D01*
X147418548Y-90125445D01*
X147408160Y-90106009D01*
X147401764Y-90084928D01*
X147399000Y-90056860D01*
X147399000Y-89593140D01*
X147401764Y-89565072D01*
X147408160Y-89543991D01*
X147418548Y-89524555D01*
X147432524Y-89507524D01*
X147449555Y-89493548D01*
X147468991Y-89483160D01*
X147490072Y-89476764D01*
X147518140Y-89474000D01*
X148981860Y-89474000D01*
X149009928Y-89476764D01*
G37*
G36*
X170238415Y-87271915D02*
G01*
X170364903Y-87297075D01*
X170592571Y-87391378D01*
X170797466Y-87528285D01*
X170971715Y-87702534D01*
X171067552Y-87845964D01*
X171108623Y-87907431D01*
X171202925Y-88135097D01*
X171251000Y-88376786D01*
X171251000Y-88623214D01*
X171229659Y-88730500D01*
X171202925Y-88864903D01*
X171108622Y-89092571D01*
X170971715Y-89297466D01*
X170797466Y-89471715D01*
X170592571Y-89608622D01*
X170592570Y-89608623D01*
X170592569Y-89608623D01*
X170364903Y-89702925D01*
X170123214Y-89751000D01*
X169876786Y-89751000D01*
X169635097Y-89702925D01*
X169407431Y-89608623D01*
X169407430Y-89608623D01*
X169407429Y-89608622D01*
X169202534Y-89471715D01*
X169028285Y-89297466D01*
X168891378Y-89092571D01*
X168797075Y-88864903D01*
X168770341Y-88730500D01*
X168749000Y-88623214D01*
X168749000Y-88376786D01*
X168797075Y-88135097D01*
X168891377Y-87907431D01*
X168932448Y-87845964D01*
X169028285Y-87702534D01*
X169202534Y-87528285D01*
X169407429Y-87391378D01*
X169635097Y-87297075D01*
X169761585Y-87271915D01*
X169876786Y-87249000D01*
X170123214Y-87249000D01*
X170238415Y-87271915D01*
G37*
G36*
X175299272Y-87513428D02*
G01*
X175485991Y-87590770D01*
X175485993Y-87590771D01*
X175654037Y-87703054D01*
X175796946Y-87845963D01*
X175876593Y-87965164D01*
X175909230Y-88014009D01*
X175986572Y-88200728D01*
X176026000Y-88398947D01*
X176026000Y-88601053D01*
X175986572Y-88799272D01*
X175909230Y-88985991D01*
X175909229Y-88985993D01*
X175796946Y-89154037D01*
X175654037Y-89296946D01*
X175485993Y-89409229D01*
X175485992Y-89409230D01*
X175485991Y-89409230D01*
X175299272Y-89486572D01*
X175101053Y-89526000D01*
X174898947Y-89526000D01*
X174700728Y-89486572D01*
X174514009Y-89409230D01*
X174514008Y-89409230D01*
X174514007Y-89409229D01*
X174345963Y-89296946D01*
X174203054Y-89154037D01*
X174090771Y-88985993D01*
X174090770Y-88985991D01*
X174013428Y-88799272D01*
X173974000Y-88601053D01*
X173974000Y-88398947D01*
X174013428Y-88200728D01*
X174090770Y-88014009D01*
X174123407Y-87965164D01*
X174203054Y-87845963D01*
X174345963Y-87703054D01*
X174514007Y-87590771D01*
X174514009Y-87590770D01*
X174700728Y-87513428D01*
X174898947Y-87474000D01*
X175101053Y-87474000D01*
X175299272Y-87513428D01*
G37*
G36*
X142509928Y-88206764D02*
G01*
X142531009Y-88213160D01*
X142550445Y-88223548D01*
X142567476Y-88237524D01*
X142581452Y-88254555D01*
X142591840Y-88273991D01*
X142598236Y-88295072D01*
X142601000Y-88323140D01*
X142601000Y-88786860D01*
X142598236Y-88814928D01*
X142591840Y-88836009D01*
X142581452Y-88855445D01*
X142567476Y-88872476D01*
X142550445Y-88886452D01*
X142531009Y-88896840D01*
X142509928Y-88903236D01*
X142481860Y-88906000D01*
X141018140Y-88906000D01*
X140990072Y-88903236D01*
X140968991Y-88896840D01*
X140949555Y-88886452D01*
X140932524Y-88872476D01*
X140918548Y-88855445D01*
X140908160Y-88836009D01*
X140901764Y-88814928D01*
X140899000Y-88786860D01*
X140899000Y-88323140D01*
X140901764Y-88295072D01*
X140908160Y-88273991D01*
X140918548Y-88254555D01*
X140932524Y-88237524D01*
X140949555Y-88223548D01*
X140968991Y-88213160D01*
X140990072Y-88206764D01*
X141018140Y-88204000D01*
X142481860Y-88204000D01*
X142509928Y-88206764D01*
G37*
G36*
X149009928Y-88206764D02*
G01*
X149031009Y-88213160D01*
X149050445Y-88223548D01*
X149067476Y-88237524D01*
X149081452Y-88254555D01*
X149091840Y-88273991D01*
X149098236Y-88295072D01*
X149101000Y-88323140D01*
X149101000Y-88786860D01*
X149098236Y-88814928D01*
X149091840Y-88836009D01*
X149081452Y-88855445D01*
X149067476Y-88872476D01*
X149050445Y-88886452D01*
X149031009Y-88896840D01*
X149009928Y-88903236D01*
X148981860Y-88906000D01*
X147518140Y-88906000D01*
X147490072Y-88903236D01*
X147468991Y-88896840D01*
X147449555Y-88886452D01*
X147432524Y-88872476D01*
X147418548Y-88855445D01*
X147408160Y-88836009D01*
X147401764Y-88814928D01*
X147399000Y-88786860D01*
X147399000Y-88323140D01*
X147401764Y-88295072D01*
X147408160Y-88273991D01*
X147418548Y-88254555D01*
X147432524Y-88237524D01*
X147449555Y-88223548D01*
X147468991Y-88213160D01*
X147490072Y-88206764D01*
X147518140Y-88204000D01*
X148981860Y-88204000D01*
X149009928Y-88206764D01*
G37*
G36*
X139379591Y-87928085D02*
G01*
X139413569Y-87938393D01*
X139444890Y-87955134D01*
X139472339Y-87977661D01*
X139494866Y-88005110D01*
X139511607Y-88036431D01*
X139521915Y-88070409D01*
X139526000Y-88111890D01*
X139526000Y-88713110D01*
X139521915Y-88754591D01*
X139511607Y-88788569D01*
X139494866Y-88819890D01*
X139472339Y-88847339D01*
X139444890Y-88869866D01*
X139413569Y-88886607D01*
X139379591Y-88896915D01*
X139338110Y-88901000D01*
X138661890Y-88901000D01*
X138620409Y-88896915D01*
X138586431Y-88886607D01*
X138555110Y-88869866D01*
X138527661Y-88847339D01*
X138505134Y-88819890D01*
X138488393Y-88788569D01*
X138478085Y-88754591D01*
X138474000Y-88713110D01*
X138474000Y-88111890D01*
X138478085Y-88070409D01*
X138488393Y-88036431D01*
X138505134Y-88005110D01*
X138527661Y-87977661D01*
X138555110Y-87955134D01*
X138586431Y-87938393D01*
X138620409Y-87928085D01*
X138661890Y-87924000D01*
X139338110Y-87924000D01*
X139379591Y-87928085D01*
G37*
G36*
X137379591Y-87928085D02*
G01*
X137413569Y-87938393D01*
X137444890Y-87955134D01*
X137472339Y-87977661D01*
X137494866Y-88005110D01*
X137511607Y-88036431D01*
X137521915Y-88070409D01*
X137526000Y-88111890D01*
X137526000Y-88713110D01*
X137521915Y-88754591D01*
X137511607Y-88788569D01*
X137494866Y-88819890D01*
X137472339Y-88847339D01*
X137444890Y-88869866D01*
X137413569Y-88886607D01*
X137379591Y-88896915D01*
X137338110Y-88901000D01*
X136661890Y-88901000D01*
X136620409Y-88896915D01*
X136586431Y-88886607D01*
X136555110Y-88869866D01*
X136527661Y-88847339D01*
X136505134Y-88819890D01*
X136488393Y-88788569D01*
X136478085Y-88754591D01*
X136474000Y-88713110D01*
X136474000Y-88111890D01*
X136478085Y-88070409D01*
X136488393Y-88036431D01*
X136505134Y-88005110D01*
X136527661Y-87977661D01*
X136555110Y-87955134D01*
X136586431Y-87938393D01*
X136620409Y-87928085D01*
X136661890Y-87924000D01*
X137338110Y-87924000D01*
X137379591Y-87928085D01*
G37*
G36*
X164368228Y-87221703D02*
G01*
X164523100Y-87285853D01*
X164662481Y-87378985D01*
X164781015Y-87497519D01*
X164874147Y-87636900D01*
X164938297Y-87791772D01*
X164971000Y-87956184D01*
X164971000Y-88123816D01*
X164938297Y-88288228D01*
X164874147Y-88443100D01*
X164781015Y-88582481D01*
X164662481Y-88701015D01*
X164523100Y-88794147D01*
X164368228Y-88858297D01*
X164203816Y-88891000D01*
X164036184Y-88891000D01*
X163871772Y-88858297D01*
X163716900Y-88794147D01*
X163577519Y-88701015D01*
X163458985Y-88582481D01*
X163365853Y-88443100D01*
X163301703Y-88288228D01*
X163269000Y-88123816D01*
X163269000Y-87956184D01*
X163301703Y-87791772D01*
X163365853Y-87636900D01*
X163458985Y-87497519D01*
X163577519Y-87378985D01*
X163716900Y-87285853D01*
X163871772Y-87221703D01*
X164036184Y-87189000D01*
X164203816Y-87189000D01*
X164368228Y-87221703D01*
G37*
G36*
X156748228Y-87221703D02*
G01*
X156903100Y-87285853D01*
X157042481Y-87378985D01*
X157161015Y-87497519D01*
X157254147Y-87636900D01*
X157318297Y-87791772D01*
X157351000Y-87956184D01*
X157351000Y-88123816D01*
X157318297Y-88288228D01*
X157254147Y-88443100D01*
X157161015Y-88582481D01*
X157042481Y-88701015D01*
X156903100Y-88794147D01*
X156748228Y-88858297D01*
X156583816Y-88891000D01*
X156416184Y-88891000D01*
X156251772Y-88858297D01*
X156096900Y-88794147D01*
X155957519Y-88701015D01*
X155838985Y-88582481D01*
X155745853Y-88443100D01*
X155681703Y-88288228D01*
X155649000Y-88123816D01*
X155649000Y-87956184D01*
X155681703Y-87791772D01*
X155745853Y-87636900D01*
X155838985Y-87497519D01*
X155957519Y-87378985D01*
X156096900Y-87285853D01*
X156251772Y-87221703D01*
X156416184Y-87189000D01*
X156583816Y-87189000D01*
X156748228Y-87221703D01*
G37*
G36*
X153879591Y-86303085D02*
G01*
X153913569Y-86313393D01*
X153944890Y-86330134D01*
X153972339Y-86352661D01*
X153994866Y-86380110D01*
X154011607Y-86411431D01*
X154021915Y-86445409D01*
X154026000Y-86486890D01*
X154026000Y-87088110D01*
X154021915Y-87129591D01*
X154011607Y-87163569D01*
X153994866Y-87194890D01*
X153972339Y-87222339D01*
X153944890Y-87244866D01*
X153913569Y-87261607D01*
X153879591Y-87271915D01*
X153838110Y-87276000D01*
X153161890Y-87276000D01*
X153120409Y-87271915D01*
X153086431Y-87261607D01*
X153055110Y-87244866D01*
X153027661Y-87222339D01*
X153005134Y-87194890D01*
X152988393Y-87163569D01*
X152978085Y-87129591D01*
X152974000Y-87088110D01*
X152974000Y-86486890D01*
X152978085Y-86445409D01*
X152988393Y-86411431D01*
X153005134Y-86380110D01*
X153027661Y-86352661D01*
X153055110Y-86330134D01*
X153086431Y-86313393D01*
X153120409Y-86303085D01*
X153161890Y-86299000D01*
X153838110Y-86299000D01*
X153879591Y-86303085D01*
G37*
G36*
X144554591Y-85478085D02*
G01*
X144588569Y-85488393D01*
X144619890Y-85505134D01*
X144647339Y-85527661D01*
X144669866Y-85555110D01*
X144686607Y-85586431D01*
X144696915Y-85620409D01*
X144701000Y-85661890D01*
X144701000Y-86338110D01*
X144696915Y-86379591D01*
X144686607Y-86413569D01*
X144669866Y-86444890D01*
X144647339Y-86472339D01*
X144619890Y-86494866D01*
X144588569Y-86511607D01*
X144554591Y-86521915D01*
X144513110Y-86526000D01*
X143911890Y-86526000D01*
X143870409Y-86521915D01*
X143836431Y-86511607D01*
X143805110Y-86494866D01*
X143777661Y-86472339D01*
X143755134Y-86444890D01*
X143738393Y-86413569D01*
X143728085Y-86379591D01*
X143724000Y-86338110D01*
X143724000Y-85661890D01*
X143728085Y-85620409D01*
X143738393Y-85586431D01*
X143755134Y-85555110D01*
X143777661Y-85527661D01*
X143805110Y-85505134D01*
X143836431Y-85488393D01*
X143870409Y-85478085D01*
X143911890Y-85474000D01*
X144513110Y-85474000D01*
X144554591Y-85478085D01*
G37*
G36*
X146129591Y-85478085D02*
G01*
X146163569Y-85488393D01*
X146194890Y-85505134D01*
X146222339Y-85527661D01*
X146244866Y-85555110D01*
X146261607Y-85586431D01*
X146271915Y-85620409D01*
X146276000Y-85661890D01*
X146276000Y-86338110D01*
X146271915Y-86379591D01*
X146261607Y-86413569D01*
X146244866Y-86444890D01*
X146222339Y-86472339D01*
X146194890Y-86494866D01*
X146163569Y-86511607D01*
X146129591Y-86521915D01*
X146088110Y-86526000D01*
X145486890Y-86526000D01*
X145445409Y-86521915D01*
X145411431Y-86511607D01*
X145380110Y-86494866D01*
X145352661Y-86472339D01*
X145330134Y-86444890D01*
X145313393Y-86413569D01*
X145303085Y-86379591D01*
X145299000Y-86338110D01*
X145299000Y-85661890D01*
X145303085Y-85620409D01*
X145313393Y-85586431D01*
X145330134Y-85555110D01*
X145352661Y-85527661D01*
X145380110Y-85505134D01*
X145411431Y-85488393D01*
X145445409Y-85478085D01*
X145486890Y-85474000D01*
X146088110Y-85474000D01*
X146129591Y-85478085D01*
G37*
G36*
X119609987Y-84301524D02*
G01*
X119628730Y-84307210D01*
X119645997Y-84316439D01*
X119661136Y-84328864D01*
X119673561Y-84344003D01*
X119682790Y-84361270D01*
X119688476Y-84380013D01*
X119691000Y-84405640D01*
X119691000Y-86294360D01*
X119688476Y-86319987D01*
X119682790Y-86338730D01*
X119673561Y-86355997D01*
X119661136Y-86371136D01*
X119645997Y-86383561D01*
X119628730Y-86392790D01*
X119609987Y-86398476D01*
X119584360Y-86401000D01*
X119145640Y-86401000D01*
X119120013Y-86398476D01*
X119101270Y-86392790D01*
X119084003Y-86383561D01*
X119068864Y-86371136D01*
X119056439Y-86355997D01*
X119047210Y-86338730D01*
X119041524Y-86319987D01*
X119039000Y-86294360D01*
X119039000Y-84405640D01*
X119041524Y-84380013D01*
X119047210Y-84361270D01*
X119056439Y-84344003D01*
X119068864Y-84328864D01*
X119084003Y-84316439D01*
X119101270Y-84307210D01*
X119120013Y-84301524D01*
X119145640Y-84299000D01*
X119584360Y-84299000D01*
X119609987Y-84301524D01*
G37*
G36*
X118339987Y-84301524D02*
G01*
X118358730Y-84307210D01*
X118375997Y-84316439D01*
X118391136Y-84328864D01*
X118403561Y-84344003D01*
X118412790Y-84361270D01*
X118418476Y-84380013D01*
X118421000Y-84405640D01*
X118421000Y-86294360D01*
X118418476Y-86319987D01*
X118412790Y-86338730D01*
X118403561Y-86355997D01*
X118391136Y-86371136D01*
X118375997Y-86383561D01*
X118358730Y-86392790D01*
X118339987Y-86398476D01*
X118314360Y-86401000D01*
X117875640Y-86401000D01*
X117850013Y-86398476D01*
X117831270Y-86392790D01*
X117814003Y-86383561D01*
X117798864Y-86371136D01*
X117786439Y-86355997D01*
X117777210Y-86338730D01*
X117771524Y-86319987D01*
X117769000Y-86294360D01*
X117769000Y-84405640D01*
X117771524Y-84380013D01*
X117777210Y-84361270D01*
X117786439Y-84344003D01*
X117798864Y-84328864D01*
X117814003Y-84316439D01*
X117831270Y-84307210D01*
X117850013Y-84301524D01*
X117875640Y-84299000D01*
X118314360Y-84299000D01*
X118339987Y-84301524D01*
G37*
G36*
X117069987Y-84301524D02*
G01*
X117088730Y-84307210D01*
X117105997Y-84316439D01*
X117121136Y-84328864D01*
X117133561Y-84344003D01*
X117142790Y-84361270D01*
X117148476Y-84380013D01*
X117151000Y-84405640D01*
X117151000Y-86294360D01*
X117148476Y-86319987D01*
X117142790Y-86338730D01*
X117133561Y-86355997D01*
X117121136Y-86371136D01*
X117105997Y-86383561D01*
X117088730Y-86392790D01*
X117069987Y-86398476D01*
X117044360Y-86401000D01*
X116605640Y-86401000D01*
X116580013Y-86398476D01*
X116561270Y-86392790D01*
X116544003Y-86383561D01*
X116528864Y-86371136D01*
X116516439Y-86355997D01*
X116507210Y-86338730D01*
X116501524Y-86319987D01*
X116499000Y-86294360D01*
X116499000Y-84405640D01*
X116501524Y-84380013D01*
X116507210Y-84361270D01*
X116516439Y-84344003D01*
X116528864Y-84328864D01*
X116544003Y-84316439D01*
X116561270Y-84307210D01*
X116580013Y-84301524D01*
X116605640Y-84299000D01*
X117044360Y-84299000D01*
X117069987Y-84301524D01*
G37*
G36*
X114529987Y-84301524D02*
G01*
X114548730Y-84307210D01*
X114565997Y-84316439D01*
X114581136Y-84328864D01*
X114593561Y-84344003D01*
X114602790Y-84361270D01*
X114608476Y-84380013D01*
X114611000Y-84405640D01*
X114611000Y-86294360D01*
X114608476Y-86319987D01*
X114602790Y-86338730D01*
X114593561Y-86355997D01*
X114581136Y-86371136D01*
X114565997Y-86383561D01*
X114548730Y-86392790D01*
X114529987Y-86398476D01*
X114504360Y-86401000D01*
X114065640Y-86401000D01*
X114040013Y-86398476D01*
X114021270Y-86392790D01*
X114004003Y-86383561D01*
X113988864Y-86371136D01*
X113976439Y-86355997D01*
X113967210Y-86338730D01*
X113961524Y-86319987D01*
X113959000Y-86294360D01*
X113959000Y-84405640D01*
X113961524Y-84380013D01*
X113967210Y-84361270D01*
X113976439Y-84344003D01*
X113988864Y-84328864D01*
X114004003Y-84316439D01*
X114021270Y-84307210D01*
X114040013Y-84301524D01*
X114065640Y-84299000D01*
X114504360Y-84299000D01*
X114529987Y-84301524D01*
G37*
G36*
X113259987Y-84301524D02*
G01*
X113278730Y-84307210D01*
X113295997Y-84316439D01*
X113311136Y-84328864D01*
X113323561Y-84344003D01*
X113332790Y-84361270D01*
X113338476Y-84380013D01*
X113341000Y-84405640D01*
X113341000Y-86294360D01*
X113338476Y-86319987D01*
X113332790Y-86338730D01*
X113323561Y-86355997D01*
X113311136Y-86371136D01*
X113295997Y-86383561D01*
X113278730Y-86392790D01*
X113259987Y-86398476D01*
X113234360Y-86401000D01*
X112795640Y-86401000D01*
X112770013Y-86398476D01*
X112751270Y-86392790D01*
X112734003Y-86383561D01*
X112718864Y-86371136D01*
X112706439Y-86355997D01*
X112697210Y-86338730D01*
X112691524Y-86319987D01*
X112689000Y-86294360D01*
X112689000Y-84405640D01*
X112691524Y-84380013D01*
X112697210Y-84361270D01*
X112706439Y-84344003D01*
X112718864Y-84328864D01*
X112734003Y-84316439D01*
X112751270Y-84307210D01*
X112770013Y-84301524D01*
X112795640Y-84299000D01*
X113234360Y-84299000D01*
X113259987Y-84301524D01*
G37*
G36*
X120879987Y-84301524D02*
G01*
X120898730Y-84307210D01*
X120915997Y-84316439D01*
X120931136Y-84328864D01*
X120943561Y-84344003D01*
X120952790Y-84361270D01*
X120958476Y-84380013D01*
X120961000Y-84405640D01*
X120961000Y-86294360D01*
X120958476Y-86319987D01*
X120952790Y-86338730D01*
X120943561Y-86355997D01*
X120931136Y-86371136D01*
X120915997Y-86383561D01*
X120898730Y-86392790D01*
X120879987Y-86398476D01*
X120854360Y-86401000D01*
X120415640Y-86401000D01*
X120390013Y-86398476D01*
X120371270Y-86392790D01*
X120354003Y-86383561D01*
X120338864Y-86371136D01*
X120326439Y-86355997D01*
X120317210Y-86338730D01*
X120311524Y-86319987D01*
X120309000Y-86294360D01*
X120309000Y-84405640D01*
X120311524Y-84380013D01*
X120317210Y-84361270D01*
X120326439Y-84344003D01*
X120338864Y-84328864D01*
X120354003Y-84316439D01*
X120371270Y-84307210D01*
X120390013Y-84301524D01*
X120415640Y-84299000D01*
X120854360Y-84299000D01*
X120879987Y-84301524D01*
G37*
G36*
X122149987Y-84301524D02*
G01*
X122168730Y-84307210D01*
X122185997Y-84316439D01*
X122201136Y-84328864D01*
X122213561Y-84344003D01*
X122222790Y-84361270D01*
X122228476Y-84380013D01*
X122231000Y-84405640D01*
X122231000Y-86294360D01*
X122228476Y-86319987D01*
X122222790Y-86338730D01*
X122213561Y-86355997D01*
X122201136Y-86371136D01*
X122185997Y-86383561D01*
X122168730Y-86392790D01*
X122149987Y-86398476D01*
X122124360Y-86401000D01*
X121685640Y-86401000D01*
X121660013Y-86398476D01*
X121641270Y-86392790D01*
X121624003Y-86383561D01*
X121608864Y-86371136D01*
X121596439Y-86355997D01*
X121587210Y-86338730D01*
X121581524Y-86319987D01*
X121579000Y-86294360D01*
X121579000Y-84405640D01*
X121581524Y-84380013D01*
X121587210Y-84361270D01*
X121596439Y-84344003D01*
X121608864Y-84328864D01*
X121624003Y-84316439D01*
X121641270Y-84307210D01*
X121660013Y-84301524D01*
X121685640Y-84299000D01*
X122124360Y-84299000D01*
X122149987Y-84301524D01*
G37*
G36*
X123419987Y-84301524D02*
G01*
X123438730Y-84307210D01*
X123455997Y-84316439D01*
X123471136Y-84328864D01*
X123483561Y-84344003D01*
X123492790Y-84361270D01*
X123498476Y-84380013D01*
X123501000Y-84405640D01*
X123501000Y-86294360D01*
X123498476Y-86319987D01*
X123492790Y-86338730D01*
X123483561Y-86355997D01*
X123471136Y-86371136D01*
X123455997Y-86383561D01*
X123438730Y-86392790D01*
X123419987Y-86398476D01*
X123394360Y-86401000D01*
X122955640Y-86401000D01*
X122930013Y-86398476D01*
X122911270Y-86392790D01*
X122894003Y-86383561D01*
X122878864Y-86371136D01*
X122866439Y-86355997D01*
X122857210Y-86338730D01*
X122851524Y-86319987D01*
X122849000Y-86294360D01*
X122849000Y-84405640D01*
X122851524Y-84380013D01*
X122857210Y-84361270D01*
X122866439Y-84344003D01*
X122878864Y-84328864D01*
X122894003Y-84316439D01*
X122911270Y-84307210D01*
X122930013Y-84301524D01*
X122955640Y-84299000D01*
X123394360Y-84299000D01*
X123419987Y-84301524D01*
G37*
G36*
X124689987Y-84301524D02*
G01*
X124708730Y-84307210D01*
X124725997Y-84316439D01*
X124741136Y-84328864D01*
X124753561Y-84344003D01*
X124762790Y-84361270D01*
X124768476Y-84380013D01*
X124771000Y-84405640D01*
X124771000Y-86294360D01*
X124768476Y-86319987D01*
X124762790Y-86338730D01*
X124753561Y-86355997D01*
X124741136Y-86371136D01*
X124725997Y-86383561D01*
X124708730Y-86392790D01*
X124689987Y-86398476D01*
X124664360Y-86401000D01*
X124225640Y-86401000D01*
X124200013Y-86398476D01*
X124181270Y-86392790D01*
X124164003Y-86383561D01*
X124148864Y-86371136D01*
X124136439Y-86355997D01*
X124127210Y-86338730D01*
X124121524Y-86319987D01*
X124119000Y-86294360D01*
X124119000Y-84405640D01*
X124121524Y-84380013D01*
X124127210Y-84361270D01*
X124136439Y-84344003D01*
X124148864Y-84328864D01*
X124164003Y-84316439D01*
X124181270Y-84307210D01*
X124200013Y-84301524D01*
X124225640Y-84299000D01*
X124664360Y-84299000D01*
X124689987Y-84301524D01*
G37*
G36*
X125959987Y-84301524D02*
G01*
X125978730Y-84307210D01*
X125995997Y-84316439D01*
X126011136Y-84328864D01*
X126023561Y-84344003D01*
X126032790Y-84361270D01*
X126038476Y-84380013D01*
X126041000Y-84405640D01*
X126041000Y-86294360D01*
X126038476Y-86319987D01*
X126032790Y-86338730D01*
X126023561Y-86355997D01*
X126011136Y-86371136D01*
X125995997Y-86383561D01*
X125978730Y-86392790D01*
X125959987Y-86398476D01*
X125934360Y-86401000D01*
X125495640Y-86401000D01*
X125470013Y-86398476D01*
X125451270Y-86392790D01*
X125434003Y-86383561D01*
X125418864Y-86371136D01*
X125406439Y-86355997D01*
X125397210Y-86338730D01*
X125391524Y-86319987D01*
X125389000Y-86294360D01*
X125389000Y-84405640D01*
X125391524Y-84380013D01*
X125397210Y-84361270D01*
X125406439Y-84344003D01*
X125418864Y-84328864D01*
X125434003Y-84316439D01*
X125451270Y-84307210D01*
X125470013Y-84301524D01*
X125495640Y-84299000D01*
X125934360Y-84299000D01*
X125959987Y-84301524D01*
G37*
G36*
X127229987Y-84301524D02*
G01*
X127248730Y-84307210D01*
X127265997Y-84316439D01*
X127281136Y-84328864D01*
X127293561Y-84344003D01*
X127302790Y-84361270D01*
X127308476Y-84380013D01*
X127311000Y-84405640D01*
X127311000Y-86294360D01*
X127308476Y-86319987D01*
X127302790Y-86338730D01*
X127293561Y-86355997D01*
X127281136Y-86371136D01*
X127265997Y-86383561D01*
X127248730Y-86392790D01*
X127229987Y-86398476D01*
X127204360Y-86401000D01*
X126765640Y-86401000D01*
X126740013Y-86398476D01*
X126721270Y-86392790D01*
X126704003Y-86383561D01*
X126688864Y-86371136D01*
X126676439Y-86355997D01*
X126667210Y-86338730D01*
X126661524Y-86319987D01*
X126659000Y-86294360D01*
X126659000Y-84405640D01*
X126661524Y-84380013D01*
X126667210Y-84361270D01*
X126676439Y-84344003D01*
X126688864Y-84328864D01*
X126704003Y-84316439D01*
X126721270Y-84307210D01*
X126740013Y-84301524D01*
X126765640Y-84299000D01*
X127204360Y-84299000D01*
X127229987Y-84301524D01*
G37*
G36*
X115799987Y-84301524D02*
G01*
X115818730Y-84307210D01*
X115835997Y-84316439D01*
X115851136Y-84328864D01*
X115863561Y-84344003D01*
X115872790Y-84361270D01*
X115878476Y-84380013D01*
X115881000Y-84405640D01*
X115881000Y-86294360D01*
X115878476Y-86319987D01*
X115872790Y-86338730D01*
X115863561Y-86355997D01*
X115851136Y-86371136D01*
X115835997Y-86383561D01*
X115818730Y-86392790D01*
X115799987Y-86398476D01*
X115774360Y-86401000D01*
X115335640Y-86401000D01*
X115310013Y-86398476D01*
X115291270Y-86392790D01*
X115274003Y-86383561D01*
X115258864Y-86371136D01*
X115246439Y-86355997D01*
X115237210Y-86338730D01*
X115231524Y-86319987D01*
X115229000Y-86294360D01*
X115229000Y-84405640D01*
X115231524Y-84380013D01*
X115237210Y-84361270D01*
X115246439Y-84344003D01*
X115258864Y-84328864D01*
X115274003Y-84316439D01*
X115291270Y-84307210D01*
X115310013Y-84301524D01*
X115335640Y-84299000D01*
X115774360Y-84299000D01*
X115799987Y-84301524D01*
G37*
G36*
X164368228Y-84681703D02*
G01*
X164523100Y-84745853D01*
X164662481Y-84838985D01*
X164781015Y-84957519D01*
X164874147Y-85096900D01*
X164938297Y-85251772D01*
X164971000Y-85416184D01*
X164971000Y-85583816D01*
X164938297Y-85748228D01*
X164874147Y-85903100D01*
X164781015Y-86042481D01*
X164662481Y-86161015D01*
X164523100Y-86254147D01*
X164368228Y-86318297D01*
X164203816Y-86351000D01*
X164036184Y-86351000D01*
X163871772Y-86318297D01*
X163716900Y-86254147D01*
X163577519Y-86161015D01*
X163458985Y-86042481D01*
X163365853Y-85903100D01*
X163301703Y-85748228D01*
X163269000Y-85583816D01*
X163269000Y-85416184D01*
X163301703Y-85251772D01*
X163365853Y-85096900D01*
X163458985Y-84957519D01*
X163577519Y-84838985D01*
X163716900Y-84745853D01*
X163871772Y-84681703D01*
X164036184Y-84649000D01*
X164203816Y-84649000D01*
X164368228Y-84681703D01*
G37*
G36*
X157351000Y-86351000D02*
G01*
X155649000Y-86351000D01*
X155649000Y-84649000D01*
X157351000Y-84649000D01*
X157351000Y-86351000D01*
G37*
G36*
X153879591Y-84728085D02*
G01*
X153913569Y-84738393D01*
X153944890Y-84755134D01*
X153972339Y-84777661D01*
X153994866Y-84805110D01*
X154011607Y-84836431D01*
X154021915Y-84870409D01*
X154026000Y-84911890D01*
X154026000Y-85513110D01*
X154021915Y-85554591D01*
X154011607Y-85588569D01*
X153994866Y-85619890D01*
X153972339Y-85647339D01*
X153944890Y-85669866D01*
X153913569Y-85686607D01*
X153879591Y-85696915D01*
X153838110Y-85701000D01*
X153161890Y-85701000D01*
X153120409Y-85696915D01*
X153086431Y-85686607D01*
X153055110Y-85669866D01*
X153027661Y-85647339D01*
X153005134Y-85619890D01*
X152988393Y-85588569D01*
X152978085Y-85554591D01*
X152974000Y-85513110D01*
X152974000Y-84911890D01*
X152978085Y-84870409D01*
X152988393Y-84836431D01*
X153005134Y-84805110D01*
X153027661Y-84777661D01*
X153055110Y-84755134D01*
X153086431Y-84738393D01*
X153120409Y-84728085D01*
X153161890Y-84724000D01*
X153838110Y-84724000D01*
X153879591Y-84728085D01*
G37*
G36*
X175364903Y-82297075D02*
G01*
X175592571Y-82391378D01*
X175797466Y-82528285D01*
X175971715Y-82702534D01*
X176108622Y-82907429D01*
X176202925Y-83135097D01*
X176251000Y-83376787D01*
X176251000Y-83623213D01*
X176202925Y-83864903D01*
X176108622Y-84092571D01*
X175971715Y-84297466D01*
X175797466Y-84471715D01*
X175592571Y-84608622D01*
X175592570Y-84608623D01*
X175592569Y-84608623D01*
X175364903Y-84702925D01*
X175123214Y-84751000D01*
X174876786Y-84751000D01*
X174635097Y-84702925D01*
X174407431Y-84608623D01*
X174407430Y-84608623D01*
X174407429Y-84608622D01*
X174202534Y-84471715D01*
X174028285Y-84297466D01*
X173891378Y-84092571D01*
X173797075Y-83864903D01*
X173749000Y-83623213D01*
X173749000Y-83376787D01*
X173797075Y-83135097D01*
X173891378Y-82907429D01*
X174028285Y-82702534D01*
X174202534Y-82528285D01*
X174407429Y-82391378D01*
X174635097Y-82297075D01*
X174876786Y-82249000D01*
X175123214Y-82249000D01*
X175364903Y-82297075D01*
G37*
G36*
X170299272Y-82513428D02*
G01*
X170485991Y-82590770D01*
X170485993Y-82590771D01*
X170654037Y-82703054D01*
X170796946Y-82845963D01*
X170907625Y-83011607D01*
X170909230Y-83014009D01*
X170986572Y-83200728D01*
X171026000Y-83398947D01*
X171026000Y-83601053D01*
X170986572Y-83799272D01*
X170909230Y-83985991D01*
X170909229Y-83985993D01*
X170796946Y-84154037D01*
X170654037Y-84296946D01*
X170485993Y-84409229D01*
X170485992Y-84409230D01*
X170485991Y-84409230D01*
X170299272Y-84486572D01*
X170101053Y-84526000D01*
X169898947Y-84526000D01*
X169700728Y-84486572D01*
X169514009Y-84409230D01*
X169514008Y-84409230D01*
X169514007Y-84409229D01*
X169345963Y-84296946D01*
X169203054Y-84154037D01*
X169090771Y-83985993D01*
X169090770Y-83985991D01*
X169013428Y-83799272D01*
X168974000Y-83601053D01*
X168974000Y-83398947D01*
X169013428Y-83200728D01*
X169090770Y-83014009D01*
X169092375Y-83011607D01*
X169203054Y-82845963D01*
X169345963Y-82703054D01*
X169514007Y-82590771D01*
X169514009Y-82590770D01*
X169700728Y-82513428D01*
X169898947Y-82474000D01*
X170101053Y-82474000D01*
X170299272Y-82513428D01*
G37*
G36*
X161629591Y-81978085D02*
G01*
X161663569Y-81988393D01*
X161694890Y-82005134D01*
X161722339Y-82027661D01*
X161744866Y-82055110D01*
X161761607Y-82086431D01*
X161771915Y-82120409D01*
X161776000Y-82161890D01*
X161776000Y-82838110D01*
X161771915Y-82879591D01*
X161761607Y-82913569D01*
X161744866Y-82944890D01*
X161722339Y-82972339D01*
X161694890Y-82994866D01*
X161663569Y-83011607D01*
X161629591Y-83021915D01*
X161588110Y-83026000D01*
X160986890Y-83026000D01*
X160945409Y-83021915D01*
X160911431Y-83011607D01*
X160880110Y-82994866D01*
X160852661Y-82972339D01*
X160830134Y-82944890D01*
X160813393Y-82913569D01*
X160803085Y-82879591D01*
X160799000Y-82838110D01*
X160799000Y-82161890D01*
X160803085Y-82120409D01*
X160813393Y-82086431D01*
X160830134Y-82055110D01*
X160852661Y-82027661D01*
X160880110Y-82005134D01*
X160911431Y-81988393D01*
X160945409Y-81978085D01*
X160986890Y-81974000D01*
X161588110Y-81974000D01*
X161629591Y-81978085D01*
G37*
G36*
X160054591Y-81978085D02*
G01*
X160088569Y-81988393D01*
X160119890Y-82005134D01*
X160147339Y-82027661D01*
X160169866Y-82055110D01*
X160186607Y-82086431D01*
X160196915Y-82120409D01*
X160201000Y-82161890D01*
X160201000Y-82838110D01*
X160196915Y-82879591D01*
X160186607Y-82913569D01*
X160169866Y-82944890D01*
X160147339Y-82972339D01*
X160119890Y-82994866D01*
X160088569Y-83011607D01*
X160054591Y-83021915D01*
X160013110Y-83026000D01*
X159411890Y-83026000D01*
X159370409Y-83021915D01*
X159336431Y-83011607D01*
X159305110Y-82994866D01*
X159277661Y-82972339D01*
X159255134Y-82944890D01*
X159238393Y-82913569D01*
X159228085Y-82879591D01*
X159224000Y-82838110D01*
X159224000Y-82161890D01*
X159228085Y-82120409D01*
X159238393Y-82086431D01*
X159255134Y-82055110D01*
X159277661Y-82027661D01*
X159305110Y-82005134D01*
X159336431Y-81988393D01*
X159370409Y-81978085D01*
X159411890Y-81974000D01*
X160013110Y-81974000D01*
X160054591Y-81978085D01*
G37*
G36*
X120878228Y-77501703D02*
G01*
X121033100Y-77565853D01*
X121172481Y-77658985D01*
X121291015Y-77777519D01*
X121384147Y-77916900D01*
X121448297Y-78071772D01*
X121481000Y-78236184D01*
X121481000Y-78403816D01*
X121448297Y-78568228D01*
X121384147Y-78723100D01*
X121291015Y-78862481D01*
X121172481Y-78981015D01*
X121033100Y-79074147D01*
X120878228Y-79138297D01*
X120713816Y-79171000D01*
X120546184Y-79171000D01*
X120381772Y-79138297D01*
X120226900Y-79074147D01*
X120087519Y-78981015D01*
X119968985Y-78862481D01*
X119875853Y-78723100D01*
X119811703Y-78568228D01*
X119779000Y-78403816D01*
X119779000Y-78236184D01*
X119811703Y-78071772D01*
X119875853Y-77916900D01*
X119968985Y-77777519D01*
X120087519Y-77658985D01*
X120226900Y-77565853D01*
X120381772Y-77501703D01*
X120546184Y-77469000D01*
X120713816Y-77469000D01*
X120878228Y-77501703D01*
G37*
G36*
X123418228Y-77501703D02*
G01*
X123573100Y-77565853D01*
X123712481Y-77658985D01*
X123831015Y-77777519D01*
X123924147Y-77916900D01*
X123988297Y-78071772D01*
X124021000Y-78236184D01*
X124021000Y-78403816D01*
X123988297Y-78568228D01*
X123924147Y-78723100D01*
X123831015Y-78862481D01*
X123712481Y-78981015D01*
X123573100Y-79074147D01*
X123418228Y-79138297D01*
X123253816Y-79171000D01*
X123086184Y-79171000D01*
X122921772Y-79138297D01*
X122766900Y-79074147D01*
X122627519Y-78981015D01*
X122508985Y-78862481D01*
X122415853Y-78723100D01*
X122351703Y-78568228D01*
X122319000Y-78403816D01*
X122319000Y-78236184D01*
X122351703Y-78071772D01*
X122415853Y-77916900D01*
X122508985Y-77777519D01*
X122627519Y-77658985D01*
X122766900Y-77565853D01*
X122921772Y-77501703D01*
X123086184Y-77469000D01*
X123253816Y-77469000D01*
X123418228Y-77501703D01*
G37*
G36*
X125958228Y-77501703D02*
G01*
X126113100Y-77565853D01*
X126252481Y-77658985D01*
X126371015Y-77777519D01*
X126464147Y-77916900D01*
X126528297Y-78071772D01*
X126561000Y-78236184D01*
X126561000Y-78403816D01*
X126528297Y-78568228D01*
X126464147Y-78723100D01*
X126371015Y-78862481D01*
X126252481Y-78981015D01*
X126113100Y-79074147D01*
X125958228Y-79138297D01*
X125793816Y-79171000D01*
X125626184Y-79171000D01*
X125461772Y-79138297D01*
X125306900Y-79074147D01*
X125167519Y-78981015D01*
X125048985Y-78862481D01*
X124955853Y-78723100D01*
X124891703Y-78568228D01*
X124859000Y-78403816D01*
X124859000Y-78236184D01*
X124891703Y-78071772D01*
X124955853Y-77916900D01*
X125048985Y-77777519D01*
X125167519Y-77658985D01*
X125306900Y-77565853D01*
X125461772Y-77501703D01*
X125626184Y-77469000D01*
X125793816Y-77469000D01*
X125958228Y-77501703D01*
G37*
G36*
X128498228Y-77501703D02*
G01*
X128653100Y-77565853D01*
X128792481Y-77658985D01*
X128911015Y-77777519D01*
X129004147Y-77916900D01*
X129068297Y-78071772D01*
X129101000Y-78236184D01*
X129101000Y-78403816D01*
X129068297Y-78568228D01*
X129004147Y-78723100D01*
X128911015Y-78862481D01*
X128792481Y-78981015D01*
X128653100Y-79074147D01*
X128498228Y-79138297D01*
X128333816Y-79171000D01*
X128166184Y-79171000D01*
X128001772Y-79138297D01*
X127846900Y-79074147D01*
X127707519Y-78981015D01*
X127588985Y-78862481D01*
X127495853Y-78723100D01*
X127431703Y-78568228D01*
X127399000Y-78403816D01*
X127399000Y-78236184D01*
X127431703Y-78071772D01*
X127495853Y-77916900D01*
X127588985Y-77777519D01*
X127707519Y-77658985D01*
X127846900Y-77565853D01*
X128001772Y-77501703D01*
X128166184Y-77469000D01*
X128333816Y-77469000D01*
X128498228Y-77501703D01*
G37*
G36*
X115798228Y-77501703D02*
G01*
X115953100Y-77565853D01*
X116092481Y-77658985D01*
X116211015Y-77777519D01*
X116304147Y-77916900D01*
X116368297Y-78071772D01*
X116401000Y-78236184D01*
X116401000Y-78403816D01*
X116368297Y-78568228D01*
X116304147Y-78723100D01*
X116211015Y-78862481D01*
X116092481Y-78981015D01*
X115953100Y-79074147D01*
X115798228Y-79138297D01*
X115633816Y-79171000D01*
X115466184Y-79171000D01*
X115301772Y-79138297D01*
X115146900Y-79074147D01*
X115007519Y-78981015D01*
X114888985Y-78862481D01*
X114795853Y-78723100D01*
X114731703Y-78568228D01*
X114699000Y-78403816D01*
X114699000Y-78236184D01*
X114731703Y-78071772D01*
X114795853Y-77916900D01*
X114888985Y-77777519D01*
X115007519Y-77658985D01*
X115146900Y-77565853D01*
X115301772Y-77501703D01*
X115466184Y-77469000D01*
X115633816Y-77469000D01*
X115798228Y-77501703D01*
G37*
G36*
X113258228Y-77501703D02*
G01*
X113413100Y-77565853D01*
X113552481Y-77658985D01*
X113671015Y-77777519D01*
X113764147Y-77916900D01*
X113828297Y-78071772D01*
X113861000Y-78236184D01*
X113861000Y-78403816D01*
X113828297Y-78568228D01*
X113764147Y-78723100D01*
X113671015Y-78862481D01*
X113552481Y-78981015D01*
X113413100Y-79074147D01*
X113258228Y-79138297D01*
X113093816Y-79171000D01*
X112926184Y-79171000D01*
X112761772Y-79138297D01*
X112606900Y-79074147D01*
X112467519Y-78981015D01*
X112348985Y-78862481D01*
X112255853Y-78723100D01*
X112191703Y-78568228D01*
X112159000Y-78403816D01*
X112159000Y-78236184D01*
X112191703Y-78071772D01*
X112255853Y-77916900D01*
X112348985Y-77777519D01*
X112467519Y-77658985D01*
X112606900Y-77565853D01*
X112761772Y-77501703D01*
X112926184Y-77469000D01*
X113093816Y-77469000D01*
X113258228Y-77501703D01*
G37*
G36*
X118338228Y-77501703D02*
G01*
X118493100Y-77565853D01*
X118632481Y-77658985D01*
X118751015Y-77777519D01*
X118844147Y-77916900D01*
X118908297Y-78071772D01*
X118941000Y-78236184D01*
X118941000Y-78403816D01*
X118908297Y-78568228D01*
X118844147Y-78723100D01*
X118751015Y-78862481D01*
X118632481Y-78981015D01*
X118493100Y-79074147D01*
X118338228Y-79138297D01*
X118173816Y-79171000D01*
X118006184Y-79171000D01*
X117841772Y-79138297D01*
X117686900Y-79074147D01*
X117547519Y-78981015D01*
X117428985Y-78862481D01*
X117335853Y-78723100D01*
X117271703Y-78568228D01*
X117239000Y-78403816D01*
X117239000Y-78236184D01*
X117271703Y-78071772D01*
X117335853Y-77916900D01*
X117428985Y-77777519D01*
X117547519Y-77658985D01*
X117686900Y-77565853D01*
X117841772Y-77501703D01*
X118006184Y-77469000D01*
X118173816Y-77469000D01*
X118338228Y-77501703D01*
G37*
G36*
X113258228Y-69881703D02*
G01*
X113413100Y-69945853D01*
X113552481Y-70038985D01*
X113671015Y-70157519D01*
X113764147Y-70296900D01*
X113828297Y-70451772D01*
X113861000Y-70616184D01*
X113861000Y-70783816D01*
X113828297Y-70948228D01*
X113764147Y-71103100D01*
X113671015Y-71242481D01*
X113552481Y-71361015D01*
X113413100Y-71454147D01*
X113258228Y-71518297D01*
X113093816Y-71551000D01*
X112926184Y-71551000D01*
X112761772Y-71518297D01*
X112606900Y-71454147D01*
X112467519Y-71361015D01*
X112348985Y-71242481D01*
X112255853Y-71103100D01*
X112191703Y-70948228D01*
X112159000Y-70783816D01*
X112159000Y-70616184D01*
X112191703Y-70451772D01*
X112255853Y-70296900D01*
X112348985Y-70157519D01*
X112467519Y-70038985D01*
X112606900Y-69945853D01*
X112761772Y-69881703D01*
X112926184Y-69849000D01*
X113093816Y-69849000D01*
X113258228Y-69881703D01*
G37*
G36*
X115798228Y-69881703D02*
G01*
X115953100Y-69945853D01*
X116092481Y-70038985D01*
X116211015Y-70157519D01*
X116304147Y-70296900D01*
X116368297Y-70451772D01*
X116401000Y-70616184D01*
X116401000Y-70783816D01*
X116368297Y-70948228D01*
X116304147Y-71103100D01*
X116211015Y-71242481D01*
X116092481Y-71361015D01*
X115953100Y-71454147D01*
X115798228Y-71518297D01*
X115633816Y-71551000D01*
X115466184Y-71551000D01*
X115301772Y-71518297D01*
X115146900Y-71454147D01*
X115007519Y-71361015D01*
X114888985Y-71242481D01*
X114795853Y-71103100D01*
X114731703Y-70948228D01*
X114699000Y-70783816D01*
X114699000Y-70616184D01*
X114731703Y-70451772D01*
X114795853Y-70296900D01*
X114888985Y-70157519D01*
X115007519Y-70038985D01*
X115146900Y-69945853D01*
X115301772Y-69881703D01*
X115466184Y-69849000D01*
X115633816Y-69849000D01*
X115798228Y-69881703D01*
G37*
G36*
X118338228Y-69881703D02*
G01*
X118493100Y-69945853D01*
X118632481Y-70038985D01*
X118751015Y-70157519D01*
X118844147Y-70296900D01*
X118908297Y-70451772D01*
X118941000Y-70616184D01*
X118941000Y-70783816D01*
X118908297Y-70948228D01*
X118844147Y-71103100D01*
X118751015Y-71242481D01*
X118632481Y-71361015D01*
X118493100Y-71454147D01*
X118338228Y-71518297D01*
X118173816Y-71551000D01*
X118006184Y-71551000D01*
X117841772Y-71518297D01*
X117686900Y-71454147D01*
X117547519Y-71361015D01*
X117428985Y-71242481D01*
X117335853Y-71103100D01*
X117271703Y-70948228D01*
X117239000Y-70783816D01*
X117239000Y-70616184D01*
X117271703Y-70451772D01*
X117335853Y-70296900D01*
X117428985Y-70157519D01*
X117547519Y-70038985D01*
X117686900Y-69945853D01*
X117841772Y-69881703D01*
X118006184Y-69849000D01*
X118173816Y-69849000D01*
X118338228Y-69881703D01*
G37*
G36*
X120878228Y-69881703D02*
G01*
X121033100Y-69945853D01*
X121172481Y-70038985D01*
X121291015Y-70157519D01*
X121384147Y-70296900D01*
X121448297Y-70451772D01*
X121481000Y-70616184D01*
X121481000Y-70783816D01*
X121448297Y-70948228D01*
X121384147Y-71103100D01*
X121291015Y-71242481D01*
X121172481Y-71361015D01*
X121033100Y-71454147D01*
X120878228Y-71518297D01*
X120713816Y-71551000D01*
X120546184Y-71551000D01*
X120381772Y-71518297D01*
X120226900Y-71454147D01*
X120087519Y-71361015D01*
X119968985Y-71242481D01*
X119875853Y-71103100D01*
X119811703Y-70948228D01*
X119779000Y-70783816D01*
X119779000Y-70616184D01*
X119811703Y-70451772D01*
X119875853Y-70296900D01*
X119968985Y-70157519D01*
X120087519Y-70038985D01*
X120226900Y-69945853D01*
X120381772Y-69881703D01*
X120546184Y-69849000D01*
X120713816Y-69849000D01*
X120878228Y-69881703D01*
G37*
G36*
X123418228Y-69881703D02*
G01*
X123573100Y-69945853D01*
X123712481Y-70038985D01*
X123831015Y-70157519D01*
X123924147Y-70296900D01*
X123988297Y-70451772D01*
X124021000Y-70616184D01*
X124021000Y-70783816D01*
X123988297Y-70948228D01*
X123924147Y-71103100D01*
X123831015Y-71242481D01*
X123712481Y-71361015D01*
X123573100Y-71454147D01*
X123418228Y-71518297D01*
X123253816Y-71551000D01*
X123086184Y-71551000D01*
X122921772Y-71518297D01*
X122766900Y-71454147D01*
X122627519Y-71361015D01*
X122508985Y-71242481D01*
X122415853Y-71103100D01*
X122351703Y-70948228D01*
X122319000Y-70783816D01*
X122319000Y-70616184D01*
X122351703Y-70451772D01*
X122415853Y-70296900D01*
X122508985Y-70157519D01*
X122627519Y-70038985D01*
X122766900Y-69945853D01*
X122921772Y-69881703D01*
X123086184Y-69849000D01*
X123253816Y-69849000D01*
X123418228Y-69881703D01*
G37*
G36*
X129101000Y-71551000D02*
G01*
X127399000Y-71551000D01*
X127399000Y-69849000D01*
X129101000Y-69849000D01*
X129101000Y-71551000D01*
G37*
G36*
X125958228Y-69881703D02*
G01*
X126113100Y-69945853D01*
X126252481Y-70038985D01*
X126371015Y-70157519D01*
X126464147Y-70296900D01*
X126528297Y-70451772D01*
X126561000Y-70616184D01*
X126561000Y-70783816D01*
X126528297Y-70948228D01*
X126464147Y-71103100D01*
X126371015Y-71242481D01*
X126252481Y-71361015D01*
X126113100Y-71454147D01*
X125958228Y-71518297D01*
X125793816Y-71551000D01*
X125626184Y-71551000D01*
X125461772Y-71518297D01*
X125306900Y-71454147D01*
X125167519Y-71361015D01*
X125048985Y-71242481D01*
X124955853Y-71103100D01*
X124891703Y-70948228D01*
X124859000Y-70783816D01*
X124859000Y-70616184D01*
X124891703Y-70451772D01*
X124955853Y-70296900D01*
X125048985Y-70157519D01*
X125167519Y-70038985D01*
X125306900Y-69945853D01*
X125461772Y-69881703D01*
X125626184Y-69849000D01*
X125793816Y-69849000D01*
X125958228Y-69881703D01*
G37*
M02*
