G04 #@! TF.GenerationSoftware,KiCad,Pcbnew,(5.1.5)-3*
G04 #@! TF.CreationDate,2021-10-03T17:07:44+03:00*
G04 #@! TF.ProjectId,OPL3,4f504c33-2e6b-4696-9361-645f70636258,rev?*
G04 #@! TF.SameCoordinates,Original*
G04 #@! TF.FileFunction,Other,Fab,Top*
%FSLAX46Y46*%
G04 Gerber Fmt 4.6, Leading zero omitted, Abs format (unit mm)*
G04 Created by KiCad (PCBNEW (5.1.5)-3) date 2021-10-03 17:07:44*
%MOMM*%
%LPD*%
G04 APERTURE LIST*
%ADD10C,0.100000*%
%ADD11C,0.150000*%
%ADD12C,0.254000*%
%ADD13C,0.060000*%
G04 APERTURE END LIST*
D10*
X129580000Y-79590000D02*
X129580000Y-69430000D01*
X111680000Y-79590000D02*
X129580000Y-79590000D01*
X111680000Y-69430000D02*
X111680000Y-79590000D01*
X129580000Y-69430000D02*
X111680000Y-69430000D01*
X128520000Y-71335000D02*
X129520000Y-72335000D01*
X111740000Y-71335000D02*
X128520000Y-71335000D01*
X111740000Y-77685000D02*
X111740000Y-71335000D01*
X129520000Y-77685000D02*
X111740000Y-77685000D01*
X129520000Y-72335000D02*
X129520000Y-77685000D01*
X105670000Y-102110000D02*
X105670000Y-112270000D01*
X131190000Y-102110000D02*
X105670000Y-102110000D01*
X131190000Y-112270000D02*
X131190000Y-102110000D01*
X105670000Y-112270000D02*
X131190000Y-112270000D01*
X106730000Y-110365000D02*
X105730000Y-109365000D01*
X131130000Y-110365000D02*
X106730000Y-110365000D01*
X131130000Y-104015000D02*
X131130000Y-110365000D01*
X105730000Y-104015000D02*
X131130000Y-104015000D01*
X105730000Y-109365000D02*
X105730000Y-104015000D01*
X178000000Y-91500000D02*
X178000000Y-91500000D01*
X181500000Y-91500000D02*
X178000000Y-91500000D01*
X181500000Y-85500000D02*
X181500000Y-91500000D01*
X178000000Y-85500000D02*
X181500000Y-85500000D01*
X178000000Y-85500000D02*
X178000000Y-85500000D01*
X178000000Y-82500000D02*
X178000000Y-94500000D01*
X167700000Y-82500000D02*
X178000000Y-82500000D01*
X167700000Y-94500000D02*
X167700000Y-82500000D01*
X178000000Y-94500000D02*
X167700000Y-94500000D01*
X165390000Y-84170000D02*
X155230000Y-84170000D01*
X165390000Y-102070000D02*
X165390000Y-84170000D01*
X155230000Y-102070000D02*
X165390000Y-102070000D01*
X155230000Y-84170000D02*
X155230000Y-102070000D01*
X157135000Y-85230000D02*
X158135000Y-84230000D01*
X157135000Y-102010000D02*
X157135000Y-85230000D01*
X163485000Y-102010000D02*
X157135000Y-102010000D01*
X163485000Y-84230000D02*
X163485000Y-102010000D01*
X158135000Y-84230000D02*
X163485000Y-84230000D01*
X126700000Y-86250000D02*
X127700000Y-87250000D01*
X112300000Y-86250000D02*
X126700000Y-86250000D01*
X112300000Y-93750000D02*
X112300000Y-86250000D01*
X127700000Y-93750000D02*
X112300000Y-93750000D01*
X127700000Y-87250000D02*
X127700000Y-93750000D01*
X139400000Y-88400000D02*
X139400000Y-90000000D01*
X138600000Y-88400000D02*
X139400000Y-88400000D01*
X138600000Y-90000000D02*
X138600000Y-88400000D01*
X139400000Y-90000000D02*
X138600000Y-90000000D01*
X137400000Y-88400000D02*
X137400000Y-90000000D01*
X136600000Y-88400000D02*
X137400000Y-88400000D01*
X136600000Y-90000000D02*
X136600000Y-88400000D01*
X137400000Y-90000000D02*
X136600000Y-90000000D01*
X151900000Y-97210000D02*
X151900000Y-98810000D01*
X151100000Y-97210000D02*
X151900000Y-97210000D01*
X151100000Y-98810000D02*
X151100000Y-97210000D01*
X151900000Y-98810000D02*
X151100000Y-98810000D01*
X142725000Y-88850000D02*
X143725000Y-87850000D01*
X142725000Y-98150000D02*
X142725000Y-88850000D01*
X147275000Y-98150000D02*
X142725000Y-98150000D01*
X147275000Y-87850000D02*
X147275000Y-98150000D01*
X143725000Y-87850000D02*
X147275000Y-87850000D01*
X153900000Y-97210000D02*
X153900000Y-98810000D01*
X153100000Y-97210000D02*
X153900000Y-97210000D01*
X153100000Y-98810000D02*
X153100000Y-97210000D01*
X153900000Y-98810000D02*
X153100000Y-98810000D01*
X144200000Y-85600000D02*
X145800000Y-85600000D01*
X144200000Y-86400000D02*
X144200000Y-85600000D01*
X145800000Y-86400000D02*
X144200000Y-86400000D01*
X145800000Y-85600000D02*
X145800000Y-86400000D01*
X153300000Y-101900000D02*
X151700000Y-101900000D01*
X153300000Y-101100000D02*
X153300000Y-101900000D01*
X151700000Y-101100000D02*
X153300000Y-101100000D01*
X151700000Y-101900000D02*
X151700000Y-101100000D01*
X153900000Y-85200000D02*
X153900000Y-86800000D01*
X153100000Y-85200000D02*
X153900000Y-85200000D01*
X153100000Y-86800000D02*
X153100000Y-85200000D01*
X153900000Y-86800000D02*
X153100000Y-86800000D01*
X159700000Y-82100000D02*
X161300000Y-82100000D01*
X159700000Y-82900000D02*
X159700000Y-82100000D01*
X161300000Y-82900000D02*
X159700000Y-82900000D01*
X161300000Y-82100000D02*
X161300000Y-82900000D01*
X166500000Y-98800000D02*
X166500000Y-97200000D01*
X167300000Y-98800000D02*
X166500000Y-98800000D01*
X167300000Y-97200000D02*
X167300000Y-98800000D01*
X166500000Y-97200000D02*
X167300000Y-97200000D01*
D11*
X110132380Y-77152857D02*
X110132380Y-76486190D01*
X111132380Y-76914761D01*
X110465714Y-75676666D02*
X111132380Y-75676666D01*
X110084761Y-75914761D02*
X110799047Y-76152857D01*
X110799047Y-75533809D01*
X111132380Y-74676666D02*
X111132380Y-75152857D01*
X110132380Y-75152857D01*
X111084761Y-74390952D02*
X111132380Y-74248095D01*
X111132380Y-74010000D01*
X111084761Y-73914761D01*
X111037142Y-73867142D01*
X110941904Y-73819523D01*
X110846666Y-73819523D01*
X110751428Y-73867142D01*
X110703809Y-73914761D01*
X110656190Y-74010000D01*
X110608571Y-74200476D01*
X110560952Y-74295714D01*
X110513333Y-74343333D01*
X110418095Y-74390952D01*
X110322857Y-74390952D01*
X110227619Y-74343333D01*
X110180000Y-74295714D01*
X110132380Y-74200476D01*
X110132380Y-73962380D01*
X110180000Y-73819523D01*
X110132380Y-73200476D02*
X110132380Y-73105238D01*
X110180000Y-73010000D01*
X110227619Y-72962380D01*
X110322857Y-72914761D01*
X110513333Y-72867142D01*
X110751428Y-72867142D01*
X110941904Y-72914761D01*
X111037142Y-72962380D01*
X111084761Y-73010000D01*
X111132380Y-73105238D01*
X111132380Y-73200476D01*
X111084761Y-73295714D01*
X111037142Y-73343333D01*
X110941904Y-73390952D01*
X110751428Y-73438571D01*
X110513333Y-73438571D01*
X110322857Y-73390952D01*
X110227619Y-73343333D01*
X110180000Y-73295714D01*
X110132380Y-73200476D01*
X110465714Y-72010000D02*
X111132380Y-72010000D01*
X110084761Y-72248095D02*
X110799047Y-72486190D01*
X110799047Y-71867142D01*
X120082380Y-75271904D02*
X120891904Y-75271904D01*
X120987142Y-75224285D01*
X121034761Y-75176666D01*
X121082380Y-75081428D01*
X121082380Y-74890952D01*
X121034761Y-74795714D01*
X120987142Y-74748095D01*
X120891904Y-74700476D01*
X120082380Y-74700476D01*
X121082380Y-73700476D02*
X121082380Y-74271904D01*
X121082380Y-73986190D02*
X120082380Y-73986190D01*
X120225238Y-74081428D01*
X120320476Y-74176666D01*
X120368095Y-74271904D01*
X115280952Y-76752380D02*
X115947619Y-76752380D01*
X115519047Y-77752380D01*
X116757142Y-77085714D02*
X116757142Y-77752380D01*
X116519047Y-76704761D02*
X116280952Y-77419047D01*
X116900000Y-77419047D01*
X117757142Y-77752380D02*
X117280952Y-77752380D01*
X117280952Y-76752380D01*
X118042857Y-77704761D02*
X118185714Y-77752380D01*
X118423809Y-77752380D01*
X118519047Y-77704761D01*
X118566666Y-77657142D01*
X118614285Y-77561904D01*
X118614285Y-77466666D01*
X118566666Y-77371428D01*
X118519047Y-77323809D01*
X118423809Y-77276190D01*
X118233333Y-77228571D01*
X118138095Y-77180952D01*
X118090476Y-77133333D01*
X118042857Y-77038095D01*
X118042857Y-76942857D01*
X118090476Y-76847619D01*
X118138095Y-76800000D01*
X118233333Y-76752380D01*
X118471428Y-76752380D01*
X118614285Y-76800000D01*
X119471428Y-76752380D02*
X119280952Y-76752380D01*
X119185714Y-76800000D01*
X119138095Y-76847619D01*
X119042857Y-76990476D01*
X118995238Y-77180952D01*
X118995238Y-77561904D01*
X119042857Y-77657142D01*
X119090476Y-77704761D01*
X119185714Y-77752380D01*
X119376190Y-77752380D01*
X119471428Y-77704761D01*
X119519047Y-77657142D01*
X119566666Y-77561904D01*
X119566666Y-77323809D01*
X119519047Y-77228571D01*
X119471428Y-77180952D01*
X119376190Y-77133333D01*
X119185714Y-77133333D01*
X119090476Y-77180952D01*
X119042857Y-77228571D01*
X118995238Y-77323809D01*
X120138095Y-77180952D02*
X120042857Y-77133333D01*
X119995238Y-77085714D01*
X119947619Y-76990476D01*
X119947619Y-76942857D01*
X119995238Y-76847619D01*
X120042857Y-76800000D01*
X120138095Y-76752380D01*
X120328571Y-76752380D01*
X120423809Y-76800000D01*
X120471428Y-76847619D01*
X120519047Y-76942857D01*
X120519047Y-76990476D01*
X120471428Y-77085714D01*
X120423809Y-77133333D01*
X120328571Y-77180952D01*
X120138095Y-77180952D01*
X120042857Y-77228571D01*
X119995238Y-77276190D01*
X119947619Y-77371428D01*
X119947619Y-77561904D01*
X119995238Y-77657142D01*
X120042857Y-77704761D01*
X120138095Y-77752380D01*
X120328571Y-77752380D01*
X120423809Y-77704761D01*
X120471428Y-77657142D01*
X120519047Y-77561904D01*
X120519047Y-77371428D01*
X120471428Y-77276190D01*
X120423809Y-77228571D01*
X120328571Y-77180952D01*
X121090476Y-77180952D02*
X120995238Y-77133333D01*
X120947619Y-77085714D01*
X120900000Y-76990476D01*
X120900000Y-76942857D01*
X120947619Y-76847619D01*
X120995238Y-76800000D01*
X121090476Y-76752380D01*
X121280952Y-76752380D01*
X121376190Y-76800000D01*
X121423809Y-76847619D01*
X121471428Y-76942857D01*
X121471428Y-76990476D01*
X121423809Y-77085714D01*
X121376190Y-77133333D01*
X121280952Y-77180952D01*
X121090476Y-77180952D01*
X120995238Y-77228571D01*
X120947619Y-77276190D01*
X120900000Y-77371428D01*
X120900000Y-77561904D01*
X120947619Y-77657142D01*
X120995238Y-77704761D01*
X121090476Y-77752380D01*
X121280952Y-77752380D01*
X121376190Y-77704761D01*
X121423809Y-77657142D01*
X121471428Y-77561904D01*
X121471428Y-77371428D01*
X121423809Y-77276190D01*
X121376190Y-77228571D01*
X121280952Y-77180952D01*
X113080952Y-71252380D02*
X113747619Y-71252380D01*
X113319047Y-72252380D01*
X114557142Y-71585714D02*
X114557142Y-72252380D01*
X114319047Y-71204761D02*
X114080952Y-71919047D01*
X114700000Y-71919047D01*
X115557142Y-72252380D02*
X115080952Y-72252380D01*
X115080952Y-71252380D01*
X115842857Y-72204761D02*
X115985714Y-72252380D01*
X116223809Y-72252380D01*
X116319047Y-72204761D01*
X116366666Y-72157142D01*
X116414285Y-72061904D01*
X116414285Y-71966666D01*
X116366666Y-71871428D01*
X116319047Y-71823809D01*
X116223809Y-71776190D01*
X116033333Y-71728571D01*
X115938095Y-71680952D01*
X115890476Y-71633333D01*
X115842857Y-71538095D01*
X115842857Y-71442857D01*
X115890476Y-71347619D01*
X115938095Y-71300000D01*
X116033333Y-71252380D01*
X116271428Y-71252380D01*
X116414285Y-71300000D01*
X117271428Y-71252380D02*
X117080952Y-71252380D01*
X116985714Y-71300000D01*
X116938095Y-71347619D01*
X116842857Y-71490476D01*
X116795238Y-71680952D01*
X116795238Y-72061904D01*
X116842857Y-72157142D01*
X116890476Y-72204761D01*
X116985714Y-72252380D01*
X117176190Y-72252380D01*
X117271428Y-72204761D01*
X117319047Y-72157142D01*
X117366666Y-72061904D01*
X117366666Y-71823809D01*
X117319047Y-71728571D01*
X117271428Y-71680952D01*
X117176190Y-71633333D01*
X116985714Y-71633333D01*
X116890476Y-71680952D01*
X116842857Y-71728571D01*
X116795238Y-71823809D01*
X117938095Y-71680952D02*
X117842857Y-71633333D01*
X117795238Y-71585714D01*
X117747619Y-71490476D01*
X117747619Y-71442857D01*
X117795238Y-71347619D01*
X117842857Y-71300000D01*
X117938095Y-71252380D01*
X118128571Y-71252380D01*
X118223809Y-71300000D01*
X118271428Y-71347619D01*
X118319047Y-71442857D01*
X118319047Y-71490476D01*
X118271428Y-71585714D01*
X118223809Y-71633333D01*
X118128571Y-71680952D01*
X117938095Y-71680952D01*
X117842857Y-71728571D01*
X117795238Y-71776190D01*
X117747619Y-71871428D01*
X117747619Y-72061904D01*
X117795238Y-72157142D01*
X117842857Y-72204761D01*
X117938095Y-72252380D01*
X118128571Y-72252380D01*
X118223809Y-72204761D01*
X118271428Y-72157142D01*
X118319047Y-72061904D01*
X118319047Y-71871428D01*
X118271428Y-71776190D01*
X118223809Y-71728571D01*
X118128571Y-71680952D01*
X118890476Y-71680952D02*
X118795238Y-71633333D01*
X118747619Y-71585714D01*
X118700000Y-71490476D01*
X118700000Y-71442857D01*
X118747619Y-71347619D01*
X118795238Y-71300000D01*
X118890476Y-71252380D01*
X119080952Y-71252380D01*
X119176190Y-71300000D01*
X119223809Y-71347619D01*
X119271428Y-71442857D01*
X119271428Y-71490476D01*
X119223809Y-71585714D01*
X119176190Y-71633333D01*
X119080952Y-71680952D01*
X118890476Y-71680952D01*
X118795238Y-71728571D01*
X118747619Y-71776190D01*
X118700000Y-71871428D01*
X118700000Y-72061904D01*
X118747619Y-72157142D01*
X118795238Y-72204761D01*
X118890476Y-72252380D01*
X119080952Y-72252380D01*
X119176190Y-72204761D01*
X119223809Y-72157142D01*
X119271428Y-72061904D01*
X119271428Y-71871428D01*
X119223809Y-71776190D01*
X119176190Y-71728571D01*
X119080952Y-71680952D01*
D12*
X212476666Y-115404523D02*
X212476666Y-116311666D01*
X212416190Y-116493095D01*
X212295238Y-116614047D01*
X212113809Y-116674523D01*
X211992857Y-116674523D01*
X212960476Y-115404523D02*
X213746666Y-115404523D01*
X213323333Y-115888333D01*
X213504761Y-115888333D01*
X213625714Y-115948809D01*
X213686190Y-116009285D01*
X213746666Y-116130238D01*
X213746666Y-116432619D01*
X213686190Y-116553571D01*
X213625714Y-116614047D01*
X213504761Y-116674523D01*
X213141904Y-116674523D01*
X213020952Y-116614047D01*
X212960476Y-116553571D01*
D11*
X149676190Y-122057142D02*
X149628571Y-122104761D01*
X149485714Y-122152380D01*
X149390476Y-122152380D01*
X149247619Y-122104761D01*
X149152380Y-122009523D01*
X149104761Y-121914285D01*
X149057142Y-121723809D01*
X149057142Y-121580952D01*
X149104761Y-121390476D01*
X149152380Y-121295238D01*
X149247619Y-121200000D01*
X149390476Y-121152380D01*
X149485714Y-121152380D01*
X149628571Y-121200000D01*
X149676190Y-121247619D01*
X150247619Y-122152380D02*
X150152380Y-122104761D01*
X150104761Y-122057142D01*
X150057142Y-121961904D01*
X150057142Y-121676190D01*
X150104761Y-121580952D01*
X150152380Y-121533333D01*
X150247619Y-121485714D01*
X150390476Y-121485714D01*
X150485714Y-121533333D01*
X150533333Y-121580952D01*
X150580952Y-121676190D01*
X150580952Y-121961904D01*
X150533333Y-122057142D01*
X150485714Y-122104761D01*
X150390476Y-122152380D01*
X150247619Y-122152380D01*
X151009523Y-121485714D02*
X151009523Y-122152380D01*
X151009523Y-121580952D02*
X151057142Y-121533333D01*
X151152380Y-121485714D01*
X151295238Y-121485714D01*
X151390476Y-121533333D01*
X151438095Y-121628571D01*
X151438095Y-122152380D01*
X151914285Y-121485714D02*
X151914285Y-122152380D01*
X151914285Y-121580952D02*
X151961904Y-121533333D01*
X152057142Y-121485714D01*
X152200000Y-121485714D01*
X152295238Y-121533333D01*
X152342857Y-121628571D01*
X152342857Y-122152380D01*
X152580952Y-122247619D02*
X153342857Y-122247619D01*
X153771428Y-121152380D02*
X153866666Y-121152380D01*
X153961904Y-121200000D01*
X154009523Y-121247619D01*
X154057142Y-121342857D01*
X154104761Y-121533333D01*
X154104761Y-121771428D01*
X154057142Y-121961904D01*
X154009523Y-122057142D01*
X153961904Y-122104761D01*
X153866666Y-122152380D01*
X153771428Y-122152380D01*
X153676190Y-122104761D01*
X153628571Y-122057142D01*
X153580952Y-121961904D01*
X153533333Y-121771428D01*
X153533333Y-121533333D01*
X153580952Y-121342857D01*
X153628571Y-121247619D01*
X153676190Y-121200000D01*
X153771428Y-121152380D01*
X154485714Y-121247619D02*
X154533333Y-121200000D01*
X154628571Y-121152380D01*
X154866666Y-121152380D01*
X154961904Y-121200000D01*
X155009523Y-121247619D01*
X155057142Y-121342857D01*
X155057142Y-121438095D01*
X155009523Y-121580952D01*
X154438095Y-122152380D01*
X155057142Y-122152380D01*
X155390476Y-122152380D02*
X155914285Y-121485714D01*
X155390476Y-121485714D02*
X155914285Y-122152380D01*
X156485714Y-121152380D02*
X156580952Y-121152380D01*
X156676190Y-121200000D01*
X156723809Y-121247619D01*
X156771428Y-121342857D01*
X156819047Y-121533333D01*
X156819047Y-121771428D01*
X156771428Y-121961904D01*
X156723809Y-122057142D01*
X156676190Y-122104761D01*
X156580952Y-122152380D01*
X156485714Y-122152380D01*
X156390476Y-122104761D01*
X156342857Y-122057142D01*
X156295238Y-121961904D01*
X156247619Y-121771428D01*
X156247619Y-121533333D01*
X156295238Y-121342857D01*
X156342857Y-121247619D01*
X156390476Y-121200000D01*
X156485714Y-121152380D01*
X157152380Y-121152380D02*
X157819047Y-121152380D01*
X157390476Y-122152380D01*
X157961904Y-122247619D02*
X158723809Y-122247619D01*
X159533333Y-122057142D02*
X159485714Y-122104761D01*
X159342857Y-122152380D01*
X159247619Y-122152380D01*
X159104761Y-122104761D01*
X159009523Y-122009523D01*
X158961904Y-121914285D01*
X158914285Y-121723809D01*
X158914285Y-121580952D01*
X158961904Y-121390476D01*
X159009523Y-121295238D01*
X159104761Y-121200000D01*
X159247619Y-121152380D01*
X159342857Y-121152380D01*
X159485714Y-121200000D01*
X159533333Y-121247619D01*
X160104761Y-122152380D02*
X160009523Y-122104761D01*
X159961904Y-122057142D01*
X159914285Y-121961904D01*
X159914285Y-121676190D01*
X159961904Y-121580952D01*
X160009523Y-121533333D01*
X160104761Y-121485714D01*
X160247619Y-121485714D01*
X160342857Y-121533333D01*
X160390476Y-121580952D01*
X160438095Y-121676190D01*
X160438095Y-121961904D01*
X160390476Y-122057142D01*
X160342857Y-122104761D01*
X160247619Y-122152380D01*
X160104761Y-122152380D01*
X161295238Y-121485714D02*
X161295238Y-122152380D01*
X160866666Y-121485714D02*
X160866666Y-122009523D01*
X160914285Y-122104761D01*
X161009523Y-122152380D01*
X161152380Y-122152380D01*
X161247619Y-122104761D01*
X161295238Y-122057142D01*
X161771428Y-121485714D02*
X161771428Y-122152380D01*
X161771428Y-121580952D02*
X161819047Y-121533333D01*
X161914285Y-121485714D01*
X162057142Y-121485714D01*
X162152380Y-121533333D01*
X162200000Y-121628571D01*
X162200000Y-122152380D01*
X162533333Y-121485714D02*
X162914285Y-121485714D01*
X162676190Y-121152380D02*
X162676190Y-122009523D01*
X162723809Y-122104761D01*
X162819047Y-122152380D01*
X162914285Y-122152380D01*
X163628571Y-122104761D02*
X163533333Y-122152380D01*
X163342857Y-122152380D01*
X163247619Y-122104761D01*
X163200000Y-122009523D01*
X163200000Y-121628571D01*
X163247619Y-121533333D01*
X163342857Y-121485714D01*
X163533333Y-121485714D01*
X163628571Y-121533333D01*
X163676190Y-121628571D01*
X163676190Y-121723809D01*
X163200000Y-121819047D01*
X164104761Y-122152380D02*
X164104761Y-121485714D01*
X164104761Y-121676190D02*
X164152380Y-121580952D01*
X164200000Y-121533333D01*
X164295238Y-121485714D01*
X164390476Y-121485714D01*
X164485714Y-122247619D02*
X165247619Y-122247619D01*
X166057142Y-122057142D02*
X166009523Y-122104761D01*
X165866666Y-122152380D01*
X165771428Y-122152380D01*
X165628571Y-122104761D01*
X165533333Y-122009523D01*
X165485714Y-121914285D01*
X165438095Y-121723809D01*
X165438095Y-121580952D01*
X165485714Y-121390476D01*
X165533333Y-121295238D01*
X165628571Y-121200000D01*
X165771428Y-121152380D01*
X165866666Y-121152380D01*
X166009523Y-121200000D01*
X166057142Y-121247619D01*
X166628571Y-122152380D02*
X166533333Y-122104761D01*
X166485714Y-122009523D01*
X166485714Y-121152380D01*
X167152380Y-122152380D02*
X167057142Y-122104761D01*
X167009523Y-122057142D01*
X166961904Y-121961904D01*
X166961904Y-121676190D01*
X167009523Y-121580952D01*
X167057142Y-121533333D01*
X167152380Y-121485714D01*
X167295238Y-121485714D01*
X167390476Y-121533333D01*
X167438095Y-121580952D01*
X167485714Y-121676190D01*
X167485714Y-121961904D01*
X167438095Y-122057142D01*
X167390476Y-122104761D01*
X167295238Y-122152380D01*
X167152380Y-122152380D01*
X168342857Y-122104761D02*
X168247619Y-122152380D01*
X168057142Y-122152380D01*
X167961904Y-122104761D01*
X167914285Y-122057142D01*
X167866666Y-121961904D01*
X167866666Y-121676190D01*
X167914285Y-121580952D01*
X167961904Y-121533333D01*
X168057142Y-121485714D01*
X168247619Y-121485714D01*
X168342857Y-121533333D01*
X168771428Y-122152380D02*
X168771428Y-121152380D01*
X168866666Y-121771428D02*
X169152380Y-122152380D01*
X169152380Y-121485714D02*
X168771428Y-121866666D01*
X169485714Y-121485714D02*
X169676190Y-122152380D01*
X169866666Y-121676190D01*
X170057142Y-122152380D01*
X170247619Y-121485714D01*
X170628571Y-122152380D02*
X170628571Y-121485714D01*
X170628571Y-121152380D02*
X170580952Y-121200000D01*
X170628571Y-121247619D01*
X170676190Y-121200000D01*
X170628571Y-121152380D01*
X170628571Y-121247619D01*
X171057142Y-122104761D02*
X171152380Y-122152380D01*
X171342857Y-122152380D01*
X171438095Y-122104761D01*
X171485714Y-122009523D01*
X171485714Y-121961904D01*
X171438095Y-121866666D01*
X171342857Y-121819047D01*
X171200000Y-121819047D01*
X171104761Y-121771428D01*
X171057142Y-121676190D01*
X171057142Y-121628571D01*
X171104761Y-121533333D01*
X171200000Y-121485714D01*
X171342857Y-121485714D01*
X171438095Y-121533333D01*
X172295238Y-122104761D02*
X172200000Y-122152380D01*
X172009523Y-122152380D01*
X171914285Y-122104761D01*
X171866666Y-122009523D01*
X171866666Y-121628571D01*
X171914285Y-121533333D01*
X172009523Y-121485714D01*
X172200000Y-121485714D01*
X172295238Y-121533333D01*
X172342857Y-121628571D01*
X172342857Y-121723809D01*
X171866666Y-121819047D01*
X174880952Y-122652380D02*
X175452380Y-122652380D01*
X175166666Y-123652380D02*
X175166666Y-122652380D01*
X176261904Y-123652380D02*
X175785714Y-123652380D01*
X175785714Y-122652380D01*
X176785714Y-122652380D02*
X176880952Y-122652380D01*
X176976190Y-122700000D01*
X177023809Y-122747619D01*
X177071428Y-122842857D01*
X177119047Y-123033333D01*
X177119047Y-123271428D01*
X177071428Y-123461904D01*
X177023809Y-123557142D01*
X176976190Y-123604761D01*
X176880952Y-123652380D01*
X176785714Y-123652380D01*
X176690476Y-123604761D01*
X176642857Y-123557142D01*
X176595238Y-123461904D01*
X176547619Y-123271428D01*
X176547619Y-123033333D01*
X176595238Y-122842857D01*
X176642857Y-122747619D01*
X176690476Y-122700000D01*
X176785714Y-122652380D01*
X177452380Y-122652380D02*
X178119047Y-122652380D01*
X177690476Y-123652380D01*
X178928571Y-122985714D02*
X178928571Y-123652380D01*
X178690476Y-122604761D02*
X178452380Y-123319047D01*
X179071428Y-123319047D01*
X98076190Y-48157142D02*
X98028571Y-48204761D01*
X97885714Y-48252380D01*
X97790476Y-48252380D01*
X97647619Y-48204761D01*
X97552380Y-48109523D01*
X97504761Y-48014285D01*
X97457142Y-47823809D01*
X97457142Y-47680952D01*
X97504761Y-47490476D01*
X97552380Y-47395238D01*
X97647619Y-47300000D01*
X97790476Y-47252380D01*
X97885714Y-47252380D01*
X98028571Y-47300000D01*
X98076190Y-47347619D01*
X98647619Y-48252380D02*
X98552380Y-48204761D01*
X98504761Y-48157142D01*
X98457142Y-48061904D01*
X98457142Y-47776190D01*
X98504761Y-47680952D01*
X98552380Y-47633333D01*
X98647619Y-47585714D01*
X98790476Y-47585714D01*
X98885714Y-47633333D01*
X98933333Y-47680952D01*
X98980952Y-47776190D01*
X98980952Y-48061904D01*
X98933333Y-48157142D01*
X98885714Y-48204761D01*
X98790476Y-48252380D01*
X98647619Y-48252380D01*
X99409523Y-47585714D02*
X99409523Y-48252380D01*
X99409523Y-47680952D02*
X99457142Y-47633333D01*
X99552380Y-47585714D01*
X99695238Y-47585714D01*
X99790476Y-47633333D01*
X99838095Y-47728571D01*
X99838095Y-48252380D01*
X100314285Y-47585714D02*
X100314285Y-48252380D01*
X100314285Y-47680952D02*
X100361904Y-47633333D01*
X100457142Y-47585714D01*
X100600000Y-47585714D01*
X100695238Y-47633333D01*
X100742857Y-47728571D01*
X100742857Y-48252380D01*
X100980952Y-48347619D02*
X101742857Y-48347619D01*
X102171428Y-47252380D02*
X102266666Y-47252380D01*
X102361904Y-47300000D01*
X102409523Y-47347619D01*
X102457142Y-47442857D01*
X102504761Y-47633333D01*
X102504761Y-47871428D01*
X102457142Y-48061904D01*
X102409523Y-48157142D01*
X102361904Y-48204761D01*
X102266666Y-48252380D01*
X102171428Y-48252380D01*
X102076190Y-48204761D01*
X102028571Y-48157142D01*
X101980952Y-48061904D01*
X101933333Y-47871428D01*
X101933333Y-47633333D01*
X101980952Y-47442857D01*
X102028571Y-47347619D01*
X102076190Y-47300000D01*
X102171428Y-47252380D01*
X102885714Y-47347619D02*
X102933333Y-47300000D01*
X103028571Y-47252380D01*
X103266666Y-47252380D01*
X103361904Y-47300000D01*
X103409523Y-47347619D01*
X103457142Y-47442857D01*
X103457142Y-47538095D01*
X103409523Y-47680952D01*
X102838095Y-48252380D01*
X103457142Y-48252380D01*
X103790476Y-48252380D02*
X104314285Y-47585714D01*
X103790476Y-47585714D02*
X104314285Y-48252380D01*
X105219047Y-48252380D02*
X104647619Y-48252380D01*
X104933333Y-48252380D02*
X104933333Y-47252380D01*
X104838095Y-47395238D01*
X104742857Y-47490476D01*
X104647619Y-47538095D01*
X105600000Y-47347619D02*
X105647619Y-47300000D01*
X105742857Y-47252380D01*
X105980952Y-47252380D01*
X106076190Y-47300000D01*
X106123809Y-47347619D01*
X106171428Y-47442857D01*
X106171428Y-47538095D01*
X106123809Y-47680952D01*
X105552380Y-48252380D01*
X106171428Y-48252380D01*
X106361904Y-48347619D02*
X107123809Y-48347619D01*
X107933333Y-48157142D02*
X107885714Y-48204761D01*
X107742857Y-48252380D01*
X107647619Y-48252380D01*
X107504761Y-48204761D01*
X107409523Y-48109523D01*
X107361904Y-48014285D01*
X107314285Y-47823809D01*
X107314285Y-47680952D01*
X107361904Y-47490476D01*
X107409523Y-47395238D01*
X107504761Y-47300000D01*
X107647619Y-47252380D01*
X107742857Y-47252380D01*
X107885714Y-47300000D01*
X107933333Y-47347619D01*
X108504761Y-48252380D02*
X108409523Y-48204761D01*
X108361904Y-48157142D01*
X108314285Y-48061904D01*
X108314285Y-47776190D01*
X108361904Y-47680952D01*
X108409523Y-47633333D01*
X108504761Y-47585714D01*
X108647619Y-47585714D01*
X108742857Y-47633333D01*
X108790476Y-47680952D01*
X108838095Y-47776190D01*
X108838095Y-48061904D01*
X108790476Y-48157142D01*
X108742857Y-48204761D01*
X108647619Y-48252380D01*
X108504761Y-48252380D01*
X109695238Y-47585714D02*
X109695238Y-48252380D01*
X109266666Y-47585714D02*
X109266666Y-48109523D01*
X109314285Y-48204761D01*
X109409523Y-48252380D01*
X109552380Y-48252380D01*
X109647619Y-48204761D01*
X109695238Y-48157142D01*
X110171428Y-47585714D02*
X110171428Y-48252380D01*
X110171428Y-47680952D02*
X110219047Y-47633333D01*
X110314285Y-47585714D01*
X110457142Y-47585714D01*
X110552380Y-47633333D01*
X110600000Y-47728571D01*
X110600000Y-48252380D01*
X110933333Y-47585714D02*
X111314285Y-47585714D01*
X111076190Y-47252380D02*
X111076190Y-48109523D01*
X111123809Y-48204761D01*
X111219047Y-48252380D01*
X111314285Y-48252380D01*
X112028571Y-48204761D02*
X111933333Y-48252380D01*
X111742857Y-48252380D01*
X111647619Y-48204761D01*
X111600000Y-48109523D01*
X111600000Y-47728571D01*
X111647619Y-47633333D01*
X111742857Y-47585714D01*
X111933333Y-47585714D01*
X112028571Y-47633333D01*
X112076190Y-47728571D01*
X112076190Y-47823809D01*
X111600000Y-47919047D01*
X112504761Y-48252380D02*
X112504761Y-47585714D01*
X112504761Y-47776190D02*
X112552380Y-47680952D01*
X112600000Y-47633333D01*
X112695238Y-47585714D01*
X112790476Y-47585714D01*
X112885714Y-48347619D02*
X113647619Y-48347619D01*
X114457142Y-48157142D02*
X114409523Y-48204761D01*
X114266666Y-48252380D01*
X114171428Y-48252380D01*
X114028571Y-48204761D01*
X113933333Y-48109523D01*
X113885714Y-48014285D01*
X113838095Y-47823809D01*
X113838095Y-47680952D01*
X113885714Y-47490476D01*
X113933333Y-47395238D01*
X114028571Y-47300000D01*
X114171428Y-47252380D01*
X114266666Y-47252380D01*
X114409523Y-47300000D01*
X114457142Y-47347619D01*
X115028571Y-48252380D02*
X114933333Y-48204761D01*
X114885714Y-48109523D01*
X114885714Y-47252380D01*
X115552380Y-48252380D02*
X115457142Y-48204761D01*
X115409523Y-48157142D01*
X115361904Y-48061904D01*
X115361904Y-47776190D01*
X115409523Y-47680952D01*
X115457142Y-47633333D01*
X115552380Y-47585714D01*
X115695238Y-47585714D01*
X115790476Y-47633333D01*
X115838095Y-47680952D01*
X115885714Y-47776190D01*
X115885714Y-48061904D01*
X115838095Y-48157142D01*
X115790476Y-48204761D01*
X115695238Y-48252380D01*
X115552380Y-48252380D01*
X116742857Y-48204761D02*
X116647619Y-48252380D01*
X116457142Y-48252380D01*
X116361904Y-48204761D01*
X116314285Y-48157142D01*
X116266666Y-48061904D01*
X116266666Y-47776190D01*
X116314285Y-47680952D01*
X116361904Y-47633333D01*
X116457142Y-47585714D01*
X116647619Y-47585714D01*
X116742857Y-47633333D01*
X117171428Y-48252380D02*
X117171428Y-47252380D01*
X117266666Y-47871428D02*
X117552380Y-48252380D01*
X117552380Y-47585714D02*
X117171428Y-47966666D01*
X117885714Y-47585714D02*
X118076190Y-48252380D01*
X118266666Y-47776190D01*
X118457142Y-48252380D01*
X118647619Y-47585714D01*
X119028571Y-48252380D02*
X119028571Y-47585714D01*
X119028571Y-47252380D02*
X118980952Y-47300000D01*
X119028571Y-47347619D01*
X119076190Y-47300000D01*
X119028571Y-47252380D01*
X119028571Y-47347619D01*
X119457142Y-48204761D02*
X119552380Y-48252380D01*
X119742857Y-48252380D01*
X119838095Y-48204761D01*
X119885714Y-48109523D01*
X119885714Y-48061904D01*
X119838095Y-47966666D01*
X119742857Y-47919047D01*
X119600000Y-47919047D01*
X119504761Y-47871428D01*
X119457142Y-47776190D01*
X119457142Y-47728571D01*
X119504761Y-47633333D01*
X119600000Y-47585714D01*
X119742857Y-47585714D01*
X119838095Y-47633333D01*
X120695238Y-48204761D02*
X120600000Y-48252380D01*
X120409523Y-48252380D01*
X120314285Y-48204761D01*
X120266666Y-48109523D01*
X120266666Y-47728571D01*
X120314285Y-47633333D01*
X120409523Y-47585714D01*
X120600000Y-47585714D01*
X120695238Y-47633333D01*
X120742857Y-47728571D01*
X120742857Y-47823809D01*
X120266666Y-47919047D01*
X121571428Y-139076190D02*
X121571428Y-139552380D01*
X121238095Y-138552380D02*
X121571428Y-139076190D01*
X121904761Y-138552380D01*
X122238095Y-139552380D02*
X122238095Y-138552380D01*
X122571428Y-139266666D01*
X122904761Y-138552380D01*
X122904761Y-139552380D01*
X123714285Y-139028571D02*
X123380952Y-139028571D01*
X123380952Y-139552380D02*
X123380952Y-138552380D01*
X123857142Y-138552380D01*
X124190476Y-138647619D02*
X124238095Y-138600000D01*
X124333333Y-138552380D01*
X124571428Y-138552380D01*
X124666666Y-138600000D01*
X124714285Y-138647619D01*
X124761904Y-138742857D01*
X124761904Y-138838095D01*
X124714285Y-138980952D01*
X124142857Y-139552380D01*
X124761904Y-139552380D01*
X125619047Y-138552380D02*
X125428571Y-138552380D01*
X125333333Y-138600000D01*
X125285714Y-138647619D01*
X125190476Y-138790476D01*
X125142857Y-138980952D01*
X125142857Y-139361904D01*
X125190476Y-139457142D01*
X125238095Y-139504761D01*
X125333333Y-139552380D01*
X125523809Y-139552380D01*
X125619047Y-139504761D01*
X125666666Y-139457142D01*
X125714285Y-139361904D01*
X125714285Y-139123809D01*
X125666666Y-139028571D01*
X125619047Y-138980952D01*
X125523809Y-138933333D01*
X125333333Y-138933333D01*
X125238095Y-138980952D01*
X125190476Y-139028571D01*
X125142857Y-139123809D01*
X126095238Y-138647619D02*
X126142857Y-138600000D01*
X126238095Y-138552380D01*
X126476190Y-138552380D01*
X126571428Y-138600000D01*
X126619047Y-138647619D01*
X126666666Y-138742857D01*
X126666666Y-138838095D01*
X126619047Y-138980952D01*
X126047619Y-139552380D01*
X126666666Y-139552380D01*
X140752380Y-76147619D02*
X140752380Y-76719047D01*
X140752380Y-76433333D02*
X139752380Y-76433333D01*
X139895238Y-76528571D01*
X139990476Y-76623809D01*
X140038095Y-76719047D01*
X139752380Y-75528571D02*
X139752380Y-75433333D01*
X139800000Y-75338095D01*
X139847619Y-75290476D01*
X139942857Y-75242857D01*
X140133333Y-75195238D01*
X140371428Y-75195238D01*
X140561904Y-75242857D01*
X140657142Y-75290476D01*
X140704761Y-75338095D01*
X140752380Y-75433333D01*
X140752380Y-75528571D01*
X140704761Y-75623809D01*
X140657142Y-75671428D01*
X140561904Y-75719047D01*
X140371428Y-75766666D01*
X140133333Y-75766666D01*
X139942857Y-75719047D01*
X139847619Y-75671428D01*
X139800000Y-75623809D01*
X139752380Y-75528571D01*
X139752380Y-74576190D02*
X139752380Y-74480952D01*
X139800000Y-74385714D01*
X139847619Y-74338095D01*
X139942857Y-74290476D01*
X140133333Y-74242857D01*
X140371428Y-74242857D01*
X140561904Y-74290476D01*
X140657142Y-74338095D01*
X140704761Y-74385714D01*
X140752380Y-74480952D01*
X140752380Y-74576190D01*
X140704761Y-74671428D01*
X140657142Y-74719047D01*
X140561904Y-74766666D01*
X140371428Y-74814285D01*
X140133333Y-74814285D01*
X139942857Y-74766666D01*
X139847619Y-74719047D01*
X139800000Y-74671428D01*
X139752380Y-74576190D01*
X140085714Y-73814285D02*
X140752380Y-73814285D01*
X140180952Y-73814285D02*
X140133333Y-73766666D01*
X140085714Y-73671428D01*
X140085714Y-73528571D01*
X140133333Y-73433333D01*
X140228571Y-73385714D01*
X140752380Y-73385714D01*
X140228571Y-72576190D02*
X140228571Y-72909523D01*
X140752380Y-72909523D02*
X139752380Y-72909523D01*
X139752380Y-72433333D01*
D13*
X139142857Y-89457142D02*
X139161904Y-89476190D01*
X139180952Y-89533333D01*
X139180952Y-89571428D01*
X139161904Y-89628571D01*
X139123809Y-89666666D01*
X139085714Y-89685714D01*
X139009523Y-89704761D01*
X138952380Y-89704761D01*
X138876190Y-89685714D01*
X138838095Y-89666666D01*
X138800000Y-89628571D01*
X138780952Y-89571428D01*
X138780952Y-89533333D01*
X138800000Y-89476190D01*
X138819047Y-89457142D01*
X139180952Y-89076190D02*
X139180952Y-89304761D01*
X139180952Y-89190476D02*
X138780952Y-89190476D01*
X138838095Y-89228571D01*
X138876190Y-89266666D01*
X138895238Y-89304761D01*
X138819047Y-88923809D02*
X138800000Y-88904761D01*
X138780952Y-88866666D01*
X138780952Y-88771428D01*
X138800000Y-88733333D01*
X138819047Y-88714285D01*
X138857142Y-88695238D01*
X138895238Y-88695238D01*
X138952380Y-88714285D01*
X139180952Y-88942857D01*
X139180952Y-88695238D01*
D11*
X143452380Y-75771428D02*
X143452380Y-76342857D01*
X143452380Y-76057142D02*
X142452380Y-76057142D01*
X142595238Y-76152380D01*
X142690476Y-76247619D01*
X142738095Y-76342857D01*
X142452380Y-75152380D02*
X142452380Y-75057142D01*
X142500000Y-74961904D01*
X142547619Y-74914285D01*
X142642857Y-74866666D01*
X142833333Y-74819047D01*
X143071428Y-74819047D01*
X143261904Y-74866666D01*
X143357142Y-74914285D01*
X143404761Y-74961904D01*
X143452380Y-75057142D01*
X143452380Y-75152380D01*
X143404761Y-75247619D01*
X143357142Y-75295238D01*
X143261904Y-75342857D01*
X143071428Y-75390476D01*
X142833333Y-75390476D01*
X142642857Y-75342857D01*
X142547619Y-75295238D01*
X142500000Y-75247619D01*
X142452380Y-75152380D01*
X142785714Y-73961904D02*
X143452380Y-73961904D01*
X142785714Y-74390476D02*
X143309523Y-74390476D01*
X143404761Y-74342857D01*
X143452380Y-74247619D01*
X143452380Y-74104761D01*
X143404761Y-74009523D01*
X143357142Y-73961904D01*
X142928571Y-73152380D02*
X142928571Y-73485714D01*
X143452380Y-73485714D02*
X142452380Y-73485714D01*
X142452380Y-73009523D01*
D13*
X137142857Y-89457142D02*
X137161904Y-89476190D01*
X137180952Y-89533333D01*
X137180952Y-89571428D01*
X137161904Y-89628571D01*
X137123809Y-89666666D01*
X137085714Y-89685714D01*
X137009523Y-89704761D01*
X136952380Y-89704761D01*
X136876190Y-89685714D01*
X136838095Y-89666666D01*
X136800000Y-89628571D01*
X136780952Y-89571428D01*
X136780952Y-89533333D01*
X136800000Y-89476190D01*
X136819047Y-89457142D01*
X137180952Y-89076190D02*
X137180952Y-89304761D01*
X137180952Y-89190476D02*
X136780952Y-89190476D01*
X136838095Y-89228571D01*
X136876190Y-89266666D01*
X136895238Y-89304761D01*
X137180952Y-88695238D02*
X137180952Y-88923809D01*
X137180952Y-88809523D02*
X136780952Y-88809523D01*
X136838095Y-88847619D01*
X136876190Y-88885714D01*
X136895238Y-88923809D01*
D11*
X138197379Y-75386429D02*
X138197379Y-75957858D01*
X138197379Y-75672143D02*
X137197379Y-75672143D01*
X137340237Y-75767381D01*
X137435475Y-75862620D01*
X137483094Y-75957858D01*
X137197379Y-74767381D02*
X137197379Y-74672143D01*
X137244999Y-74576905D01*
X137292618Y-74529286D01*
X137387856Y-74481667D01*
X137578332Y-74434048D01*
X137816427Y-74434048D01*
X138006903Y-74481667D01*
X138102141Y-74529286D01*
X138149760Y-74576905D01*
X138197379Y-74672143D01*
X138197379Y-74767381D01*
X138149760Y-74862620D01*
X138102141Y-74910239D01*
X138006903Y-74957858D01*
X137816427Y-75005477D01*
X137578332Y-75005477D01*
X137387856Y-74957858D01*
X137292618Y-74910239D01*
X137244999Y-74862620D01*
X137197379Y-74767381D01*
X137530713Y-73576905D02*
X138197379Y-73576905D01*
X137530713Y-74005477D02*
X138054522Y-74005477D01*
X138149760Y-73957858D01*
X138197379Y-73862620D01*
X138197379Y-73719762D01*
X138149760Y-73624524D01*
X138102141Y-73576905D01*
X137673570Y-72767381D02*
X137673570Y-73100715D01*
X138197379Y-73100715D02*
X137197379Y-73100715D01*
X137197379Y-72624524D01*
D13*
X151642857Y-98267142D02*
X151661904Y-98286190D01*
X151680952Y-98343333D01*
X151680952Y-98381428D01*
X151661904Y-98438571D01*
X151623809Y-98476666D01*
X151585714Y-98495714D01*
X151509523Y-98514761D01*
X151452380Y-98514761D01*
X151376190Y-98495714D01*
X151338095Y-98476666D01*
X151300000Y-98438571D01*
X151280952Y-98381428D01*
X151280952Y-98343333D01*
X151300000Y-98286190D01*
X151319047Y-98267142D01*
X151680952Y-97886190D02*
X151680952Y-98114761D01*
X151680952Y-98000476D02*
X151280952Y-98000476D01*
X151338095Y-98038571D01*
X151376190Y-98076666D01*
X151395238Y-98114761D01*
X151280952Y-97543333D02*
X151280952Y-97619523D01*
X151300000Y-97657619D01*
X151319047Y-97676666D01*
X151376190Y-97714761D01*
X151452380Y-97733809D01*
X151604761Y-97733809D01*
X151642857Y-97714761D01*
X151661904Y-97695714D01*
X151680952Y-97657619D01*
X151680952Y-97581428D01*
X151661904Y-97543333D01*
X151642857Y-97524285D01*
X151604761Y-97505238D01*
X151509523Y-97505238D01*
X151471428Y-97524285D01*
X151452380Y-97543333D01*
X151433333Y-97581428D01*
X151433333Y-97657619D01*
X151452380Y-97695714D01*
X151471428Y-97714761D01*
X151509523Y-97733809D01*
D11*
X115157142Y-153223809D02*
X115204761Y-153271428D01*
X115252380Y-153414285D01*
X115252380Y-153509523D01*
X115204761Y-153652380D01*
X115109523Y-153747619D01*
X115014285Y-153795238D01*
X114823809Y-153842857D01*
X114680952Y-153842857D01*
X114490476Y-153795238D01*
X114395238Y-153747619D01*
X114300000Y-153652380D01*
X114252380Y-153509523D01*
X114252380Y-153414285D01*
X114300000Y-153271428D01*
X114347619Y-153223809D01*
X115252380Y-152652380D02*
X115204761Y-152747619D01*
X115157142Y-152795238D01*
X115061904Y-152842857D01*
X114776190Y-152842857D01*
X114680952Y-152795238D01*
X114633333Y-152747619D01*
X114585714Y-152652380D01*
X114585714Y-152509523D01*
X114633333Y-152414285D01*
X114680952Y-152366666D01*
X114776190Y-152319047D01*
X115061904Y-152319047D01*
X115157142Y-152366666D01*
X115204761Y-152414285D01*
X115252380Y-152509523D01*
X115252380Y-152652380D01*
X114585714Y-151890476D02*
X115252380Y-151890476D01*
X114680952Y-151890476D02*
X114633333Y-151842857D01*
X114585714Y-151747619D01*
X114585714Y-151604761D01*
X114633333Y-151509523D01*
X114728571Y-151461904D01*
X115252380Y-151461904D01*
X114585714Y-150985714D02*
X115252380Y-150985714D01*
X114680952Y-150985714D02*
X114633333Y-150938095D01*
X114585714Y-150842857D01*
X114585714Y-150700000D01*
X114633333Y-150604761D01*
X114728571Y-150557142D01*
X115252380Y-150557142D01*
X115347619Y-150319047D02*
X115347619Y-149557142D01*
X114252380Y-149128571D02*
X114252380Y-149033333D01*
X114300000Y-148938095D01*
X114347619Y-148890476D01*
X114442857Y-148842857D01*
X114633333Y-148795238D01*
X114871428Y-148795238D01*
X115061904Y-148842857D01*
X115157142Y-148890476D01*
X115204761Y-148938095D01*
X115252380Y-149033333D01*
X115252380Y-149128571D01*
X115204761Y-149223809D01*
X115157142Y-149271428D01*
X115061904Y-149319047D01*
X114871428Y-149366666D01*
X114633333Y-149366666D01*
X114442857Y-149319047D01*
X114347619Y-149271428D01*
X114300000Y-149223809D01*
X114252380Y-149128571D01*
X114347619Y-148414285D02*
X114300000Y-148366666D01*
X114252380Y-148271428D01*
X114252380Y-148033333D01*
X114300000Y-147938095D01*
X114347619Y-147890476D01*
X114442857Y-147842857D01*
X114538095Y-147842857D01*
X114680952Y-147890476D01*
X115252380Y-148461904D01*
X115252380Y-147842857D01*
X115252380Y-147509523D02*
X114585714Y-146985714D01*
X114585714Y-147509523D02*
X115252380Y-146985714D01*
X114252380Y-146414285D02*
X114252380Y-146319047D01*
X114300000Y-146223809D01*
X114347619Y-146176190D01*
X114442857Y-146128571D01*
X114633333Y-146080952D01*
X114871428Y-146080952D01*
X115061904Y-146128571D01*
X115157142Y-146176190D01*
X115204761Y-146223809D01*
X115252380Y-146319047D01*
X115252380Y-146414285D01*
X115204761Y-146509523D01*
X115157142Y-146557142D01*
X115061904Y-146604761D01*
X114871428Y-146652380D01*
X114633333Y-146652380D01*
X114442857Y-146604761D01*
X114347619Y-146557142D01*
X114300000Y-146509523D01*
X114252380Y-146414285D01*
X114680952Y-145509523D02*
X114633333Y-145604761D01*
X114585714Y-145652380D01*
X114490476Y-145700000D01*
X114442857Y-145700000D01*
X114347619Y-145652380D01*
X114300000Y-145604761D01*
X114252380Y-145509523D01*
X114252380Y-145319047D01*
X114300000Y-145223809D01*
X114347619Y-145176190D01*
X114442857Y-145128571D01*
X114490476Y-145128571D01*
X114585714Y-145176190D01*
X114633333Y-145223809D01*
X114680952Y-145319047D01*
X114680952Y-145509523D01*
X114728571Y-145604761D01*
X114776190Y-145652380D01*
X114871428Y-145700000D01*
X115061904Y-145700000D01*
X115157142Y-145652380D01*
X115204761Y-145604761D01*
X115252380Y-145509523D01*
X115252380Y-145319047D01*
X115204761Y-145223809D01*
X115157142Y-145176190D01*
X115061904Y-145128571D01*
X114871428Y-145128571D01*
X114776190Y-145176190D01*
X114728571Y-145223809D01*
X114680952Y-145319047D01*
X115347619Y-144938095D02*
X115347619Y-144176190D01*
X115157142Y-143366666D02*
X115204761Y-143414285D01*
X115252380Y-143557142D01*
X115252380Y-143652380D01*
X115204761Y-143795238D01*
X115109523Y-143890476D01*
X115014285Y-143938095D01*
X114823809Y-143985714D01*
X114680952Y-143985714D01*
X114490476Y-143938095D01*
X114395238Y-143890476D01*
X114300000Y-143795238D01*
X114252380Y-143652380D01*
X114252380Y-143557142D01*
X114300000Y-143414285D01*
X114347619Y-143366666D01*
X115252380Y-142795238D02*
X115204761Y-142890476D01*
X115157142Y-142938095D01*
X115061904Y-142985714D01*
X114776190Y-142985714D01*
X114680952Y-142938095D01*
X114633333Y-142890476D01*
X114585714Y-142795238D01*
X114585714Y-142652380D01*
X114633333Y-142557142D01*
X114680952Y-142509523D01*
X114776190Y-142461904D01*
X115061904Y-142461904D01*
X115157142Y-142509523D01*
X115204761Y-142557142D01*
X115252380Y-142652380D01*
X115252380Y-142795238D01*
X114585714Y-141604761D02*
X115252380Y-141604761D01*
X114585714Y-142033333D02*
X115109523Y-142033333D01*
X115204761Y-141985714D01*
X115252380Y-141890476D01*
X115252380Y-141747619D01*
X115204761Y-141652380D01*
X115157142Y-141604761D01*
X114585714Y-141128571D02*
X115252380Y-141128571D01*
X114680952Y-141128571D02*
X114633333Y-141080952D01*
X114585714Y-140985714D01*
X114585714Y-140842857D01*
X114633333Y-140747619D01*
X114728571Y-140700000D01*
X115252380Y-140700000D01*
X114585714Y-140366666D02*
X114585714Y-139985714D01*
X114252380Y-140223809D02*
X115109523Y-140223809D01*
X115204761Y-140176190D01*
X115252380Y-140080952D01*
X115252380Y-139985714D01*
X115204761Y-139271428D02*
X115252380Y-139366666D01*
X115252380Y-139557142D01*
X115204761Y-139652380D01*
X115109523Y-139700000D01*
X114728571Y-139700000D01*
X114633333Y-139652380D01*
X114585714Y-139557142D01*
X114585714Y-139366666D01*
X114633333Y-139271428D01*
X114728571Y-139223809D01*
X114823809Y-139223809D01*
X114919047Y-139700000D01*
X115252380Y-138795238D02*
X114585714Y-138795238D01*
X114776190Y-138795238D02*
X114680952Y-138747619D01*
X114633333Y-138700000D01*
X114585714Y-138604761D01*
X114585714Y-138509523D01*
X115347619Y-138414285D02*
X115347619Y-137652380D01*
X115157142Y-136842857D02*
X115204761Y-136890476D01*
X115252380Y-137033333D01*
X115252380Y-137128571D01*
X115204761Y-137271428D01*
X115109523Y-137366666D01*
X115014285Y-137414285D01*
X114823809Y-137461904D01*
X114680952Y-137461904D01*
X114490476Y-137414285D01*
X114395238Y-137366666D01*
X114300000Y-137271428D01*
X114252380Y-137128571D01*
X114252380Y-137033333D01*
X114300000Y-136890476D01*
X114347619Y-136842857D01*
X115252380Y-136271428D02*
X115204761Y-136366666D01*
X115109523Y-136414285D01*
X114252380Y-136414285D01*
X115252380Y-135747619D02*
X115204761Y-135842857D01*
X115157142Y-135890476D01*
X115061904Y-135938095D01*
X114776190Y-135938095D01*
X114680952Y-135890476D01*
X114633333Y-135842857D01*
X114585714Y-135747619D01*
X114585714Y-135604761D01*
X114633333Y-135509523D01*
X114680952Y-135461904D01*
X114776190Y-135414285D01*
X115061904Y-135414285D01*
X115157142Y-135461904D01*
X115204761Y-135509523D01*
X115252380Y-135604761D01*
X115252380Y-135747619D01*
X115204761Y-134557142D02*
X115252380Y-134652380D01*
X115252380Y-134842857D01*
X115204761Y-134938095D01*
X115157142Y-134985714D01*
X115061904Y-135033333D01*
X114776190Y-135033333D01*
X114680952Y-134985714D01*
X114633333Y-134938095D01*
X114585714Y-134842857D01*
X114585714Y-134652380D01*
X114633333Y-134557142D01*
X115252380Y-134128571D02*
X114252380Y-134128571D01*
X114871428Y-134033333D02*
X115252380Y-133747619D01*
X114585714Y-133747619D02*
X114966666Y-134128571D01*
X114585714Y-133414285D02*
X115252380Y-133223809D01*
X114776190Y-133033333D01*
X115252380Y-132842857D01*
X114585714Y-132652380D01*
X115252380Y-132271428D02*
X114585714Y-132271428D01*
X114252380Y-132271428D02*
X114300000Y-132319047D01*
X114347619Y-132271428D01*
X114300000Y-132223809D01*
X114252380Y-132271428D01*
X114347619Y-132271428D01*
X115204761Y-131842857D02*
X115252380Y-131747619D01*
X115252380Y-131557142D01*
X115204761Y-131461904D01*
X115109523Y-131414285D01*
X115061904Y-131414285D01*
X114966666Y-131461904D01*
X114919047Y-131557142D01*
X114919047Y-131700000D01*
X114871428Y-131795238D01*
X114776190Y-131842857D01*
X114728571Y-131842857D01*
X114633333Y-131795238D01*
X114585714Y-131700000D01*
X114585714Y-131557142D01*
X114633333Y-131461904D01*
X115204761Y-130604761D02*
X115252380Y-130700000D01*
X115252380Y-130890476D01*
X115204761Y-130985714D01*
X115109523Y-131033333D01*
X114728571Y-131033333D01*
X114633333Y-130985714D01*
X114585714Y-130890476D01*
X114585714Y-130700000D01*
X114633333Y-130604761D01*
X114728571Y-130557142D01*
X114823809Y-130557142D01*
X114919047Y-131033333D01*
X123376190Y-97957142D02*
X123852380Y-97957142D01*
X122852380Y-98290476D02*
X123376190Y-97957142D01*
X122852380Y-97623809D01*
X123566666Y-97338095D02*
X123566666Y-96861904D01*
X123852380Y-97433333D02*
X122852380Y-97100000D01*
X123852380Y-96766666D01*
X123757142Y-95861904D02*
X123804761Y-95909523D01*
X123852380Y-96052380D01*
X123852380Y-96147619D01*
X123804761Y-96290476D01*
X123709523Y-96385714D01*
X123614285Y-96433333D01*
X123423809Y-96480952D01*
X123280952Y-96480952D01*
X123090476Y-96433333D01*
X122995238Y-96385714D01*
X122900000Y-96290476D01*
X122852380Y-96147619D01*
X122852380Y-96052380D01*
X122900000Y-95909523D01*
X122947619Y-95861904D01*
X122852380Y-94957142D02*
X122852380Y-95433333D01*
X123328571Y-95480952D01*
X123280952Y-95433333D01*
X123233333Y-95338095D01*
X123233333Y-95100000D01*
X123280952Y-95004761D01*
X123328571Y-94957142D01*
X123423809Y-94909523D01*
X123661904Y-94909523D01*
X123757142Y-94957142D01*
X123804761Y-95004761D01*
X123852380Y-95100000D01*
X123852380Y-95338095D01*
X123804761Y-95433333D01*
X123757142Y-95480952D01*
X123852380Y-93957142D02*
X123852380Y-94528571D01*
X123852380Y-94242857D02*
X122852380Y-94242857D01*
X122995238Y-94338095D01*
X123090476Y-94433333D01*
X123138095Y-94528571D01*
X122947619Y-93576190D02*
X122900000Y-93528571D01*
X122852380Y-93433333D01*
X122852380Y-93195238D01*
X122900000Y-93100000D01*
X122947619Y-93052380D01*
X123042857Y-93004761D01*
X123138095Y-93004761D01*
X123280952Y-93052380D01*
X123852380Y-93623809D01*
X123852380Y-93004761D01*
X189052380Y-96347619D02*
X189052380Y-96919047D01*
X189052380Y-96633333D02*
X188052380Y-96633333D01*
X188195238Y-96728571D01*
X188290476Y-96823809D01*
X188338095Y-96919047D01*
X188052380Y-95728571D02*
X188052380Y-95633333D01*
X188100000Y-95538095D01*
X188147619Y-95490476D01*
X188242857Y-95442857D01*
X188433333Y-95395238D01*
X188671428Y-95395238D01*
X188861904Y-95442857D01*
X188957142Y-95490476D01*
X189004761Y-95538095D01*
X189052380Y-95633333D01*
X189052380Y-95728571D01*
X189004761Y-95823809D01*
X188957142Y-95871428D01*
X188861904Y-95919047D01*
X188671428Y-95966666D01*
X188433333Y-95966666D01*
X188242857Y-95919047D01*
X188147619Y-95871428D01*
X188100000Y-95823809D01*
X188052380Y-95728571D01*
X188052380Y-94776190D02*
X188052380Y-94680952D01*
X188100000Y-94585714D01*
X188147619Y-94538095D01*
X188242857Y-94490476D01*
X188433333Y-94442857D01*
X188671428Y-94442857D01*
X188861904Y-94490476D01*
X188957142Y-94538095D01*
X189004761Y-94585714D01*
X189052380Y-94680952D01*
X189052380Y-94776190D01*
X189004761Y-94871428D01*
X188957142Y-94919047D01*
X188861904Y-94966666D01*
X188671428Y-95014285D01*
X188433333Y-95014285D01*
X188242857Y-94966666D01*
X188147619Y-94919047D01*
X188100000Y-94871428D01*
X188052380Y-94776190D01*
X188385714Y-94014285D02*
X189052380Y-94014285D01*
X188480952Y-94014285D02*
X188433333Y-93966666D01*
X188385714Y-93871428D01*
X188385714Y-93728571D01*
X188433333Y-93633333D01*
X188528571Y-93585714D01*
X189052380Y-93585714D01*
X188528571Y-92776190D02*
X188528571Y-93109523D01*
X189052380Y-93109523D02*
X188052380Y-93109523D01*
X188052380Y-92633333D01*
D13*
X153642857Y-98267142D02*
X153661904Y-98286190D01*
X153680952Y-98343333D01*
X153680952Y-98381428D01*
X153661904Y-98438571D01*
X153623809Y-98476666D01*
X153585714Y-98495714D01*
X153509523Y-98514761D01*
X153452380Y-98514761D01*
X153376190Y-98495714D01*
X153338095Y-98476666D01*
X153300000Y-98438571D01*
X153280952Y-98381428D01*
X153280952Y-98343333D01*
X153300000Y-98286190D01*
X153319047Y-98267142D01*
X153680952Y-97886190D02*
X153680952Y-98114761D01*
X153680952Y-98000476D02*
X153280952Y-98000476D01*
X153338095Y-98038571D01*
X153376190Y-98076666D01*
X153395238Y-98114761D01*
X153280952Y-97752857D02*
X153280952Y-97486190D01*
X153680952Y-97657619D01*
D11*
X172545833Y-40052380D02*
X172355357Y-40052380D01*
X172260119Y-40100000D01*
X172212500Y-40147619D01*
X172117261Y-40290476D01*
X172069642Y-40480952D01*
X172069642Y-40861904D01*
X172117261Y-40957142D01*
X172164880Y-41004761D01*
X172260119Y-41052380D01*
X172450595Y-41052380D01*
X172545833Y-41004761D01*
X172593452Y-40957142D01*
X172641071Y-40861904D01*
X172641071Y-40623809D01*
X172593452Y-40528571D01*
X172545833Y-40480952D01*
X172450595Y-40433333D01*
X172260119Y-40433333D01*
X172164880Y-40480952D01*
X172117261Y-40528571D01*
X172069642Y-40623809D01*
X173212500Y-40480952D02*
X173117261Y-40433333D01*
X173069642Y-40385714D01*
X173022023Y-40290476D01*
X173022023Y-40242857D01*
X173069642Y-40147619D01*
X173117261Y-40100000D01*
X173212500Y-40052380D01*
X173402976Y-40052380D01*
X173498214Y-40100000D01*
X173545833Y-40147619D01*
X173593452Y-40242857D01*
X173593452Y-40290476D01*
X173545833Y-40385714D01*
X173498214Y-40433333D01*
X173402976Y-40480952D01*
X173212500Y-40480952D01*
X173117261Y-40528571D01*
X173069642Y-40576190D01*
X173022023Y-40671428D01*
X173022023Y-40861904D01*
X173069642Y-40957142D01*
X173117261Y-41004761D01*
X173212500Y-41052380D01*
X173402976Y-41052380D01*
X173498214Y-41004761D01*
X173545833Y-40957142D01*
X173593452Y-40861904D01*
X173593452Y-40671428D01*
X173545833Y-40576190D01*
X173498214Y-40528571D01*
X173402976Y-40480952D01*
X174022023Y-40385714D02*
X174022023Y-41385714D01*
X174022023Y-40433333D02*
X174117261Y-40385714D01*
X174307738Y-40385714D01*
X174402976Y-40433333D01*
X174450595Y-40480952D01*
X174498214Y-40576190D01*
X174498214Y-40861904D01*
X174450595Y-40957142D01*
X174402976Y-41004761D01*
X174307738Y-41052380D01*
X174117261Y-41052380D01*
X174022023Y-41004761D01*
X175260119Y-40528571D02*
X174926785Y-40528571D01*
X174926785Y-41052380D02*
X174926785Y-40052380D01*
X175402976Y-40052380D01*
D13*
X144742857Y-86142857D02*
X144723809Y-86161904D01*
X144666666Y-86180952D01*
X144628571Y-86180952D01*
X144571428Y-86161904D01*
X144533333Y-86123809D01*
X144514285Y-86085714D01*
X144495238Y-86009523D01*
X144495238Y-85952380D01*
X144514285Y-85876190D01*
X144533333Y-85838095D01*
X144571428Y-85800000D01*
X144628571Y-85780952D01*
X144666666Y-85780952D01*
X144723809Y-85800000D01*
X144742857Y-85819047D01*
X145123809Y-86180952D02*
X144895238Y-86180952D01*
X145009523Y-86180952D02*
X145009523Y-85780952D01*
X144971428Y-85838095D01*
X144933333Y-85876190D01*
X144895238Y-85895238D01*
X145257142Y-85780952D02*
X145504761Y-85780952D01*
X145371428Y-85933333D01*
X145428571Y-85933333D01*
X145466666Y-85952380D01*
X145485714Y-85971428D01*
X145504761Y-86009523D01*
X145504761Y-86104761D01*
X145485714Y-86142857D01*
X145466666Y-86161904D01*
X145428571Y-86180952D01*
X145314285Y-86180952D01*
X145276190Y-86161904D01*
X145257142Y-86142857D01*
D11*
X186590476Y-89752380D02*
X187209523Y-89752380D01*
X186876190Y-90133333D01*
X187019047Y-90133333D01*
X187114285Y-90180952D01*
X187161904Y-90228571D01*
X187209523Y-90323809D01*
X187209523Y-90561904D01*
X187161904Y-90657142D01*
X187114285Y-90704761D01*
X187019047Y-90752380D01*
X186733333Y-90752380D01*
X186638095Y-90704761D01*
X186590476Y-90657142D01*
X187542857Y-89752380D02*
X188161904Y-89752380D01*
X187828571Y-90133333D01*
X187971428Y-90133333D01*
X188066666Y-90180952D01*
X188114285Y-90228571D01*
X188161904Y-90323809D01*
X188161904Y-90561904D01*
X188114285Y-90657142D01*
X188066666Y-90704761D01*
X187971428Y-90752380D01*
X187685714Y-90752380D01*
X187590476Y-90704761D01*
X187542857Y-90657142D01*
D13*
X149633333Y-100180952D02*
X149500000Y-99990476D01*
X149404761Y-100180952D02*
X149404761Y-99780952D01*
X149557142Y-99780952D01*
X149595238Y-99800000D01*
X149614285Y-99819047D01*
X149633333Y-99857142D01*
X149633333Y-99914285D01*
X149614285Y-99952380D01*
X149595238Y-99971428D01*
X149557142Y-99990476D01*
X149404761Y-99990476D01*
X150014285Y-100180952D02*
X149785714Y-100180952D01*
X149900000Y-100180952D02*
X149900000Y-99780952D01*
X149861904Y-99838095D01*
X149823809Y-99876190D01*
X149785714Y-99895238D01*
D11*
X150052380Y-65771428D02*
X150052380Y-66342857D01*
X150052380Y-66057142D02*
X149052380Y-66057142D01*
X149195238Y-66152380D01*
X149290476Y-66247619D01*
X149338095Y-66342857D01*
X149052380Y-65152380D02*
X149052380Y-65057142D01*
X149100000Y-64961904D01*
X149147619Y-64914285D01*
X149242857Y-64866666D01*
X149433333Y-64819047D01*
X149671428Y-64819047D01*
X149861904Y-64866666D01*
X149957142Y-64914285D01*
X150004761Y-64961904D01*
X150052380Y-65057142D01*
X150052380Y-65152380D01*
X150004761Y-65247619D01*
X149957142Y-65295238D01*
X149861904Y-65342857D01*
X149671428Y-65390476D01*
X149433333Y-65390476D01*
X149242857Y-65342857D01*
X149147619Y-65295238D01*
X149100000Y-65247619D01*
X149052380Y-65152380D01*
X149385714Y-63961904D02*
X150052380Y-63961904D01*
X149385714Y-64390476D02*
X149909523Y-64390476D01*
X150004761Y-64342857D01*
X150052380Y-64247619D01*
X150052380Y-64104761D01*
X150004761Y-64009523D01*
X149957142Y-63961904D01*
X149528571Y-63152380D02*
X149528571Y-63485714D01*
X150052380Y-63485714D02*
X149052380Y-63485714D01*
X149052380Y-63009523D01*
D13*
X153642857Y-86257142D02*
X153661904Y-86276190D01*
X153680952Y-86333333D01*
X153680952Y-86371428D01*
X153661904Y-86428571D01*
X153623809Y-86466666D01*
X153585714Y-86485714D01*
X153509523Y-86504761D01*
X153452380Y-86504761D01*
X153376190Y-86485714D01*
X153338095Y-86466666D01*
X153300000Y-86428571D01*
X153280952Y-86371428D01*
X153280952Y-86333333D01*
X153300000Y-86276190D01*
X153319047Y-86257142D01*
X153680952Y-85876190D02*
X153680952Y-86104761D01*
X153680952Y-85990476D02*
X153280952Y-85990476D01*
X153338095Y-86028571D01*
X153376190Y-86066666D01*
X153395238Y-86104761D01*
X153414285Y-85533333D02*
X153680952Y-85533333D01*
X153261904Y-85628571D02*
X153547619Y-85723809D01*
X153547619Y-85476190D01*
D11*
X144819047Y-72747619D02*
X144866666Y-72700000D01*
X144961904Y-72652380D01*
X145200000Y-72652380D01*
X145295238Y-72700000D01*
X145342857Y-72747619D01*
X145390476Y-72842857D01*
X145390476Y-72938095D01*
X145342857Y-73080952D01*
X144771428Y-73652380D01*
X145390476Y-73652380D01*
X145819047Y-73557142D02*
X145866666Y-73604761D01*
X145819047Y-73652380D01*
X145771428Y-73604761D01*
X145819047Y-73557142D01*
X145819047Y-73652380D01*
X146200000Y-72652380D02*
X146866666Y-72652380D01*
X146438095Y-73652380D01*
X147247619Y-72985714D02*
X147247619Y-73652380D01*
X147247619Y-73080952D02*
X147295238Y-73033333D01*
X147390476Y-72985714D01*
X147533333Y-72985714D01*
X147628571Y-73033333D01*
X147676190Y-73128571D01*
X147676190Y-73652380D01*
X148485714Y-73128571D02*
X148152380Y-73128571D01*
X148152380Y-73652380D02*
X148152380Y-72652380D01*
X148628571Y-72652380D01*
D13*
X160242857Y-82642857D02*
X160223809Y-82661904D01*
X160166666Y-82680952D01*
X160128571Y-82680952D01*
X160071428Y-82661904D01*
X160033333Y-82623809D01*
X160014285Y-82585714D01*
X159995238Y-82509523D01*
X159995238Y-82452380D01*
X160014285Y-82376190D01*
X160033333Y-82338095D01*
X160071428Y-82300000D01*
X160128571Y-82280952D01*
X160166666Y-82280952D01*
X160223809Y-82300000D01*
X160242857Y-82319047D01*
X160623809Y-82680952D02*
X160395238Y-82680952D01*
X160509523Y-82680952D02*
X160509523Y-82280952D01*
X160471428Y-82338095D01*
X160433333Y-82376190D01*
X160395238Y-82395238D01*
X160985714Y-82280952D02*
X160795238Y-82280952D01*
X160776190Y-82471428D01*
X160795238Y-82452380D01*
X160833333Y-82433333D01*
X160928571Y-82433333D01*
X160966666Y-82452380D01*
X160985714Y-82471428D01*
X161004761Y-82509523D01*
X161004761Y-82604761D01*
X160985714Y-82642857D01*
X160966666Y-82661904D01*
X160928571Y-82680952D01*
X160833333Y-82680952D01*
X160795238Y-82661904D01*
X160776190Y-82642857D01*
D11*
X165147619Y-117280952D02*
X165100000Y-117233333D01*
X165052380Y-117138095D01*
X165052380Y-116900000D01*
X165100000Y-116804761D01*
X165147619Y-116757142D01*
X165242857Y-116709523D01*
X165338095Y-116709523D01*
X165480952Y-116757142D01*
X166052380Y-117328571D01*
X166052380Y-116709523D01*
X165957142Y-116280952D02*
X166004761Y-116233333D01*
X166052380Y-116280952D01*
X166004761Y-116328571D01*
X165957142Y-116280952D01*
X166052380Y-116280952D01*
X165052380Y-115900000D02*
X165052380Y-115233333D01*
X166052380Y-115661904D01*
X165385714Y-114852380D02*
X166052380Y-114852380D01*
X165480952Y-114852380D02*
X165433333Y-114804761D01*
X165385714Y-114709523D01*
X165385714Y-114566666D01*
X165433333Y-114471428D01*
X165528571Y-114423809D01*
X166052380Y-114423809D01*
X165528571Y-113614285D02*
X165528571Y-113947619D01*
X166052380Y-113947619D02*
X165052380Y-113947619D01*
X165052380Y-113471428D01*
D13*
X167042857Y-98257142D02*
X167061904Y-98276190D01*
X167080952Y-98333333D01*
X167080952Y-98371428D01*
X167061904Y-98428571D01*
X167023809Y-98466666D01*
X166985714Y-98485714D01*
X166909523Y-98504761D01*
X166852380Y-98504761D01*
X166776190Y-98485714D01*
X166738095Y-98466666D01*
X166700000Y-98428571D01*
X166680952Y-98371428D01*
X166680952Y-98333333D01*
X166700000Y-98276190D01*
X166719047Y-98257142D01*
X167080952Y-97876190D02*
X167080952Y-98104761D01*
X167080952Y-97990476D02*
X166680952Y-97990476D01*
X166738095Y-98028571D01*
X166776190Y-98066666D01*
X166795238Y-98104761D01*
X166852380Y-97647619D02*
X166833333Y-97685714D01*
X166814285Y-97704761D01*
X166776190Y-97723809D01*
X166757142Y-97723809D01*
X166719047Y-97704761D01*
X166700000Y-97685714D01*
X166680952Y-97647619D01*
X166680952Y-97571428D01*
X166700000Y-97533333D01*
X166719047Y-97514285D01*
X166757142Y-97495238D01*
X166776190Y-97495238D01*
X166814285Y-97514285D01*
X166833333Y-97533333D01*
X166852380Y-97571428D01*
X166852380Y-97647619D01*
X166871428Y-97685714D01*
X166890476Y-97704761D01*
X166928571Y-97723809D01*
X167004761Y-97723809D01*
X167042857Y-97704761D01*
X167061904Y-97685714D01*
X167080952Y-97647619D01*
X167080952Y-97571428D01*
X167061904Y-97533333D01*
X167042857Y-97514285D01*
X167004761Y-97495238D01*
X166928571Y-97495238D01*
X166890476Y-97514285D01*
X166871428Y-97533333D01*
X166852380Y-97571428D01*
D11*
X97457142Y-70428571D02*
X97600000Y-70476190D01*
X97647619Y-70523809D01*
X97695238Y-70619047D01*
X97695238Y-70761904D01*
X97647619Y-70857142D01*
X97600000Y-70904761D01*
X97504761Y-70952380D01*
X97123809Y-70952380D01*
X97123809Y-69952380D01*
X97457142Y-69952380D01*
X97552380Y-70000000D01*
X97600000Y-70047619D01*
X97647619Y-70142857D01*
X97647619Y-70238095D01*
X97600000Y-70333333D01*
X97552380Y-70380952D01*
X97457142Y-70428571D01*
X97123809Y-70428571D01*
X98552380Y-70285714D02*
X98552380Y-70952380D01*
X98123809Y-70285714D02*
X98123809Y-70809523D01*
X98171428Y-70904761D01*
X98266666Y-70952380D01*
X98409523Y-70952380D01*
X98504761Y-70904761D01*
X98552380Y-70857142D01*
X98980952Y-70904761D02*
X99076190Y-70952380D01*
X99266666Y-70952380D01*
X99361904Y-70904761D01*
X99409523Y-70809523D01*
X99409523Y-70761904D01*
X99361904Y-70666666D01*
X99266666Y-70619047D01*
X99123809Y-70619047D01*
X99028571Y-70571428D01*
X98980952Y-70476190D01*
X98980952Y-70428571D01*
X99028571Y-70333333D01*
X99123809Y-70285714D01*
X99266666Y-70285714D01*
X99361904Y-70333333D01*
X99600000Y-71047619D02*
X100361904Y-71047619D01*
X100600000Y-70952380D02*
X100600000Y-69952380D01*
X101028571Y-70904761D02*
X101171428Y-70952380D01*
X101409523Y-70952380D01*
X101504761Y-70904761D01*
X101552380Y-70857142D01*
X101600000Y-70761904D01*
X101600000Y-70666666D01*
X101552380Y-70571428D01*
X101504761Y-70523809D01*
X101409523Y-70476190D01*
X101219047Y-70428571D01*
X101123809Y-70380952D01*
X101076190Y-70333333D01*
X101028571Y-70238095D01*
X101028571Y-70142857D01*
X101076190Y-70047619D01*
X101123809Y-70000000D01*
X101219047Y-69952380D01*
X101457142Y-69952380D01*
X101600000Y-70000000D01*
X101980952Y-70666666D02*
X102457142Y-70666666D01*
X101885714Y-70952380D02*
X102219047Y-69952380D01*
X102552380Y-70952380D01*
X102647619Y-71047619D02*
X103409523Y-71047619D01*
X103790476Y-70380952D02*
X103695238Y-70333333D01*
X103647619Y-70285714D01*
X103600000Y-70190476D01*
X103600000Y-70142857D01*
X103647619Y-70047619D01*
X103695238Y-70000000D01*
X103790476Y-69952380D01*
X103980952Y-69952380D01*
X104076190Y-70000000D01*
X104123809Y-70047619D01*
X104171428Y-70142857D01*
X104171428Y-70190476D01*
X104123809Y-70285714D01*
X104076190Y-70333333D01*
X103980952Y-70380952D01*
X103790476Y-70380952D01*
X103695238Y-70428571D01*
X103647619Y-70476190D01*
X103600000Y-70571428D01*
X103600000Y-70761904D01*
X103647619Y-70857142D01*
X103695238Y-70904761D01*
X103790476Y-70952380D01*
X103980952Y-70952380D01*
X104076190Y-70904761D01*
X104123809Y-70857142D01*
X104171428Y-70761904D01*
X104171428Y-70571428D01*
X104123809Y-70476190D01*
X104076190Y-70428571D01*
X103980952Y-70380952D01*
X104600000Y-70952380D02*
X104600000Y-69952380D01*
X104600000Y-70333333D02*
X104695238Y-70285714D01*
X104885714Y-70285714D01*
X104980952Y-70333333D01*
X105028571Y-70380952D01*
X105076190Y-70476190D01*
X105076190Y-70761904D01*
X105028571Y-70857142D01*
X104980952Y-70904761D01*
X104885714Y-70952380D01*
X104695238Y-70952380D01*
X104600000Y-70904761D01*
X105504761Y-70952380D02*
X105504761Y-70285714D01*
X105504761Y-69952380D02*
X105457142Y-70000000D01*
X105504761Y-70047619D01*
X105552380Y-70000000D01*
X105504761Y-69952380D01*
X105504761Y-70047619D01*
X105838095Y-70285714D02*
X106219047Y-70285714D01*
X105980952Y-69952380D02*
X105980952Y-70809523D01*
X106028571Y-70904761D01*
X106123809Y-70952380D01*
X106219047Y-70952380D01*
M02*
