G04 #@! TF.GenerationSoftware,KiCad,Pcbnew,(5.1.5)-3*
G04 #@! TF.CreationDate,2021-10-03T17:07:44+03:00*
G04 #@! TF.ProjectId,OPL3,4f504c33-2e6b-4696-9361-645f70636258,rev?*
G04 #@! TF.SameCoordinates,Original*
G04 #@! TF.FileFunction,Soldermask,Bot*
G04 #@! TF.FilePolarity,Negative*
%FSLAX46Y46*%
G04 Gerber Fmt 4.6, Leading zero omitted, Abs format (unit mm)*
G04 Created by KiCad (PCBNEW (5.1.5)-3) date 2021-10-03 17:07:44*
%MOMM*%
%LPD*%
G04 APERTURE LIST*
%ADD10C,0.100000*%
G04 APERTURE END LIST*
D10*
G36*
X102713000Y-123861000D02*
G01*
X101087000Y-123861000D01*
X101087000Y-116901000D01*
X102713000Y-116901000D01*
X102713000Y-123861000D01*
G37*
G36*
X140813000Y-123861000D02*
G01*
X139187000Y-123861000D01*
X139187000Y-116901000D01*
X140813000Y-116901000D01*
X140813000Y-123861000D01*
G37*
G36*
X178913000Y-123861000D02*
G01*
X177287000Y-123861000D01*
X177287000Y-116901000D01*
X178913000Y-116901000D01*
X178913000Y-123861000D01*
G37*
G36*
X173833000Y-123861000D02*
G01*
X172207000Y-123861000D01*
X172207000Y-116901000D01*
X173833000Y-116901000D01*
X173833000Y-123861000D01*
G37*
G36*
X171293000Y-123861000D02*
G01*
X169667000Y-123861000D01*
X169667000Y-116901000D01*
X171293000Y-116901000D01*
X171293000Y-123861000D01*
G37*
G36*
X168753000Y-123861000D02*
G01*
X167127000Y-123861000D01*
X167127000Y-116901000D01*
X168753000Y-116901000D01*
X168753000Y-123861000D01*
G37*
G36*
X166213000Y-123861000D02*
G01*
X164587000Y-123861000D01*
X164587000Y-116901000D01*
X166213000Y-116901000D01*
X166213000Y-123861000D01*
G37*
G36*
X163673000Y-123861000D02*
G01*
X162047000Y-123861000D01*
X162047000Y-116901000D01*
X163673000Y-116901000D01*
X163673000Y-123861000D01*
G37*
G36*
X161133000Y-123861000D02*
G01*
X159507000Y-123861000D01*
X159507000Y-116901000D01*
X161133000Y-116901000D01*
X161133000Y-123861000D01*
G37*
G36*
X158593000Y-123861000D02*
G01*
X156967000Y-123861000D01*
X156967000Y-116901000D01*
X158593000Y-116901000D01*
X158593000Y-123861000D01*
G37*
G36*
X156053000Y-123861000D02*
G01*
X154427000Y-123861000D01*
X154427000Y-116901000D01*
X156053000Y-116901000D01*
X156053000Y-123861000D01*
G37*
G36*
X153513000Y-123861000D02*
G01*
X151887000Y-123861000D01*
X151887000Y-116901000D01*
X153513000Y-116901000D01*
X153513000Y-123861000D01*
G37*
G36*
X150973000Y-123861000D02*
G01*
X149347000Y-123861000D01*
X149347000Y-116901000D01*
X150973000Y-116901000D01*
X150973000Y-123861000D01*
G37*
G36*
X148433000Y-123861000D02*
G01*
X146807000Y-123861000D01*
X146807000Y-116901000D01*
X148433000Y-116901000D01*
X148433000Y-123861000D01*
G37*
G36*
X145893000Y-123861000D02*
G01*
X144267000Y-123861000D01*
X144267000Y-116901000D01*
X145893000Y-116901000D01*
X145893000Y-123861000D01*
G37*
G36*
X143353000Y-123861000D02*
G01*
X141727000Y-123861000D01*
X141727000Y-116901000D01*
X143353000Y-116901000D01*
X143353000Y-123861000D01*
G37*
G36*
X138273000Y-123861000D02*
G01*
X136647000Y-123861000D01*
X136647000Y-116901000D01*
X138273000Y-116901000D01*
X138273000Y-123861000D01*
G37*
G36*
X176373000Y-123861000D02*
G01*
X174747000Y-123861000D01*
X174747000Y-116901000D01*
X176373000Y-116901000D01*
X176373000Y-123861000D01*
G37*
G36*
X105253000Y-123861000D02*
G01*
X103627000Y-123861000D01*
X103627000Y-116901000D01*
X105253000Y-116901000D01*
X105253000Y-123861000D01*
G37*
G36*
X107793000Y-123861000D02*
G01*
X106167000Y-123861000D01*
X106167000Y-116901000D01*
X107793000Y-116901000D01*
X107793000Y-123861000D01*
G37*
G36*
X110333000Y-123861000D02*
G01*
X108707000Y-123861000D01*
X108707000Y-116901000D01*
X110333000Y-116901000D01*
X110333000Y-123861000D01*
G37*
G36*
X112873000Y-123861000D02*
G01*
X111247000Y-123861000D01*
X111247000Y-116901000D01*
X112873000Y-116901000D01*
X112873000Y-123861000D01*
G37*
G36*
X115413000Y-123861000D02*
G01*
X113787000Y-123861000D01*
X113787000Y-116901000D01*
X115413000Y-116901000D01*
X115413000Y-123861000D01*
G37*
G36*
X117953000Y-123861000D02*
G01*
X116327000Y-123861000D01*
X116327000Y-116901000D01*
X117953000Y-116901000D01*
X117953000Y-123861000D01*
G37*
G36*
X120493000Y-123861000D02*
G01*
X118867000Y-123861000D01*
X118867000Y-116901000D01*
X120493000Y-116901000D01*
X120493000Y-123861000D01*
G37*
G36*
X123033000Y-123861000D02*
G01*
X121407000Y-123861000D01*
X121407000Y-116901000D01*
X123033000Y-116901000D01*
X123033000Y-123861000D01*
G37*
G36*
X125573000Y-123861000D02*
G01*
X123947000Y-123861000D01*
X123947000Y-116901000D01*
X125573000Y-116901000D01*
X125573000Y-123861000D01*
G37*
G36*
X128113000Y-123861000D02*
G01*
X126487000Y-123861000D01*
X126487000Y-116901000D01*
X128113000Y-116901000D01*
X128113000Y-123861000D01*
G37*
G36*
X130653000Y-123861000D02*
G01*
X129027000Y-123861000D01*
X129027000Y-116901000D01*
X130653000Y-116901000D01*
X130653000Y-123861000D01*
G37*
G36*
X133193000Y-123861000D02*
G01*
X131567000Y-123861000D01*
X131567000Y-116901000D01*
X133193000Y-116901000D01*
X133193000Y-123861000D01*
G37*
G36*
X135733000Y-123861000D02*
G01*
X134107000Y-123861000D01*
X134107000Y-116901000D01*
X135733000Y-116901000D01*
X135733000Y-123861000D01*
G37*
G36*
X130108228Y-110181703D02*
G01*
X130263100Y-110245853D01*
X130402481Y-110338985D01*
X130521015Y-110457519D01*
X130614147Y-110596900D01*
X130678297Y-110751772D01*
X130711000Y-110916184D01*
X130711000Y-111083816D01*
X130678297Y-111248228D01*
X130614147Y-111403100D01*
X130521015Y-111542481D01*
X130402481Y-111661015D01*
X130263100Y-111754147D01*
X130108228Y-111818297D01*
X129943816Y-111851000D01*
X129776184Y-111851000D01*
X129611772Y-111818297D01*
X129456900Y-111754147D01*
X129317519Y-111661015D01*
X129198985Y-111542481D01*
X129105853Y-111403100D01*
X129041703Y-111248228D01*
X129009000Y-111083816D01*
X129009000Y-110916184D01*
X129041703Y-110751772D01*
X129105853Y-110596900D01*
X129198985Y-110457519D01*
X129317519Y-110338985D01*
X129456900Y-110245853D01*
X129611772Y-110181703D01*
X129776184Y-110149000D01*
X129943816Y-110149000D01*
X130108228Y-110181703D01*
G37*
G36*
X107851000Y-111851000D02*
G01*
X106149000Y-111851000D01*
X106149000Y-110149000D01*
X107851000Y-110149000D01*
X107851000Y-111851000D01*
G37*
G36*
X109788228Y-110181703D02*
G01*
X109943100Y-110245853D01*
X110082481Y-110338985D01*
X110201015Y-110457519D01*
X110294147Y-110596900D01*
X110358297Y-110751772D01*
X110391000Y-110916184D01*
X110391000Y-111083816D01*
X110358297Y-111248228D01*
X110294147Y-111403100D01*
X110201015Y-111542481D01*
X110082481Y-111661015D01*
X109943100Y-111754147D01*
X109788228Y-111818297D01*
X109623816Y-111851000D01*
X109456184Y-111851000D01*
X109291772Y-111818297D01*
X109136900Y-111754147D01*
X108997519Y-111661015D01*
X108878985Y-111542481D01*
X108785853Y-111403100D01*
X108721703Y-111248228D01*
X108689000Y-111083816D01*
X108689000Y-110916184D01*
X108721703Y-110751772D01*
X108785853Y-110596900D01*
X108878985Y-110457519D01*
X108997519Y-110338985D01*
X109136900Y-110245853D01*
X109291772Y-110181703D01*
X109456184Y-110149000D01*
X109623816Y-110149000D01*
X109788228Y-110181703D01*
G37*
G36*
X112328228Y-110181703D02*
G01*
X112483100Y-110245853D01*
X112622481Y-110338985D01*
X112741015Y-110457519D01*
X112834147Y-110596900D01*
X112898297Y-110751772D01*
X112931000Y-110916184D01*
X112931000Y-111083816D01*
X112898297Y-111248228D01*
X112834147Y-111403100D01*
X112741015Y-111542481D01*
X112622481Y-111661015D01*
X112483100Y-111754147D01*
X112328228Y-111818297D01*
X112163816Y-111851000D01*
X111996184Y-111851000D01*
X111831772Y-111818297D01*
X111676900Y-111754147D01*
X111537519Y-111661015D01*
X111418985Y-111542481D01*
X111325853Y-111403100D01*
X111261703Y-111248228D01*
X111229000Y-111083816D01*
X111229000Y-110916184D01*
X111261703Y-110751772D01*
X111325853Y-110596900D01*
X111418985Y-110457519D01*
X111537519Y-110338985D01*
X111676900Y-110245853D01*
X111831772Y-110181703D01*
X111996184Y-110149000D01*
X112163816Y-110149000D01*
X112328228Y-110181703D01*
G37*
G36*
X114868228Y-110181703D02*
G01*
X115023100Y-110245853D01*
X115162481Y-110338985D01*
X115281015Y-110457519D01*
X115374147Y-110596900D01*
X115438297Y-110751772D01*
X115471000Y-110916184D01*
X115471000Y-111083816D01*
X115438297Y-111248228D01*
X115374147Y-111403100D01*
X115281015Y-111542481D01*
X115162481Y-111661015D01*
X115023100Y-111754147D01*
X114868228Y-111818297D01*
X114703816Y-111851000D01*
X114536184Y-111851000D01*
X114371772Y-111818297D01*
X114216900Y-111754147D01*
X114077519Y-111661015D01*
X113958985Y-111542481D01*
X113865853Y-111403100D01*
X113801703Y-111248228D01*
X113769000Y-111083816D01*
X113769000Y-110916184D01*
X113801703Y-110751772D01*
X113865853Y-110596900D01*
X113958985Y-110457519D01*
X114077519Y-110338985D01*
X114216900Y-110245853D01*
X114371772Y-110181703D01*
X114536184Y-110149000D01*
X114703816Y-110149000D01*
X114868228Y-110181703D01*
G37*
G36*
X117408228Y-110181703D02*
G01*
X117563100Y-110245853D01*
X117702481Y-110338985D01*
X117821015Y-110457519D01*
X117914147Y-110596900D01*
X117978297Y-110751772D01*
X118011000Y-110916184D01*
X118011000Y-111083816D01*
X117978297Y-111248228D01*
X117914147Y-111403100D01*
X117821015Y-111542481D01*
X117702481Y-111661015D01*
X117563100Y-111754147D01*
X117408228Y-111818297D01*
X117243816Y-111851000D01*
X117076184Y-111851000D01*
X116911772Y-111818297D01*
X116756900Y-111754147D01*
X116617519Y-111661015D01*
X116498985Y-111542481D01*
X116405853Y-111403100D01*
X116341703Y-111248228D01*
X116309000Y-111083816D01*
X116309000Y-110916184D01*
X116341703Y-110751772D01*
X116405853Y-110596900D01*
X116498985Y-110457519D01*
X116617519Y-110338985D01*
X116756900Y-110245853D01*
X116911772Y-110181703D01*
X117076184Y-110149000D01*
X117243816Y-110149000D01*
X117408228Y-110181703D01*
G37*
G36*
X119948228Y-110181703D02*
G01*
X120103100Y-110245853D01*
X120242481Y-110338985D01*
X120361015Y-110457519D01*
X120454147Y-110596900D01*
X120518297Y-110751772D01*
X120551000Y-110916184D01*
X120551000Y-111083816D01*
X120518297Y-111248228D01*
X120454147Y-111403100D01*
X120361015Y-111542481D01*
X120242481Y-111661015D01*
X120103100Y-111754147D01*
X119948228Y-111818297D01*
X119783816Y-111851000D01*
X119616184Y-111851000D01*
X119451772Y-111818297D01*
X119296900Y-111754147D01*
X119157519Y-111661015D01*
X119038985Y-111542481D01*
X118945853Y-111403100D01*
X118881703Y-111248228D01*
X118849000Y-111083816D01*
X118849000Y-110916184D01*
X118881703Y-110751772D01*
X118945853Y-110596900D01*
X119038985Y-110457519D01*
X119157519Y-110338985D01*
X119296900Y-110245853D01*
X119451772Y-110181703D01*
X119616184Y-110149000D01*
X119783816Y-110149000D01*
X119948228Y-110181703D01*
G37*
G36*
X122488228Y-110181703D02*
G01*
X122643100Y-110245853D01*
X122782481Y-110338985D01*
X122901015Y-110457519D01*
X122994147Y-110596900D01*
X123058297Y-110751772D01*
X123091000Y-110916184D01*
X123091000Y-111083816D01*
X123058297Y-111248228D01*
X122994147Y-111403100D01*
X122901015Y-111542481D01*
X122782481Y-111661015D01*
X122643100Y-111754147D01*
X122488228Y-111818297D01*
X122323816Y-111851000D01*
X122156184Y-111851000D01*
X121991772Y-111818297D01*
X121836900Y-111754147D01*
X121697519Y-111661015D01*
X121578985Y-111542481D01*
X121485853Y-111403100D01*
X121421703Y-111248228D01*
X121389000Y-111083816D01*
X121389000Y-110916184D01*
X121421703Y-110751772D01*
X121485853Y-110596900D01*
X121578985Y-110457519D01*
X121697519Y-110338985D01*
X121836900Y-110245853D01*
X121991772Y-110181703D01*
X122156184Y-110149000D01*
X122323816Y-110149000D01*
X122488228Y-110181703D01*
G37*
G36*
X125028228Y-110181703D02*
G01*
X125183100Y-110245853D01*
X125322481Y-110338985D01*
X125441015Y-110457519D01*
X125534147Y-110596900D01*
X125598297Y-110751772D01*
X125631000Y-110916184D01*
X125631000Y-111083816D01*
X125598297Y-111248228D01*
X125534147Y-111403100D01*
X125441015Y-111542481D01*
X125322481Y-111661015D01*
X125183100Y-111754147D01*
X125028228Y-111818297D01*
X124863816Y-111851000D01*
X124696184Y-111851000D01*
X124531772Y-111818297D01*
X124376900Y-111754147D01*
X124237519Y-111661015D01*
X124118985Y-111542481D01*
X124025853Y-111403100D01*
X123961703Y-111248228D01*
X123929000Y-111083816D01*
X123929000Y-110916184D01*
X123961703Y-110751772D01*
X124025853Y-110596900D01*
X124118985Y-110457519D01*
X124237519Y-110338985D01*
X124376900Y-110245853D01*
X124531772Y-110181703D01*
X124696184Y-110149000D01*
X124863816Y-110149000D01*
X125028228Y-110181703D01*
G37*
G36*
X127568228Y-110181703D02*
G01*
X127723100Y-110245853D01*
X127862481Y-110338985D01*
X127981015Y-110457519D01*
X128074147Y-110596900D01*
X128138297Y-110751772D01*
X128171000Y-110916184D01*
X128171000Y-111083816D01*
X128138297Y-111248228D01*
X128074147Y-111403100D01*
X127981015Y-111542481D01*
X127862481Y-111661015D01*
X127723100Y-111754147D01*
X127568228Y-111818297D01*
X127403816Y-111851000D01*
X127236184Y-111851000D01*
X127071772Y-111818297D01*
X126916900Y-111754147D01*
X126777519Y-111661015D01*
X126658985Y-111542481D01*
X126565853Y-111403100D01*
X126501703Y-111248228D01*
X126469000Y-111083816D01*
X126469000Y-110916184D01*
X126501703Y-110751772D01*
X126565853Y-110596900D01*
X126658985Y-110457519D01*
X126777519Y-110338985D01*
X126916900Y-110245853D01*
X127071772Y-110181703D01*
X127236184Y-110149000D01*
X127403816Y-110149000D01*
X127568228Y-110181703D01*
G37*
G36*
X127568228Y-102561703D02*
G01*
X127723100Y-102625853D01*
X127862481Y-102718985D01*
X127981015Y-102837519D01*
X128074147Y-102976900D01*
X128138297Y-103131772D01*
X128171000Y-103296184D01*
X128171000Y-103463816D01*
X128138297Y-103628228D01*
X128074147Y-103783100D01*
X127981015Y-103922481D01*
X127862481Y-104041015D01*
X127723100Y-104134147D01*
X127568228Y-104198297D01*
X127403816Y-104231000D01*
X127236184Y-104231000D01*
X127071772Y-104198297D01*
X126916900Y-104134147D01*
X126777519Y-104041015D01*
X126658985Y-103922481D01*
X126565853Y-103783100D01*
X126501703Y-103628228D01*
X126469000Y-103463816D01*
X126469000Y-103296184D01*
X126501703Y-103131772D01*
X126565853Y-102976900D01*
X126658985Y-102837519D01*
X126777519Y-102718985D01*
X126916900Y-102625853D01*
X127071772Y-102561703D01*
X127236184Y-102529000D01*
X127403816Y-102529000D01*
X127568228Y-102561703D01*
G37*
G36*
X130108228Y-102561703D02*
G01*
X130263100Y-102625853D01*
X130402481Y-102718985D01*
X130521015Y-102837519D01*
X130614147Y-102976900D01*
X130678297Y-103131772D01*
X130711000Y-103296184D01*
X130711000Y-103463816D01*
X130678297Y-103628228D01*
X130614147Y-103783100D01*
X130521015Y-103922481D01*
X130402481Y-104041015D01*
X130263100Y-104134147D01*
X130108228Y-104198297D01*
X129943816Y-104231000D01*
X129776184Y-104231000D01*
X129611772Y-104198297D01*
X129456900Y-104134147D01*
X129317519Y-104041015D01*
X129198985Y-103922481D01*
X129105853Y-103783100D01*
X129041703Y-103628228D01*
X129009000Y-103463816D01*
X129009000Y-103296184D01*
X129041703Y-103131772D01*
X129105853Y-102976900D01*
X129198985Y-102837519D01*
X129317519Y-102718985D01*
X129456900Y-102625853D01*
X129611772Y-102561703D01*
X129776184Y-102529000D01*
X129943816Y-102529000D01*
X130108228Y-102561703D01*
G37*
G36*
X125028228Y-102561703D02*
G01*
X125183100Y-102625853D01*
X125322481Y-102718985D01*
X125441015Y-102837519D01*
X125534147Y-102976900D01*
X125598297Y-103131772D01*
X125631000Y-103296184D01*
X125631000Y-103463816D01*
X125598297Y-103628228D01*
X125534147Y-103783100D01*
X125441015Y-103922481D01*
X125322481Y-104041015D01*
X125183100Y-104134147D01*
X125028228Y-104198297D01*
X124863816Y-104231000D01*
X124696184Y-104231000D01*
X124531772Y-104198297D01*
X124376900Y-104134147D01*
X124237519Y-104041015D01*
X124118985Y-103922481D01*
X124025853Y-103783100D01*
X123961703Y-103628228D01*
X123929000Y-103463816D01*
X123929000Y-103296184D01*
X123961703Y-103131772D01*
X124025853Y-102976900D01*
X124118985Y-102837519D01*
X124237519Y-102718985D01*
X124376900Y-102625853D01*
X124531772Y-102561703D01*
X124696184Y-102529000D01*
X124863816Y-102529000D01*
X125028228Y-102561703D01*
G37*
G36*
X122488228Y-102561703D02*
G01*
X122643100Y-102625853D01*
X122782481Y-102718985D01*
X122901015Y-102837519D01*
X122994147Y-102976900D01*
X123058297Y-103131772D01*
X123091000Y-103296184D01*
X123091000Y-103463816D01*
X123058297Y-103628228D01*
X122994147Y-103783100D01*
X122901015Y-103922481D01*
X122782481Y-104041015D01*
X122643100Y-104134147D01*
X122488228Y-104198297D01*
X122323816Y-104231000D01*
X122156184Y-104231000D01*
X121991772Y-104198297D01*
X121836900Y-104134147D01*
X121697519Y-104041015D01*
X121578985Y-103922481D01*
X121485853Y-103783100D01*
X121421703Y-103628228D01*
X121389000Y-103463816D01*
X121389000Y-103296184D01*
X121421703Y-103131772D01*
X121485853Y-102976900D01*
X121578985Y-102837519D01*
X121697519Y-102718985D01*
X121836900Y-102625853D01*
X121991772Y-102561703D01*
X122156184Y-102529000D01*
X122323816Y-102529000D01*
X122488228Y-102561703D01*
G37*
G36*
X119948228Y-102561703D02*
G01*
X120103100Y-102625853D01*
X120242481Y-102718985D01*
X120361015Y-102837519D01*
X120454147Y-102976900D01*
X120518297Y-103131772D01*
X120551000Y-103296184D01*
X120551000Y-103463816D01*
X120518297Y-103628228D01*
X120454147Y-103783100D01*
X120361015Y-103922481D01*
X120242481Y-104041015D01*
X120103100Y-104134147D01*
X119948228Y-104198297D01*
X119783816Y-104231000D01*
X119616184Y-104231000D01*
X119451772Y-104198297D01*
X119296900Y-104134147D01*
X119157519Y-104041015D01*
X119038985Y-103922481D01*
X118945853Y-103783100D01*
X118881703Y-103628228D01*
X118849000Y-103463816D01*
X118849000Y-103296184D01*
X118881703Y-103131772D01*
X118945853Y-102976900D01*
X119038985Y-102837519D01*
X119157519Y-102718985D01*
X119296900Y-102625853D01*
X119451772Y-102561703D01*
X119616184Y-102529000D01*
X119783816Y-102529000D01*
X119948228Y-102561703D01*
G37*
G36*
X114868228Y-102561703D02*
G01*
X115023100Y-102625853D01*
X115162481Y-102718985D01*
X115281015Y-102837519D01*
X115374147Y-102976900D01*
X115438297Y-103131772D01*
X115471000Y-103296184D01*
X115471000Y-103463816D01*
X115438297Y-103628228D01*
X115374147Y-103783100D01*
X115281015Y-103922481D01*
X115162481Y-104041015D01*
X115023100Y-104134147D01*
X114868228Y-104198297D01*
X114703816Y-104231000D01*
X114536184Y-104231000D01*
X114371772Y-104198297D01*
X114216900Y-104134147D01*
X114077519Y-104041015D01*
X113958985Y-103922481D01*
X113865853Y-103783100D01*
X113801703Y-103628228D01*
X113769000Y-103463816D01*
X113769000Y-103296184D01*
X113801703Y-103131772D01*
X113865853Y-102976900D01*
X113958985Y-102837519D01*
X114077519Y-102718985D01*
X114216900Y-102625853D01*
X114371772Y-102561703D01*
X114536184Y-102529000D01*
X114703816Y-102529000D01*
X114868228Y-102561703D01*
G37*
G36*
X117408228Y-102561703D02*
G01*
X117563100Y-102625853D01*
X117702481Y-102718985D01*
X117821015Y-102837519D01*
X117914147Y-102976900D01*
X117978297Y-103131772D01*
X118011000Y-103296184D01*
X118011000Y-103463816D01*
X117978297Y-103628228D01*
X117914147Y-103783100D01*
X117821015Y-103922481D01*
X117702481Y-104041015D01*
X117563100Y-104134147D01*
X117408228Y-104198297D01*
X117243816Y-104231000D01*
X117076184Y-104231000D01*
X116911772Y-104198297D01*
X116756900Y-104134147D01*
X116617519Y-104041015D01*
X116498985Y-103922481D01*
X116405853Y-103783100D01*
X116341703Y-103628228D01*
X116309000Y-103463816D01*
X116309000Y-103296184D01*
X116341703Y-103131772D01*
X116405853Y-102976900D01*
X116498985Y-102837519D01*
X116617519Y-102718985D01*
X116756900Y-102625853D01*
X116911772Y-102561703D01*
X117076184Y-102529000D01*
X117243816Y-102529000D01*
X117408228Y-102561703D01*
G37*
G36*
X107248228Y-102561703D02*
G01*
X107403100Y-102625853D01*
X107542481Y-102718985D01*
X107661015Y-102837519D01*
X107754147Y-102976900D01*
X107818297Y-103131772D01*
X107851000Y-103296184D01*
X107851000Y-103463816D01*
X107818297Y-103628228D01*
X107754147Y-103783100D01*
X107661015Y-103922481D01*
X107542481Y-104041015D01*
X107403100Y-104134147D01*
X107248228Y-104198297D01*
X107083816Y-104231000D01*
X106916184Y-104231000D01*
X106751772Y-104198297D01*
X106596900Y-104134147D01*
X106457519Y-104041015D01*
X106338985Y-103922481D01*
X106245853Y-103783100D01*
X106181703Y-103628228D01*
X106149000Y-103463816D01*
X106149000Y-103296184D01*
X106181703Y-103131772D01*
X106245853Y-102976900D01*
X106338985Y-102837519D01*
X106457519Y-102718985D01*
X106596900Y-102625853D01*
X106751772Y-102561703D01*
X106916184Y-102529000D01*
X107083816Y-102529000D01*
X107248228Y-102561703D01*
G37*
G36*
X112328228Y-102561703D02*
G01*
X112483100Y-102625853D01*
X112622481Y-102718985D01*
X112741015Y-102837519D01*
X112834147Y-102976900D01*
X112898297Y-103131772D01*
X112931000Y-103296184D01*
X112931000Y-103463816D01*
X112898297Y-103628228D01*
X112834147Y-103783100D01*
X112741015Y-103922481D01*
X112622481Y-104041015D01*
X112483100Y-104134147D01*
X112328228Y-104198297D01*
X112163816Y-104231000D01*
X111996184Y-104231000D01*
X111831772Y-104198297D01*
X111676900Y-104134147D01*
X111537519Y-104041015D01*
X111418985Y-103922481D01*
X111325853Y-103783100D01*
X111261703Y-103628228D01*
X111229000Y-103463816D01*
X111229000Y-103296184D01*
X111261703Y-103131772D01*
X111325853Y-102976900D01*
X111418985Y-102837519D01*
X111537519Y-102718985D01*
X111676900Y-102625853D01*
X111831772Y-102561703D01*
X111996184Y-102529000D01*
X112163816Y-102529000D01*
X112328228Y-102561703D01*
G37*
G36*
X109788228Y-102561703D02*
G01*
X109943100Y-102625853D01*
X110082481Y-102718985D01*
X110201015Y-102837519D01*
X110294147Y-102976900D01*
X110358297Y-103131772D01*
X110391000Y-103296184D01*
X110391000Y-103463816D01*
X110358297Y-103628228D01*
X110294147Y-103783100D01*
X110201015Y-103922481D01*
X110082481Y-104041015D01*
X109943100Y-104134147D01*
X109788228Y-104198297D01*
X109623816Y-104231000D01*
X109456184Y-104231000D01*
X109291772Y-104198297D01*
X109136900Y-104134147D01*
X108997519Y-104041015D01*
X108878985Y-103922481D01*
X108785853Y-103783100D01*
X108721703Y-103628228D01*
X108689000Y-103463816D01*
X108689000Y-103296184D01*
X108721703Y-103131772D01*
X108785853Y-102976900D01*
X108878985Y-102837519D01*
X108997519Y-102718985D01*
X109136900Y-102625853D01*
X109291772Y-102561703D01*
X109456184Y-102529000D01*
X109623816Y-102529000D01*
X109788228Y-102561703D01*
G37*
G36*
X164368228Y-99921703D02*
G01*
X164523100Y-99985853D01*
X164662481Y-100078985D01*
X164781015Y-100197519D01*
X164874147Y-100336900D01*
X164938297Y-100491772D01*
X164971000Y-100656184D01*
X164971000Y-100823816D01*
X164938297Y-100988228D01*
X164874147Y-101143100D01*
X164781015Y-101282481D01*
X164662481Y-101401015D01*
X164523100Y-101494147D01*
X164368228Y-101558297D01*
X164203816Y-101591000D01*
X164036184Y-101591000D01*
X163871772Y-101558297D01*
X163716900Y-101494147D01*
X163577519Y-101401015D01*
X163458985Y-101282481D01*
X163365853Y-101143100D01*
X163301703Y-100988228D01*
X163269000Y-100823816D01*
X163269000Y-100656184D01*
X163301703Y-100491772D01*
X163365853Y-100336900D01*
X163458985Y-100197519D01*
X163577519Y-100078985D01*
X163716900Y-99985853D01*
X163871772Y-99921703D01*
X164036184Y-99889000D01*
X164203816Y-99889000D01*
X164368228Y-99921703D01*
G37*
G36*
X156748228Y-99921703D02*
G01*
X156903100Y-99985853D01*
X157042481Y-100078985D01*
X157161015Y-100197519D01*
X157254147Y-100336900D01*
X157318297Y-100491772D01*
X157351000Y-100656184D01*
X157351000Y-100823816D01*
X157318297Y-100988228D01*
X157254147Y-101143100D01*
X157161015Y-101282481D01*
X157042481Y-101401015D01*
X156903100Y-101494147D01*
X156748228Y-101558297D01*
X156583816Y-101591000D01*
X156416184Y-101591000D01*
X156251772Y-101558297D01*
X156096900Y-101494147D01*
X155957519Y-101401015D01*
X155838985Y-101282481D01*
X155745853Y-101143100D01*
X155681703Y-100988228D01*
X155649000Y-100823816D01*
X155649000Y-100656184D01*
X155681703Y-100491772D01*
X155745853Y-100336900D01*
X155838985Y-100197519D01*
X155957519Y-100078985D01*
X156096900Y-99985853D01*
X156251772Y-99921703D01*
X156416184Y-99889000D01*
X156583816Y-99889000D01*
X156748228Y-99921703D01*
G37*
G36*
X164368228Y-97381703D02*
G01*
X164523100Y-97445853D01*
X164662481Y-97538985D01*
X164781015Y-97657519D01*
X164874147Y-97796900D01*
X164938297Y-97951772D01*
X164971000Y-98116184D01*
X164971000Y-98283816D01*
X164938297Y-98448228D01*
X164874147Y-98603100D01*
X164781015Y-98742481D01*
X164662481Y-98861015D01*
X164523100Y-98954147D01*
X164368228Y-99018297D01*
X164203816Y-99051000D01*
X164036184Y-99051000D01*
X163871772Y-99018297D01*
X163716900Y-98954147D01*
X163577519Y-98861015D01*
X163458985Y-98742481D01*
X163365853Y-98603100D01*
X163301703Y-98448228D01*
X163269000Y-98283816D01*
X163269000Y-98116184D01*
X163301703Y-97951772D01*
X163365853Y-97796900D01*
X163458985Y-97657519D01*
X163577519Y-97538985D01*
X163716900Y-97445853D01*
X163871772Y-97381703D01*
X164036184Y-97349000D01*
X164203816Y-97349000D01*
X164368228Y-97381703D01*
G37*
G36*
X156748228Y-97381703D02*
G01*
X156903100Y-97445853D01*
X157042481Y-97538985D01*
X157161015Y-97657519D01*
X157254147Y-97796900D01*
X157318297Y-97951772D01*
X157351000Y-98116184D01*
X157351000Y-98283816D01*
X157318297Y-98448228D01*
X157254147Y-98603100D01*
X157161015Y-98742481D01*
X157042481Y-98861015D01*
X156903100Y-98954147D01*
X156748228Y-99018297D01*
X156583816Y-99051000D01*
X156416184Y-99051000D01*
X156251772Y-99018297D01*
X156096900Y-98954147D01*
X155957519Y-98861015D01*
X155838985Y-98742481D01*
X155745853Y-98603100D01*
X155681703Y-98448228D01*
X155649000Y-98283816D01*
X155649000Y-98116184D01*
X155681703Y-97951772D01*
X155745853Y-97796900D01*
X155838985Y-97657519D01*
X155957519Y-97538985D01*
X156096900Y-97445853D01*
X156251772Y-97381703D01*
X156416184Y-97349000D01*
X156583816Y-97349000D01*
X156748228Y-97381703D01*
G37*
G36*
X164368228Y-94841703D02*
G01*
X164523100Y-94905853D01*
X164662481Y-94998985D01*
X164781015Y-95117519D01*
X164874147Y-95256900D01*
X164938297Y-95411772D01*
X164971000Y-95576184D01*
X164971000Y-95743816D01*
X164938297Y-95908228D01*
X164874147Y-96063100D01*
X164781015Y-96202481D01*
X164662481Y-96321015D01*
X164523100Y-96414147D01*
X164368228Y-96478297D01*
X164203816Y-96511000D01*
X164036184Y-96511000D01*
X163871772Y-96478297D01*
X163716900Y-96414147D01*
X163577519Y-96321015D01*
X163458985Y-96202481D01*
X163365853Y-96063100D01*
X163301703Y-95908228D01*
X163269000Y-95743816D01*
X163269000Y-95576184D01*
X163301703Y-95411772D01*
X163365853Y-95256900D01*
X163458985Y-95117519D01*
X163577519Y-94998985D01*
X163716900Y-94905853D01*
X163871772Y-94841703D01*
X164036184Y-94809000D01*
X164203816Y-94809000D01*
X164368228Y-94841703D01*
G37*
G36*
X156748228Y-94841703D02*
G01*
X156903100Y-94905853D01*
X157042481Y-94998985D01*
X157161015Y-95117519D01*
X157254147Y-95256900D01*
X157318297Y-95411772D01*
X157351000Y-95576184D01*
X157351000Y-95743816D01*
X157318297Y-95908228D01*
X157254147Y-96063100D01*
X157161015Y-96202481D01*
X157042481Y-96321015D01*
X156903100Y-96414147D01*
X156748228Y-96478297D01*
X156583816Y-96511000D01*
X156416184Y-96511000D01*
X156251772Y-96478297D01*
X156096900Y-96414147D01*
X155957519Y-96321015D01*
X155838985Y-96202481D01*
X155745853Y-96063100D01*
X155681703Y-95908228D01*
X155649000Y-95743816D01*
X155649000Y-95576184D01*
X155681703Y-95411772D01*
X155745853Y-95256900D01*
X155838985Y-95117519D01*
X155957519Y-94998985D01*
X156096900Y-94905853D01*
X156251772Y-94841703D01*
X156416184Y-94809000D01*
X156583816Y-94809000D01*
X156748228Y-94841703D01*
G37*
G36*
X175364903Y-92297075D02*
G01*
X175592571Y-92391378D01*
X175797466Y-92528285D01*
X175971715Y-92702534D01*
X176108622Y-92907429D01*
X176202925Y-93135097D01*
X176251000Y-93376787D01*
X176251000Y-93623213D01*
X176202925Y-93864903D01*
X176108622Y-94092571D01*
X175971715Y-94297466D01*
X175797466Y-94471715D01*
X175592571Y-94608622D01*
X175592570Y-94608623D01*
X175592569Y-94608623D01*
X175364903Y-94702925D01*
X175123214Y-94751000D01*
X174876786Y-94751000D01*
X174635097Y-94702925D01*
X174407431Y-94608623D01*
X174407430Y-94608623D01*
X174407429Y-94608622D01*
X174202534Y-94471715D01*
X174028285Y-94297466D01*
X173891378Y-94092571D01*
X173797075Y-93864903D01*
X173749000Y-93623213D01*
X173749000Y-93376787D01*
X173797075Y-93135097D01*
X173891378Y-92907429D01*
X174028285Y-92702534D01*
X174202534Y-92528285D01*
X174407429Y-92391378D01*
X174635097Y-92297075D01*
X174876786Y-92249000D01*
X175123214Y-92249000D01*
X175364903Y-92297075D01*
G37*
G36*
X170299272Y-92513428D02*
G01*
X170485991Y-92590770D01*
X170485993Y-92590771D01*
X170654037Y-92703054D01*
X170796946Y-92845963D01*
X170838016Y-92907429D01*
X170909230Y-93014009D01*
X170986572Y-93200728D01*
X171026000Y-93398947D01*
X171026000Y-93601053D01*
X170986572Y-93799272D01*
X170909230Y-93985991D01*
X170909229Y-93985993D01*
X170796946Y-94154037D01*
X170654037Y-94296946D01*
X170485993Y-94409229D01*
X170485992Y-94409230D01*
X170485991Y-94409230D01*
X170299272Y-94486572D01*
X170101053Y-94526000D01*
X169898947Y-94526000D01*
X169700728Y-94486572D01*
X169514009Y-94409230D01*
X169514008Y-94409230D01*
X169514007Y-94409229D01*
X169345963Y-94296946D01*
X169203054Y-94154037D01*
X169090771Y-93985993D01*
X169090770Y-93985991D01*
X169013428Y-93799272D01*
X168974000Y-93601053D01*
X168974000Y-93398947D01*
X169013428Y-93200728D01*
X169090770Y-93014009D01*
X169161984Y-92907429D01*
X169203054Y-92845963D01*
X169345963Y-92703054D01*
X169514007Y-92590771D01*
X169514009Y-92590770D01*
X169700728Y-92513428D01*
X169898947Y-92474000D01*
X170101053Y-92474000D01*
X170299272Y-92513428D01*
G37*
G36*
X164368228Y-92301703D02*
G01*
X164523100Y-92365853D01*
X164662481Y-92458985D01*
X164781015Y-92577519D01*
X164874147Y-92716900D01*
X164938297Y-92871772D01*
X164971000Y-93036184D01*
X164971000Y-93203816D01*
X164938297Y-93368228D01*
X164874147Y-93523100D01*
X164781015Y-93662481D01*
X164662481Y-93781015D01*
X164523100Y-93874147D01*
X164368228Y-93938297D01*
X164203816Y-93971000D01*
X164036184Y-93971000D01*
X163871772Y-93938297D01*
X163716900Y-93874147D01*
X163577519Y-93781015D01*
X163458985Y-93662481D01*
X163365853Y-93523100D01*
X163301703Y-93368228D01*
X163269000Y-93203816D01*
X163269000Y-93036184D01*
X163301703Y-92871772D01*
X163365853Y-92716900D01*
X163458985Y-92577519D01*
X163577519Y-92458985D01*
X163716900Y-92365853D01*
X163871772Y-92301703D01*
X164036184Y-92269000D01*
X164203816Y-92269000D01*
X164368228Y-92301703D01*
G37*
G36*
X156748228Y-92301703D02*
G01*
X156903100Y-92365853D01*
X157042481Y-92458985D01*
X157161015Y-92577519D01*
X157254147Y-92716900D01*
X157318297Y-92871772D01*
X157351000Y-93036184D01*
X157351000Y-93203816D01*
X157318297Y-93368228D01*
X157254147Y-93523100D01*
X157161015Y-93662481D01*
X157042481Y-93781015D01*
X156903100Y-93874147D01*
X156748228Y-93938297D01*
X156583816Y-93971000D01*
X156416184Y-93971000D01*
X156251772Y-93938297D01*
X156096900Y-93874147D01*
X155957519Y-93781015D01*
X155838985Y-93662481D01*
X155745853Y-93523100D01*
X155681703Y-93368228D01*
X155649000Y-93203816D01*
X155649000Y-93036184D01*
X155681703Y-92871772D01*
X155745853Y-92716900D01*
X155838985Y-92577519D01*
X155957519Y-92458985D01*
X156096900Y-92365853D01*
X156251772Y-92301703D01*
X156416184Y-92269000D01*
X156583816Y-92269000D01*
X156748228Y-92301703D01*
G37*
G36*
X164368228Y-89761703D02*
G01*
X164523100Y-89825853D01*
X164662481Y-89918985D01*
X164781015Y-90037519D01*
X164874147Y-90176900D01*
X164938297Y-90331772D01*
X164971000Y-90496184D01*
X164971000Y-90663816D01*
X164938297Y-90828228D01*
X164874147Y-90983100D01*
X164781015Y-91122481D01*
X164662481Y-91241015D01*
X164523100Y-91334147D01*
X164368228Y-91398297D01*
X164203816Y-91431000D01*
X164036184Y-91431000D01*
X163871772Y-91398297D01*
X163716900Y-91334147D01*
X163577519Y-91241015D01*
X163458985Y-91122481D01*
X163365853Y-90983100D01*
X163301703Y-90828228D01*
X163269000Y-90663816D01*
X163269000Y-90496184D01*
X163301703Y-90331772D01*
X163365853Y-90176900D01*
X163458985Y-90037519D01*
X163577519Y-89918985D01*
X163716900Y-89825853D01*
X163871772Y-89761703D01*
X164036184Y-89729000D01*
X164203816Y-89729000D01*
X164368228Y-89761703D01*
G37*
G36*
X156748228Y-89761703D02*
G01*
X156903100Y-89825853D01*
X157042481Y-89918985D01*
X157161015Y-90037519D01*
X157254147Y-90176900D01*
X157318297Y-90331772D01*
X157351000Y-90496184D01*
X157351000Y-90663816D01*
X157318297Y-90828228D01*
X157254147Y-90983100D01*
X157161015Y-91122481D01*
X157042481Y-91241015D01*
X156903100Y-91334147D01*
X156748228Y-91398297D01*
X156583816Y-91431000D01*
X156416184Y-91431000D01*
X156251772Y-91398297D01*
X156096900Y-91334147D01*
X155957519Y-91241015D01*
X155838985Y-91122481D01*
X155745853Y-90983100D01*
X155681703Y-90828228D01*
X155649000Y-90663816D01*
X155649000Y-90496184D01*
X155681703Y-90331772D01*
X155745853Y-90176900D01*
X155838985Y-90037519D01*
X155957519Y-89918985D01*
X156096900Y-89825853D01*
X156251772Y-89761703D01*
X156416184Y-89729000D01*
X156583816Y-89729000D01*
X156748228Y-89761703D01*
G37*
G36*
X170308481Y-87285852D02*
G01*
X170364903Y-87297075D01*
X170592571Y-87391378D01*
X170797466Y-87528285D01*
X170971715Y-87702534D01*
X171108622Y-87907429D01*
X171202925Y-88135097D01*
X171251000Y-88376787D01*
X171251000Y-88623213D01*
X171202925Y-88864903D01*
X171108622Y-89092571D01*
X170971715Y-89297466D01*
X170797466Y-89471715D01*
X170592571Y-89608622D01*
X170592570Y-89608623D01*
X170592569Y-89608623D01*
X170364903Y-89702925D01*
X170123214Y-89751000D01*
X169876786Y-89751000D01*
X169635097Y-89702925D01*
X169407431Y-89608623D01*
X169407430Y-89608623D01*
X169407429Y-89608622D01*
X169202534Y-89471715D01*
X169028285Y-89297466D01*
X168891378Y-89092571D01*
X168797075Y-88864903D01*
X168749000Y-88623213D01*
X168749000Y-88376787D01*
X168797075Y-88135097D01*
X168891378Y-87907429D01*
X169028285Y-87702534D01*
X169202534Y-87528285D01*
X169407429Y-87391378D01*
X169635097Y-87297075D01*
X169691519Y-87285852D01*
X169876786Y-87249000D01*
X170123214Y-87249000D01*
X170308481Y-87285852D01*
G37*
G36*
X175299272Y-87513428D02*
G01*
X175485991Y-87590770D01*
X175485993Y-87590771D01*
X175654037Y-87703054D01*
X175796946Y-87845963D01*
X175909229Y-88014007D01*
X175909230Y-88014009D01*
X175986572Y-88200728D01*
X176026000Y-88398947D01*
X176026000Y-88601053D01*
X175986572Y-88799272D01*
X175909230Y-88985991D01*
X175909229Y-88985993D01*
X175796946Y-89154037D01*
X175654037Y-89296946D01*
X175485993Y-89409229D01*
X175485992Y-89409230D01*
X175485991Y-89409230D01*
X175299272Y-89486572D01*
X175101053Y-89526000D01*
X174898947Y-89526000D01*
X174700728Y-89486572D01*
X174514009Y-89409230D01*
X174514008Y-89409230D01*
X174514007Y-89409229D01*
X174345963Y-89296946D01*
X174203054Y-89154037D01*
X174090771Y-88985993D01*
X174090770Y-88985991D01*
X174013428Y-88799272D01*
X173974000Y-88601053D01*
X173974000Y-88398947D01*
X174013428Y-88200728D01*
X174090770Y-88014009D01*
X174090771Y-88014007D01*
X174203054Y-87845963D01*
X174345963Y-87703054D01*
X174514007Y-87590771D01*
X174514009Y-87590770D01*
X174700728Y-87513428D01*
X174898947Y-87474000D01*
X175101053Y-87474000D01*
X175299272Y-87513428D01*
G37*
G36*
X164368228Y-87221703D02*
G01*
X164523100Y-87285853D01*
X164662481Y-87378985D01*
X164781015Y-87497519D01*
X164874147Y-87636900D01*
X164938297Y-87791772D01*
X164971000Y-87956184D01*
X164971000Y-88123816D01*
X164938297Y-88288228D01*
X164874147Y-88443100D01*
X164781015Y-88582481D01*
X164662481Y-88701015D01*
X164523100Y-88794147D01*
X164368228Y-88858297D01*
X164203816Y-88891000D01*
X164036184Y-88891000D01*
X163871772Y-88858297D01*
X163716900Y-88794147D01*
X163577519Y-88701015D01*
X163458985Y-88582481D01*
X163365853Y-88443100D01*
X163301703Y-88288228D01*
X163269000Y-88123816D01*
X163269000Y-87956184D01*
X163301703Y-87791772D01*
X163365853Y-87636900D01*
X163458985Y-87497519D01*
X163577519Y-87378985D01*
X163716900Y-87285853D01*
X163871772Y-87221703D01*
X164036184Y-87189000D01*
X164203816Y-87189000D01*
X164368228Y-87221703D01*
G37*
G36*
X156748228Y-87221703D02*
G01*
X156903100Y-87285853D01*
X157042481Y-87378985D01*
X157161015Y-87497519D01*
X157254147Y-87636900D01*
X157318297Y-87791772D01*
X157351000Y-87956184D01*
X157351000Y-88123816D01*
X157318297Y-88288228D01*
X157254147Y-88443100D01*
X157161015Y-88582481D01*
X157042481Y-88701015D01*
X156903100Y-88794147D01*
X156748228Y-88858297D01*
X156583816Y-88891000D01*
X156416184Y-88891000D01*
X156251772Y-88858297D01*
X156096900Y-88794147D01*
X155957519Y-88701015D01*
X155838985Y-88582481D01*
X155745853Y-88443100D01*
X155681703Y-88288228D01*
X155649000Y-88123816D01*
X155649000Y-87956184D01*
X155681703Y-87791772D01*
X155745853Y-87636900D01*
X155838985Y-87497519D01*
X155957519Y-87378985D01*
X156096900Y-87285853D01*
X156251772Y-87221703D01*
X156416184Y-87189000D01*
X156583816Y-87189000D01*
X156748228Y-87221703D01*
G37*
G36*
X157351000Y-86351000D02*
G01*
X155649000Y-86351000D01*
X155649000Y-84649000D01*
X157351000Y-84649000D01*
X157351000Y-86351000D01*
G37*
G36*
X164368228Y-84681703D02*
G01*
X164523100Y-84745853D01*
X164662481Y-84838985D01*
X164781015Y-84957519D01*
X164874147Y-85096900D01*
X164938297Y-85251772D01*
X164971000Y-85416184D01*
X164971000Y-85583816D01*
X164938297Y-85748228D01*
X164874147Y-85903100D01*
X164781015Y-86042481D01*
X164662481Y-86161015D01*
X164523100Y-86254147D01*
X164368228Y-86318297D01*
X164203816Y-86351000D01*
X164036184Y-86351000D01*
X163871772Y-86318297D01*
X163716900Y-86254147D01*
X163577519Y-86161015D01*
X163458985Y-86042481D01*
X163365853Y-85903100D01*
X163301703Y-85748228D01*
X163269000Y-85583816D01*
X163269000Y-85416184D01*
X163301703Y-85251772D01*
X163365853Y-85096900D01*
X163458985Y-84957519D01*
X163577519Y-84838985D01*
X163716900Y-84745853D01*
X163871772Y-84681703D01*
X164036184Y-84649000D01*
X164203816Y-84649000D01*
X164368228Y-84681703D01*
G37*
G36*
X175364903Y-82297075D02*
G01*
X175592571Y-82391378D01*
X175797466Y-82528285D01*
X175971715Y-82702534D01*
X176108622Y-82907429D01*
X176202925Y-83135097D01*
X176251000Y-83376787D01*
X176251000Y-83623213D01*
X176202925Y-83864903D01*
X176108622Y-84092571D01*
X175971715Y-84297466D01*
X175797466Y-84471715D01*
X175592571Y-84608622D01*
X175592570Y-84608623D01*
X175592569Y-84608623D01*
X175364903Y-84702925D01*
X175123214Y-84751000D01*
X174876786Y-84751000D01*
X174635097Y-84702925D01*
X174407431Y-84608623D01*
X174407430Y-84608623D01*
X174407429Y-84608622D01*
X174202534Y-84471715D01*
X174028285Y-84297466D01*
X173891378Y-84092571D01*
X173797075Y-83864903D01*
X173749000Y-83623213D01*
X173749000Y-83376787D01*
X173797075Y-83135097D01*
X173891378Y-82907429D01*
X174028285Y-82702534D01*
X174202534Y-82528285D01*
X174407429Y-82391378D01*
X174635097Y-82297075D01*
X174876786Y-82249000D01*
X175123214Y-82249000D01*
X175364903Y-82297075D01*
G37*
G36*
X170299272Y-82513428D02*
G01*
X170485991Y-82590770D01*
X170485993Y-82590771D01*
X170654037Y-82703054D01*
X170796946Y-82845963D01*
X170838016Y-82907429D01*
X170909230Y-83014009D01*
X170986572Y-83200728D01*
X171026000Y-83398947D01*
X171026000Y-83601053D01*
X170986572Y-83799272D01*
X170909230Y-83985991D01*
X170909229Y-83985993D01*
X170796946Y-84154037D01*
X170654037Y-84296946D01*
X170485993Y-84409229D01*
X170485992Y-84409230D01*
X170485991Y-84409230D01*
X170299272Y-84486572D01*
X170101053Y-84526000D01*
X169898947Y-84526000D01*
X169700728Y-84486572D01*
X169514009Y-84409230D01*
X169514008Y-84409230D01*
X169514007Y-84409229D01*
X169345963Y-84296946D01*
X169203054Y-84154037D01*
X169090771Y-83985993D01*
X169090770Y-83985991D01*
X169013428Y-83799272D01*
X168974000Y-83601053D01*
X168974000Y-83398947D01*
X169013428Y-83200728D01*
X169090770Y-83014009D01*
X169161984Y-82907429D01*
X169203054Y-82845963D01*
X169345963Y-82703054D01*
X169514007Y-82590771D01*
X169514009Y-82590770D01*
X169700728Y-82513428D01*
X169898947Y-82474000D01*
X170101053Y-82474000D01*
X170299272Y-82513428D01*
G37*
G36*
X125958228Y-77501703D02*
G01*
X126113100Y-77565853D01*
X126252481Y-77658985D01*
X126371015Y-77777519D01*
X126464147Y-77916900D01*
X126528297Y-78071772D01*
X126561000Y-78236184D01*
X126561000Y-78403816D01*
X126528297Y-78568228D01*
X126464147Y-78723100D01*
X126371015Y-78862481D01*
X126252481Y-78981015D01*
X126113100Y-79074147D01*
X125958228Y-79138297D01*
X125793816Y-79171000D01*
X125626184Y-79171000D01*
X125461772Y-79138297D01*
X125306900Y-79074147D01*
X125167519Y-78981015D01*
X125048985Y-78862481D01*
X124955853Y-78723100D01*
X124891703Y-78568228D01*
X124859000Y-78403816D01*
X124859000Y-78236184D01*
X124891703Y-78071772D01*
X124955853Y-77916900D01*
X125048985Y-77777519D01*
X125167519Y-77658985D01*
X125306900Y-77565853D01*
X125461772Y-77501703D01*
X125626184Y-77469000D01*
X125793816Y-77469000D01*
X125958228Y-77501703D01*
G37*
G36*
X120878228Y-77501703D02*
G01*
X121033100Y-77565853D01*
X121172481Y-77658985D01*
X121291015Y-77777519D01*
X121384147Y-77916900D01*
X121448297Y-78071772D01*
X121481000Y-78236184D01*
X121481000Y-78403816D01*
X121448297Y-78568228D01*
X121384147Y-78723100D01*
X121291015Y-78862481D01*
X121172481Y-78981015D01*
X121033100Y-79074147D01*
X120878228Y-79138297D01*
X120713816Y-79171000D01*
X120546184Y-79171000D01*
X120381772Y-79138297D01*
X120226900Y-79074147D01*
X120087519Y-78981015D01*
X119968985Y-78862481D01*
X119875853Y-78723100D01*
X119811703Y-78568228D01*
X119779000Y-78403816D01*
X119779000Y-78236184D01*
X119811703Y-78071772D01*
X119875853Y-77916900D01*
X119968985Y-77777519D01*
X120087519Y-77658985D01*
X120226900Y-77565853D01*
X120381772Y-77501703D01*
X120546184Y-77469000D01*
X120713816Y-77469000D01*
X120878228Y-77501703D01*
G37*
G36*
X123418228Y-77501703D02*
G01*
X123573100Y-77565853D01*
X123712481Y-77658985D01*
X123831015Y-77777519D01*
X123924147Y-77916900D01*
X123988297Y-78071772D01*
X124021000Y-78236184D01*
X124021000Y-78403816D01*
X123988297Y-78568228D01*
X123924147Y-78723100D01*
X123831015Y-78862481D01*
X123712481Y-78981015D01*
X123573100Y-79074147D01*
X123418228Y-79138297D01*
X123253816Y-79171000D01*
X123086184Y-79171000D01*
X122921772Y-79138297D01*
X122766900Y-79074147D01*
X122627519Y-78981015D01*
X122508985Y-78862481D01*
X122415853Y-78723100D01*
X122351703Y-78568228D01*
X122319000Y-78403816D01*
X122319000Y-78236184D01*
X122351703Y-78071772D01*
X122415853Y-77916900D01*
X122508985Y-77777519D01*
X122627519Y-77658985D01*
X122766900Y-77565853D01*
X122921772Y-77501703D01*
X123086184Y-77469000D01*
X123253816Y-77469000D01*
X123418228Y-77501703D01*
G37*
G36*
X128498228Y-77501703D02*
G01*
X128653100Y-77565853D01*
X128792481Y-77658985D01*
X128911015Y-77777519D01*
X129004147Y-77916900D01*
X129068297Y-78071772D01*
X129101000Y-78236184D01*
X129101000Y-78403816D01*
X129068297Y-78568228D01*
X129004147Y-78723100D01*
X128911015Y-78862481D01*
X128792481Y-78981015D01*
X128653100Y-79074147D01*
X128498228Y-79138297D01*
X128333816Y-79171000D01*
X128166184Y-79171000D01*
X128001772Y-79138297D01*
X127846900Y-79074147D01*
X127707519Y-78981015D01*
X127588985Y-78862481D01*
X127495853Y-78723100D01*
X127431703Y-78568228D01*
X127399000Y-78403816D01*
X127399000Y-78236184D01*
X127431703Y-78071772D01*
X127495853Y-77916900D01*
X127588985Y-77777519D01*
X127707519Y-77658985D01*
X127846900Y-77565853D01*
X128001772Y-77501703D01*
X128166184Y-77469000D01*
X128333816Y-77469000D01*
X128498228Y-77501703D01*
G37*
G36*
X113258228Y-77501703D02*
G01*
X113413100Y-77565853D01*
X113552481Y-77658985D01*
X113671015Y-77777519D01*
X113764147Y-77916900D01*
X113828297Y-78071772D01*
X113861000Y-78236184D01*
X113861000Y-78403816D01*
X113828297Y-78568228D01*
X113764147Y-78723100D01*
X113671015Y-78862481D01*
X113552481Y-78981015D01*
X113413100Y-79074147D01*
X113258228Y-79138297D01*
X113093816Y-79171000D01*
X112926184Y-79171000D01*
X112761772Y-79138297D01*
X112606900Y-79074147D01*
X112467519Y-78981015D01*
X112348985Y-78862481D01*
X112255853Y-78723100D01*
X112191703Y-78568228D01*
X112159000Y-78403816D01*
X112159000Y-78236184D01*
X112191703Y-78071772D01*
X112255853Y-77916900D01*
X112348985Y-77777519D01*
X112467519Y-77658985D01*
X112606900Y-77565853D01*
X112761772Y-77501703D01*
X112926184Y-77469000D01*
X113093816Y-77469000D01*
X113258228Y-77501703D01*
G37*
G36*
X118338228Y-77501703D02*
G01*
X118493100Y-77565853D01*
X118632481Y-77658985D01*
X118751015Y-77777519D01*
X118844147Y-77916900D01*
X118908297Y-78071772D01*
X118941000Y-78236184D01*
X118941000Y-78403816D01*
X118908297Y-78568228D01*
X118844147Y-78723100D01*
X118751015Y-78862481D01*
X118632481Y-78981015D01*
X118493100Y-79074147D01*
X118338228Y-79138297D01*
X118173816Y-79171000D01*
X118006184Y-79171000D01*
X117841772Y-79138297D01*
X117686900Y-79074147D01*
X117547519Y-78981015D01*
X117428985Y-78862481D01*
X117335853Y-78723100D01*
X117271703Y-78568228D01*
X117239000Y-78403816D01*
X117239000Y-78236184D01*
X117271703Y-78071772D01*
X117335853Y-77916900D01*
X117428985Y-77777519D01*
X117547519Y-77658985D01*
X117686900Y-77565853D01*
X117841772Y-77501703D01*
X118006184Y-77469000D01*
X118173816Y-77469000D01*
X118338228Y-77501703D01*
G37*
G36*
X115798228Y-77501703D02*
G01*
X115953100Y-77565853D01*
X116092481Y-77658985D01*
X116211015Y-77777519D01*
X116304147Y-77916900D01*
X116368297Y-78071772D01*
X116401000Y-78236184D01*
X116401000Y-78403816D01*
X116368297Y-78568228D01*
X116304147Y-78723100D01*
X116211015Y-78862481D01*
X116092481Y-78981015D01*
X115953100Y-79074147D01*
X115798228Y-79138297D01*
X115633816Y-79171000D01*
X115466184Y-79171000D01*
X115301772Y-79138297D01*
X115146900Y-79074147D01*
X115007519Y-78981015D01*
X114888985Y-78862481D01*
X114795853Y-78723100D01*
X114731703Y-78568228D01*
X114699000Y-78403816D01*
X114699000Y-78236184D01*
X114731703Y-78071772D01*
X114795853Y-77916900D01*
X114888985Y-77777519D01*
X115007519Y-77658985D01*
X115146900Y-77565853D01*
X115301772Y-77501703D01*
X115466184Y-77469000D01*
X115633816Y-77469000D01*
X115798228Y-77501703D01*
G37*
G36*
X115798228Y-69881703D02*
G01*
X115953100Y-69945853D01*
X116092481Y-70038985D01*
X116211015Y-70157519D01*
X116304147Y-70296900D01*
X116368297Y-70451772D01*
X116401000Y-70616184D01*
X116401000Y-70783816D01*
X116368297Y-70948228D01*
X116304147Y-71103100D01*
X116211015Y-71242481D01*
X116092481Y-71361015D01*
X115953100Y-71454147D01*
X115798228Y-71518297D01*
X115633816Y-71551000D01*
X115466184Y-71551000D01*
X115301772Y-71518297D01*
X115146900Y-71454147D01*
X115007519Y-71361015D01*
X114888985Y-71242481D01*
X114795853Y-71103100D01*
X114731703Y-70948228D01*
X114699000Y-70783816D01*
X114699000Y-70616184D01*
X114731703Y-70451772D01*
X114795853Y-70296900D01*
X114888985Y-70157519D01*
X115007519Y-70038985D01*
X115146900Y-69945853D01*
X115301772Y-69881703D01*
X115466184Y-69849000D01*
X115633816Y-69849000D01*
X115798228Y-69881703D01*
G37*
G36*
X129101000Y-71551000D02*
G01*
X127399000Y-71551000D01*
X127399000Y-69849000D01*
X129101000Y-69849000D01*
X129101000Y-71551000D01*
G37*
G36*
X113258228Y-69881703D02*
G01*
X113413100Y-69945853D01*
X113552481Y-70038985D01*
X113671015Y-70157519D01*
X113764147Y-70296900D01*
X113828297Y-70451772D01*
X113861000Y-70616184D01*
X113861000Y-70783816D01*
X113828297Y-70948228D01*
X113764147Y-71103100D01*
X113671015Y-71242481D01*
X113552481Y-71361015D01*
X113413100Y-71454147D01*
X113258228Y-71518297D01*
X113093816Y-71551000D01*
X112926184Y-71551000D01*
X112761772Y-71518297D01*
X112606900Y-71454147D01*
X112467519Y-71361015D01*
X112348985Y-71242481D01*
X112255853Y-71103100D01*
X112191703Y-70948228D01*
X112159000Y-70783816D01*
X112159000Y-70616184D01*
X112191703Y-70451772D01*
X112255853Y-70296900D01*
X112348985Y-70157519D01*
X112467519Y-70038985D01*
X112606900Y-69945853D01*
X112761772Y-69881703D01*
X112926184Y-69849000D01*
X113093816Y-69849000D01*
X113258228Y-69881703D01*
G37*
G36*
X118338228Y-69881703D02*
G01*
X118493100Y-69945853D01*
X118632481Y-70038985D01*
X118751015Y-70157519D01*
X118844147Y-70296900D01*
X118908297Y-70451772D01*
X118941000Y-70616184D01*
X118941000Y-70783816D01*
X118908297Y-70948228D01*
X118844147Y-71103100D01*
X118751015Y-71242481D01*
X118632481Y-71361015D01*
X118493100Y-71454147D01*
X118338228Y-71518297D01*
X118173816Y-71551000D01*
X118006184Y-71551000D01*
X117841772Y-71518297D01*
X117686900Y-71454147D01*
X117547519Y-71361015D01*
X117428985Y-71242481D01*
X117335853Y-71103100D01*
X117271703Y-70948228D01*
X117239000Y-70783816D01*
X117239000Y-70616184D01*
X117271703Y-70451772D01*
X117335853Y-70296900D01*
X117428985Y-70157519D01*
X117547519Y-70038985D01*
X117686900Y-69945853D01*
X117841772Y-69881703D01*
X118006184Y-69849000D01*
X118173816Y-69849000D01*
X118338228Y-69881703D01*
G37*
G36*
X120878228Y-69881703D02*
G01*
X121033100Y-69945853D01*
X121172481Y-70038985D01*
X121291015Y-70157519D01*
X121384147Y-70296900D01*
X121448297Y-70451772D01*
X121481000Y-70616184D01*
X121481000Y-70783816D01*
X121448297Y-70948228D01*
X121384147Y-71103100D01*
X121291015Y-71242481D01*
X121172481Y-71361015D01*
X121033100Y-71454147D01*
X120878228Y-71518297D01*
X120713816Y-71551000D01*
X120546184Y-71551000D01*
X120381772Y-71518297D01*
X120226900Y-71454147D01*
X120087519Y-71361015D01*
X119968985Y-71242481D01*
X119875853Y-71103100D01*
X119811703Y-70948228D01*
X119779000Y-70783816D01*
X119779000Y-70616184D01*
X119811703Y-70451772D01*
X119875853Y-70296900D01*
X119968985Y-70157519D01*
X120087519Y-70038985D01*
X120226900Y-69945853D01*
X120381772Y-69881703D01*
X120546184Y-69849000D01*
X120713816Y-69849000D01*
X120878228Y-69881703D01*
G37*
G36*
X123418228Y-69881703D02*
G01*
X123573100Y-69945853D01*
X123712481Y-70038985D01*
X123831015Y-70157519D01*
X123924147Y-70296900D01*
X123988297Y-70451772D01*
X124021000Y-70616184D01*
X124021000Y-70783816D01*
X123988297Y-70948228D01*
X123924147Y-71103100D01*
X123831015Y-71242481D01*
X123712481Y-71361015D01*
X123573100Y-71454147D01*
X123418228Y-71518297D01*
X123253816Y-71551000D01*
X123086184Y-71551000D01*
X122921772Y-71518297D01*
X122766900Y-71454147D01*
X122627519Y-71361015D01*
X122508985Y-71242481D01*
X122415853Y-71103100D01*
X122351703Y-70948228D01*
X122319000Y-70783816D01*
X122319000Y-70616184D01*
X122351703Y-70451772D01*
X122415853Y-70296900D01*
X122508985Y-70157519D01*
X122627519Y-70038985D01*
X122766900Y-69945853D01*
X122921772Y-69881703D01*
X123086184Y-69849000D01*
X123253816Y-69849000D01*
X123418228Y-69881703D01*
G37*
G36*
X125958228Y-69881703D02*
G01*
X126113100Y-69945853D01*
X126252481Y-70038985D01*
X126371015Y-70157519D01*
X126464147Y-70296900D01*
X126528297Y-70451772D01*
X126561000Y-70616184D01*
X126561000Y-70783816D01*
X126528297Y-70948228D01*
X126464147Y-71103100D01*
X126371015Y-71242481D01*
X126252481Y-71361015D01*
X126113100Y-71454147D01*
X125958228Y-71518297D01*
X125793816Y-71551000D01*
X125626184Y-71551000D01*
X125461772Y-71518297D01*
X125306900Y-71454147D01*
X125167519Y-71361015D01*
X125048985Y-71242481D01*
X124955853Y-71103100D01*
X124891703Y-70948228D01*
X124859000Y-70783816D01*
X124859000Y-70616184D01*
X124891703Y-70451772D01*
X124955853Y-70296900D01*
X125048985Y-70157519D01*
X125167519Y-70038985D01*
X125306900Y-69945853D01*
X125461772Y-69881703D01*
X125626184Y-69849000D01*
X125793816Y-69849000D01*
X125958228Y-69881703D01*
G37*
M02*
