M48
; DRILL file {KiCad (5.1.5)-3} date 3.10.2021 17.07.46
; FORMAT={-:-/ absolute / inch / decimal}
; #@! TF.CreationDate,2021-10-03T17:07:46+03:00
; #@! TF.GenerationSoftware,Kicad,Pcbnew,(5.1.5)-3
; #@! TF.FileFunction,Plated,1,2,PTH
FMAT,2
INCH
T1C0.0157
T2C0.0197
T3C0.0315
T4C0.0512
T5C0.0630
%
G90
G05
T1
X4.0157Y-2.7953
X4.0157Y-2.9528
X4.0157Y-3.1102
X4.0157Y-3.2677
X4.0157Y-3.4252
X4.0157Y-3.5827
X4.0157Y-3.7402
X4.0157Y-3.8976
X4.1118Y-4.5276
X4.1732Y-2.7953
X4.1732Y-2.9528
X4.1732Y-3.1102
X4.1732Y-3.2677
X4.1732Y-3.4252
X4.1732Y-3.5827
X4.1732Y-3.7402
X4.2126Y-3.9764
X4.2126Y-4.1732
X4.2559Y-4.1732
X4.311Y-3.7008
X4.311Y-3.9764
X4.3307Y-2.7953
X4.3307Y-2.9528
X4.3307Y-3.1102
X4.3307Y-3.2677
X4.3307Y-3.4252
X4.3504Y-3.6024
X4.3504Y-3.878
X4.3701Y-3.9764
X4.3898Y-3.5039
X4.3898Y-3.7795
X4.4094Y-3.8583
X4.4094Y-4.1732
X4.4606Y-4.122
X4.4882Y-2.9528
X4.5276Y-3.5827
X4.5276Y-3.9764
X4.6063Y-3.5039
X4.6063Y-3.5433
X4.6063Y-4.1732
X4.6457Y-2.9528
X4.6654Y-4.2323
X4.685Y-3.4646
X4.7913Y-4.2323
X4.8031Y-2.9528
X4.8031Y-3.5827
X4.8524Y-3.8583
X4.8994Y-3.2283
X4.8994Y-3.4291
X4.9016Y-4.2323
X4.9606Y-2.9528
X4.9606Y-3.5827
X5.0Y-3.8583
X5.0236Y-3.4567
X5.0236Y-3.626
X5.063Y-3.626
X5.063Y-3.8583
X5.1024Y-3.626
X5.1024Y-3.8504
X5.1417Y-3.626
X5.2441Y-3.8504
X5.2756Y-2.7953
X5.2756Y-2.9528
X5.2756Y-3.1102
X5.2756Y-3.2677
X5.2756Y-3.4252
X5.2756Y-3.5827
X5.2756Y-3.7402
X5.2756Y-4.3701
X5.2756Y-4.4488
X5.3543Y-4.3701
X5.3543Y-4.4488
X5.4331Y-2.7953
X5.4331Y-2.9528
X5.4331Y-3.1102
X5.4331Y-3.2677
X5.4331Y-3.7402
X5.4331Y-3.8976
X5.5906Y-2.7953
X5.5906Y-2.9528
X5.5906Y-3.1102
X5.5906Y-3.2677
X5.5906Y-3.4252
X5.5906Y-3.8976
X5.5906Y-4.0551
X5.6693Y-3.8189
X5.7087Y-3.622
X5.7087Y-3.7008
X5.7087Y-3.8583
X5.7118Y-4.3701
X5.748Y-2.7953
X5.748Y-2.9528
X5.748Y-3.1102
X5.748Y-3.2677
X5.748Y-4.0551
X5.748Y-4.2126
X5.7638Y-4.3976
X5.7677Y-3.6864
X5.7677Y-3.878
X5.8118Y-4.3701
X5.9055Y-2.7953
X5.9055Y-2.9528
X5.9055Y-3.1102
X5.9055Y-3.2677
X5.9055Y-3.4252
X5.9055Y-3.5433
X5.9055Y-3.6364
X5.9055Y-3.7008
X5.9055Y-4.0551
X5.9055Y-4.2126
X5.9843Y-3.6417
X6.0236Y-3.5433
X6.0531Y-3.7161
X6.063Y-2.7953
X6.063Y-2.9528
X6.063Y-3.1102
X6.063Y-3.2677
X6.063Y-4.0551
X6.063Y-4.2126
X6.063Y-4.3701
X6.0827Y-3.4864
X6.2205Y-2.7953
X6.2205Y-2.9528
X6.2205Y-3.1102
X6.2992Y-3.3858
X6.2992Y-3.4646
X6.2992Y-3.5433
X6.2992Y-3.6614
X6.2992Y-3.7795
X6.2992Y-3.8583
X6.2992Y-3.937
X6.3386Y-4.1339
X6.3386Y-4.2913
X6.378Y-2.7953
X6.378Y-2.9528
X6.378Y-3.1102
X6.4961Y-4.1339
X6.4961Y-4.2913
X6.5354Y-2.7953
X6.5354Y-2.9528
X6.5354Y-3.1102
X6.5354Y-3.2677
X6.6535Y-3.8189
X6.6535Y-3.9764
X6.6535Y-4.1339
X6.6535Y-4.2913
X6.6929Y-2.7953
X6.6929Y-2.9528
X6.6929Y-3.1102
X6.811Y-3.3465
X6.811Y-3.5039
X6.811Y-3.6614
X6.811Y-3.8189
X6.811Y-3.9764
X6.811Y-4.1339
X6.811Y-4.2913
X6.8504Y-2.7953
X6.8504Y-2.9528
X6.8504Y-3.1102
X6.9118Y-4.4488
X6.9685Y-3.3465
X6.9685Y-3.5039
X6.9685Y-3.6614
X6.9685Y-3.8189
X6.9685Y-3.9764
X6.9685Y-4.1339
X6.9685Y-4.2913
X7.0079Y-2.7953
X7.0079Y-2.9528
X7.0079Y-3.1102
T2
X4.4494Y-3.2762
X5.3937Y-3.5906
X5.4724Y-3.5906
X5.6299Y-3.3858
X5.9646Y-3.9409
X6.0433Y-3.3071
X6.0433Y-3.9409
X6.2118Y-4.3307
X6.2402Y-3.248
X6.5709Y-3.9409
X6.8118Y-4.3701
T3
X6.1614Y-3.3661
X6.1614Y-3.4661
X6.1614Y-3.5661
X6.1614Y-3.6661
X6.1614Y-3.7661
X6.1614Y-3.8661
X6.1614Y-3.9661
X6.4614Y-3.3661
X6.4614Y-3.4661
X6.4614Y-3.5661
X6.4614Y-3.6661
X6.4614Y-3.7661
X6.4614Y-3.8661
X6.4614Y-3.9661
X4.4492Y-2.7835
X4.4492Y-3.0835
X4.5492Y-2.7835
X4.5492Y-3.0835
X4.6492Y-2.7835
X4.6492Y-3.0835
X4.7492Y-2.7835
X4.7492Y-3.0835
X4.8492Y-2.7835
X4.8492Y-3.0835
X4.9492Y-2.7835
X4.9492Y-3.0835
X5.0492Y-2.7835
X5.0492Y-3.0835
X4.2126Y-4.0701
X4.2126Y-4.3701
X4.3126Y-4.0701
X4.3126Y-4.3701
X4.4126Y-4.0701
X4.4126Y-4.3701
X4.5126Y-4.0701
X4.5126Y-4.3701
X4.6126Y-4.0701
X4.6126Y-4.3701
X4.7126Y-4.0701
X4.7126Y-4.3701
X4.8126Y-4.0701
X4.8126Y-4.3701
X4.9126Y-4.0701
X4.9126Y-4.3701
X5.0126Y-4.0701
X5.0126Y-4.3701
X5.1126Y-4.0701
X5.1126Y-4.3701
T4
X6.6929Y-3.2874
X6.6929Y-3.6811
X6.8898Y-3.4843
T5
X6.6929Y-3.4843
X6.8898Y-3.2874
X6.8898Y-3.6811
T0
M30
