G04 #@! TF.GenerationSoftware,KiCad,Pcbnew,(5.1.5)-3*
G04 #@! TF.CreationDate,2021-10-03T17:07:44+03:00*
G04 #@! TF.ProjectId,OPL3,4f504c33-2e6b-4696-9361-645f70636258,rev?*
G04 #@! TF.SameCoordinates,Original*
G04 #@! TF.FileFunction,Legend,Top*
G04 #@! TF.FilePolarity,Positive*
%FSLAX46Y46*%
G04 Gerber Fmt 4.6, Leading zero omitted, Abs format (unit mm)*
G04 Created by KiCad (PCBNEW (5.1.5)-3) date 2021-10-03 17:07:44*
%MOMM*%
%LPD*%
G04 APERTURE LIST*
%ADD10C,0.120000*%
%ADD11C,0.100000*%
%ADD12C,0.200000*%
%ADD13C,0.150000*%
G04 APERTURE END LIST*
D10*
X129640000Y-79650000D02*
X129640000Y-69370000D01*
X111620000Y-79650000D02*
X129640000Y-79650000D01*
X111620000Y-69370000D02*
X111620000Y-79650000D01*
X129640000Y-69370000D02*
X111620000Y-69370000D01*
X129580000Y-77160000D02*
X129580000Y-75510000D01*
X111680000Y-77160000D02*
X129580000Y-77160000D01*
X111680000Y-71860000D02*
X111680000Y-77160000D01*
X129580000Y-71860000D02*
X111680000Y-71860000D01*
X129580000Y-73510000D02*
X129580000Y-71860000D01*
X129580000Y-75510000D02*
G75*
G02X129580000Y-73510000I0J1000000D01*
G01*
X105610000Y-102050000D02*
X105610000Y-112330000D01*
X131250000Y-102050000D02*
X105610000Y-102050000D01*
X131250000Y-112330000D02*
X131250000Y-102050000D01*
X105610000Y-112330000D02*
X131250000Y-112330000D01*
X105670000Y-104540000D02*
X105670000Y-106190000D01*
X131190000Y-104540000D02*
X105670000Y-104540000D01*
X131190000Y-109840000D02*
X131190000Y-104540000D01*
X105670000Y-109840000D02*
X131190000Y-109840000D01*
X105670000Y-108190000D02*
X105670000Y-109840000D01*
X105670000Y-106190000D02*
G75*
G02X105670000Y-108190000I0J-1000000D01*
G01*
D11*
X182000000Y-88500000D02*
G75*
G02X182000000Y-88600000I0J-50000D01*
G01*
X182000000Y-88600000D02*
G75*
G02X182000000Y-88500000I0J50000D01*
G01*
X182000000Y-88600000D02*
X182000000Y-88600000D01*
X182000000Y-88500000D02*
X182000000Y-88500000D01*
D12*
X167700000Y-82500000D02*
X168500000Y-82500000D01*
X167700000Y-94500000D02*
X167700000Y-82500000D01*
X168500000Y-94500000D02*
X167700000Y-94500000D01*
X173500000Y-82500000D02*
X171500000Y-82500000D01*
X173500000Y-94500000D02*
X171500000Y-94500000D01*
X178000000Y-82500000D02*
X176500000Y-82500000D01*
X178000000Y-94500000D02*
X178000000Y-82500000D01*
X176500000Y-94500000D02*
X178000000Y-94500000D01*
X176500000Y-94500000D02*
X176500000Y-94500000D01*
X181500000Y-91500000D02*
X178000000Y-91500000D01*
X181500000Y-85500000D02*
X181500000Y-91500000D01*
X178000000Y-85500000D02*
X181500000Y-85500000D01*
D10*
X165450000Y-84110000D02*
X155170000Y-84110000D01*
X165450000Y-102130000D02*
X165450000Y-84110000D01*
X155170000Y-102130000D02*
X165450000Y-102130000D01*
X155170000Y-84110000D02*
X155170000Y-102130000D01*
X162960000Y-84170000D02*
X161310000Y-84170000D01*
X162960000Y-102070000D02*
X162960000Y-84170000D01*
X157660000Y-102070000D02*
X162960000Y-102070000D01*
X157660000Y-84170000D02*
X157660000Y-102070000D01*
X159310000Y-84170000D02*
X157660000Y-84170000D01*
X161310000Y-84170000D02*
G75*
G02X159310000Y-84170000I-1000000J0D01*
G01*
X127520000Y-86140000D02*
X127520000Y-84350000D01*
X127810000Y-86140000D02*
X127520000Y-86140000D01*
X127810000Y-90000000D02*
X127810000Y-86140000D01*
X127810000Y-93860000D02*
X127520000Y-93860000D01*
X127810000Y-90000000D02*
X127810000Y-93860000D01*
X112190000Y-86140000D02*
X112480000Y-86140000D01*
X112190000Y-90000000D02*
X112190000Y-86140000D01*
X112190000Y-93860000D02*
X112480000Y-93860000D01*
X112190000Y-90000000D02*
X112190000Y-93860000D01*
X139510000Y-89362779D02*
X139510000Y-89037221D01*
X138490000Y-89362779D02*
X138490000Y-89037221D01*
X137510000Y-89362779D02*
X137510000Y-89037221D01*
X136490000Y-89362779D02*
X136490000Y-89037221D01*
X152010000Y-98172779D02*
X152010000Y-97847221D01*
X150990000Y-98172779D02*
X150990000Y-97847221D01*
X142615000Y-87995000D02*
X140950000Y-87995000D01*
X142615000Y-87740000D02*
X142615000Y-87995000D01*
X145000000Y-87740000D02*
X142615000Y-87740000D01*
X147385000Y-87740000D02*
X147385000Y-87995000D01*
X145000000Y-87740000D02*
X147385000Y-87740000D01*
X142615000Y-98260000D02*
X142615000Y-98005000D01*
X145000000Y-98260000D02*
X142615000Y-98260000D01*
X147385000Y-98260000D02*
X147385000Y-98005000D01*
X145000000Y-98260000D02*
X147385000Y-98260000D01*
X154010000Y-98172779D02*
X154010000Y-97847221D01*
X152990000Y-98172779D02*
X152990000Y-97847221D01*
X145162779Y-85490000D02*
X144837221Y-85490000D01*
X145162779Y-86510000D02*
X144837221Y-86510000D01*
X152337221Y-102010000D02*
X152662779Y-102010000D01*
X152337221Y-100990000D02*
X152662779Y-100990000D01*
X154010000Y-86162779D02*
X154010000Y-85837221D01*
X152990000Y-86162779D02*
X152990000Y-85837221D01*
X160662779Y-81990000D02*
X160337221Y-81990000D01*
X160662779Y-83010000D02*
X160337221Y-83010000D01*
X166390000Y-97837221D02*
X166390000Y-98162779D01*
X167410000Y-97837221D02*
X167410000Y-98162779D01*
D13*
X130032380Y-75271904D02*
X130841904Y-75271904D01*
X130937142Y-75224285D01*
X130984761Y-75176666D01*
X131032380Y-75081428D01*
X131032380Y-74890952D01*
X130984761Y-74795714D01*
X130937142Y-74748095D01*
X130841904Y-74700476D01*
X130032380Y-74700476D01*
X131032380Y-73700476D02*
X131032380Y-74271904D01*
X131032380Y-73986190D02*
X130032380Y-73986190D01*
X130175238Y-74081428D01*
X130270476Y-74176666D01*
X130318095Y-74271904D01*
X115280952Y-99852380D02*
X115947619Y-99852380D01*
X115519047Y-100852380D01*
X116757142Y-100185714D02*
X116757142Y-100852380D01*
X116519047Y-99804761D02*
X116280952Y-100519047D01*
X116900000Y-100519047D01*
X117757142Y-100852380D02*
X117280952Y-100852380D01*
X117280952Y-99852380D01*
X118042857Y-100804761D02*
X118185714Y-100852380D01*
X118423809Y-100852380D01*
X118519047Y-100804761D01*
X118566666Y-100757142D01*
X118614285Y-100661904D01*
X118614285Y-100566666D01*
X118566666Y-100471428D01*
X118519047Y-100423809D01*
X118423809Y-100376190D01*
X118233333Y-100328571D01*
X118138095Y-100280952D01*
X118090476Y-100233333D01*
X118042857Y-100138095D01*
X118042857Y-100042857D01*
X118090476Y-99947619D01*
X118138095Y-99900000D01*
X118233333Y-99852380D01*
X118471428Y-99852380D01*
X118614285Y-99900000D01*
X119471428Y-99852380D02*
X119280952Y-99852380D01*
X119185714Y-99900000D01*
X119138095Y-99947619D01*
X119042857Y-100090476D01*
X118995238Y-100280952D01*
X118995238Y-100661904D01*
X119042857Y-100757142D01*
X119090476Y-100804761D01*
X119185714Y-100852380D01*
X119376190Y-100852380D01*
X119471428Y-100804761D01*
X119519047Y-100757142D01*
X119566666Y-100661904D01*
X119566666Y-100423809D01*
X119519047Y-100328571D01*
X119471428Y-100280952D01*
X119376190Y-100233333D01*
X119185714Y-100233333D01*
X119090476Y-100280952D01*
X119042857Y-100328571D01*
X118995238Y-100423809D01*
X120138095Y-100280952D02*
X120042857Y-100233333D01*
X119995238Y-100185714D01*
X119947619Y-100090476D01*
X119947619Y-100042857D01*
X119995238Y-99947619D01*
X120042857Y-99900000D01*
X120138095Y-99852380D01*
X120328571Y-99852380D01*
X120423809Y-99900000D01*
X120471428Y-99947619D01*
X120519047Y-100042857D01*
X120519047Y-100090476D01*
X120471428Y-100185714D01*
X120423809Y-100233333D01*
X120328571Y-100280952D01*
X120138095Y-100280952D01*
X120042857Y-100328571D01*
X119995238Y-100376190D01*
X119947619Y-100471428D01*
X119947619Y-100661904D01*
X119995238Y-100757142D01*
X120042857Y-100804761D01*
X120138095Y-100852380D01*
X120328571Y-100852380D01*
X120423809Y-100804761D01*
X120471428Y-100757142D01*
X120519047Y-100661904D01*
X120519047Y-100471428D01*
X120471428Y-100376190D01*
X120423809Y-100328571D01*
X120328571Y-100280952D01*
X121090476Y-100280952D02*
X120995238Y-100233333D01*
X120947619Y-100185714D01*
X120900000Y-100090476D01*
X120900000Y-100042857D01*
X120947619Y-99947619D01*
X120995238Y-99900000D01*
X121090476Y-99852380D01*
X121280952Y-99852380D01*
X121376190Y-99900000D01*
X121423809Y-99947619D01*
X121471428Y-100042857D01*
X121471428Y-100090476D01*
X121423809Y-100185714D01*
X121376190Y-100233333D01*
X121280952Y-100280952D01*
X121090476Y-100280952D01*
X120995238Y-100328571D01*
X120947619Y-100376190D01*
X120900000Y-100471428D01*
X120900000Y-100661904D01*
X120947619Y-100757142D01*
X120995238Y-100804761D01*
X121090476Y-100852380D01*
X121280952Y-100852380D01*
X121376190Y-100804761D01*
X121423809Y-100757142D01*
X121471428Y-100661904D01*
X121471428Y-100471428D01*
X121423809Y-100376190D01*
X121376190Y-100328571D01*
X121280952Y-100280952D01*
X158280952Y-103252380D02*
X158852380Y-103252380D01*
X158566666Y-104252380D02*
X158566666Y-103252380D01*
X159661904Y-104252380D02*
X159185714Y-104252380D01*
X159185714Y-103252380D01*
X160185714Y-103252380D02*
X160280952Y-103252380D01*
X160376190Y-103300000D01*
X160423809Y-103347619D01*
X160471428Y-103442857D01*
X160519047Y-103633333D01*
X160519047Y-103871428D01*
X160471428Y-104061904D01*
X160423809Y-104157142D01*
X160376190Y-104204761D01*
X160280952Y-104252380D01*
X160185714Y-104252380D01*
X160090476Y-104204761D01*
X160042857Y-104157142D01*
X159995238Y-104061904D01*
X159947619Y-103871428D01*
X159947619Y-103633333D01*
X159995238Y-103442857D01*
X160042857Y-103347619D01*
X160090476Y-103300000D01*
X160185714Y-103252380D01*
X160852380Y-103252380D02*
X161519047Y-103252380D01*
X161090476Y-104252380D01*
X162328571Y-103585714D02*
X162328571Y-104252380D01*
X162090476Y-103204761D02*
X161852380Y-103919047D01*
X162471428Y-103919047D01*
X117571428Y-82676190D02*
X117571428Y-83152380D01*
X117238095Y-82152380D02*
X117571428Y-82676190D01*
X117904761Y-82152380D01*
X118238095Y-83152380D02*
X118238095Y-82152380D01*
X118571428Y-82866666D01*
X118904761Y-82152380D01*
X118904761Y-83152380D01*
X119714285Y-82628571D02*
X119380952Y-82628571D01*
X119380952Y-83152380D02*
X119380952Y-82152380D01*
X119857142Y-82152380D01*
X120190476Y-82247619D02*
X120238095Y-82200000D01*
X120333333Y-82152380D01*
X120571428Y-82152380D01*
X120666666Y-82200000D01*
X120714285Y-82247619D01*
X120761904Y-82342857D01*
X120761904Y-82438095D01*
X120714285Y-82580952D01*
X120142857Y-83152380D01*
X120761904Y-83152380D01*
X121619047Y-82152380D02*
X121428571Y-82152380D01*
X121333333Y-82200000D01*
X121285714Y-82247619D01*
X121190476Y-82390476D01*
X121142857Y-82580952D01*
X121142857Y-82961904D01*
X121190476Y-83057142D01*
X121238095Y-83104761D01*
X121333333Y-83152380D01*
X121523809Y-83152380D01*
X121619047Y-83104761D01*
X121666666Y-83057142D01*
X121714285Y-82961904D01*
X121714285Y-82723809D01*
X121666666Y-82628571D01*
X121619047Y-82580952D01*
X121523809Y-82533333D01*
X121333333Y-82533333D01*
X121238095Y-82580952D01*
X121190476Y-82628571D01*
X121142857Y-82723809D01*
X122095238Y-82247619D02*
X122142857Y-82200000D01*
X122238095Y-82152380D01*
X122476190Y-82152380D01*
X122571428Y-82200000D01*
X122619047Y-82247619D01*
X122666666Y-82342857D01*
X122666666Y-82438095D01*
X122619047Y-82580952D01*
X122047619Y-83152380D01*
X122666666Y-83152380D01*
X139357142Y-86842857D02*
X139404761Y-86890476D01*
X139452380Y-87033333D01*
X139452380Y-87128571D01*
X139404761Y-87271428D01*
X139309523Y-87366666D01*
X139214285Y-87414285D01*
X139023809Y-87461904D01*
X138880952Y-87461904D01*
X138690476Y-87414285D01*
X138595238Y-87366666D01*
X138500000Y-87271428D01*
X138452380Y-87128571D01*
X138452380Y-87033333D01*
X138500000Y-86890476D01*
X138547619Y-86842857D01*
X139452380Y-85890476D02*
X139452380Y-86461904D01*
X139452380Y-86176190D02*
X138452380Y-86176190D01*
X138595238Y-86271428D01*
X138690476Y-86366666D01*
X138738095Y-86461904D01*
X138547619Y-85509523D02*
X138500000Y-85461904D01*
X138452380Y-85366666D01*
X138452380Y-85128571D01*
X138500000Y-85033333D01*
X138547619Y-84985714D01*
X138642857Y-84938095D01*
X138738095Y-84938095D01*
X138880952Y-84985714D01*
X139452380Y-85557142D01*
X139452380Y-84938095D01*
X137357142Y-86842857D02*
X137404761Y-86890476D01*
X137452380Y-87033333D01*
X137452380Y-87128571D01*
X137404761Y-87271428D01*
X137309523Y-87366666D01*
X137214285Y-87414285D01*
X137023809Y-87461904D01*
X136880952Y-87461904D01*
X136690476Y-87414285D01*
X136595238Y-87366666D01*
X136500000Y-87271428D01*
X136452380Y-87128571D01*
X136452380Y-87033333D01*
X136500000Y-86890476D01*
X136547619Y-86842857D01*
X137452380Y-85890476D02*
X137452380Y-86461904D01*
X137452380Y-86176190D02*
X136452380Y-86176190D01*
X136595238Y-86271428D01*
X136690476Y-86366666D01*
X136738095Y-86461904D01*
X137452380Y-84938095D02*
X137452380Y-85509523D01*
X137452380Y-85223809D02*
X136452380Y-85223809D01*
X136595238Y-85319047D01*
X136690476Y-85414285D01*
X136738095Y-85509523D01*
X151857142Y-104342857D02*
X151904761Y-104390476D01*
X151952380Y-104533333D01*
X151952380Y-104628571D01*
X151904761Y-104771428D01*
X151809523Y-104866666D01*
X151714285Y-104914285D01*
X151523809Y-104961904D01*
X151380952Y-104961904D01*
X151190476Y-104914285D01*
X151095238Y-104866666D01*
X151000000Y-104771428D01*
X150952380Y-104628571D01*
X150952380Y-104533333D01*
X151000000Y-104390476D01*
X151047619Y-104342857D01*
X151952380Y-103390476D02*
X151952380Y-103961904D01*
X151952380Y-103676190D02*
X150952380Y-103676190D01*
X151095238Y-103771428D01*
X151190476Y-103866666D01*
X151238095Y-103961904D01*
X150952380Y-102533333D02*
X150952380Y-102723809D01*
X151000000Y-102819047D01*
X151047619Y-102866666D01*
X151190476Y-102961904D01*
X151380952Y-103009523D01*
X151761904Y-103009523D01*
X151857142Y-102961904D01*
X151904761Y-102914285D01*
X151952380Y-102819047D01*
X151952380Y-102628571D01*
X151904761Y-102533333D01*
X151857142Y-102485714D01*
X151761904Y-102438095D01*
X151523809Y-102438095D01*
X151428571Y-102485714D01*
X151380952Y-102533333D01*
X151333333Y-102628571D01*
X151333333Y-102819047D01*
X151380952Y-102914285D01*
X151428571Y-102961904D01*
X151523809Y-103009523D01*
X142642857Y-99976190D02*
X142642857Y-100452380D01*
X142309523Y-99452380D02*
X142642857Y-99976190D01*
X142976190Y-99452380D01*
X143261904Y-100166666D02*
X143738095Y-100166666D01*
X143166666Y-100452380D02*
X143500000Y-99452380D01*
X143833333Y-100452380D01*
X144738095Y-100357142D02*
X144690476Y-100404761D01*
X144547619Y-100452380D01*
X144452380Y-100452380D01*
X144309523Y-100404761D01*
X144214285Y-100309523D01*
X144166666Y-100214285D01*
X144119047Y-100023809D01*
X144119047Y-99880952D01*
X144166666Y-99690476D01*
X144214285Y-99595238D01*
X144309523Y-99500000D01*
X144452380Y-99452380D01*
X144547619Y-99452380D01*
X144690476Y-99500000D01*
X144738095Y-99547619D01*
X145642857Y-99452380D02*
X145166666Y-99452380D01*
X145119047Y-99928571D01*
X145166666Y-99880952D01*
X145261904Y-99833333D01*
X145500000Y-99833333D01*
X145595238Y-99880952D01*
X145642857Y-99928571D01*
X145690476Y-100023809D01*
X145690476Y-100261904D01*
X145642857Y-100357142D01*
X145595238Y-100404761D01*
X145500000Y-100452380D01*
X145261904Y-100452380D01*
X145166666Y-100404761D01*
X145119047Y-100357142D01*
X146642857Y-100452380D02*
X146071428Y-100452380D01*
X146357142Y-100452380D02*
X146357142Y-99452380D01*
X146261904Y-99595238D01*
X146166666Y-99690476D01*
X146071428Y-99738095D01*
X147023809Y-99547619D02*
X147071428Y-99500000D01*
X147166666Y-99452380D01*
X147404761Y-99452380D01*
X147500000Y-99500000D01*
X147547619Y-99547619D01*
X147595238Y-99642857D01*
X147595238Y-99738095D01*
X147547619Y-99880952D01*
X146976190Y-100452380D01*
X147595238Y-100452380D01*
X153857142Y-104342857D02*
X153904761Y-104390476D01*
X153952380Y-104533333D01*
X153952380Y-104628571D01*
X153904761Y-104771428D01*
X153809523Y-104866666D01*
X153714285Y-104914285D01*
X153523809Y-104961904D01*
X153380952Y-104961904D01*
X153190476Y-104914285D01*
X153095238Y-104866666D01*
X153000000Y-104771428D01*
X152952380Y-104628571D01*
X152952380Y-104533333D01*
X153000000Y-104390476D01*
X153047619Y-104342857D01*
X153952380Y-103390476D02*
X153952380Y-103961904D01*
X153952380Y-103676190D02*
X152952380Y-103676190D01*
X153095238Y-103771428D01*
X153190476Y-103866666D01*
X153238095Y-103961904D01*
X152952380Y-103057142D02*
X152952380Y-102390476D01*
X153952380Y-102819047D01*
X144357142Y-84957142D02*
X144309523Y-85004761D01*
X144166666Y-85052380D01*
X144071428Y-85052380D01*
X143928571Y-85004761D01*
X143833333Y-84909523D01*
X143785714Y-84814285D01*
X143738095Y-84623809D01*
X143738095Y-84480952D01*
X143785714Y-84290476D01*
X143833333Y-84195238D01*
X143928571Y-84100000D01*
X144071428Y-84052380D01*
X144166666Y-84052380D01*
X144309523Y-84100000D01*
X144357142Y-84147619D01*
X145309523Y-85052380D02*
X144738095Y-85052380D01*
X145023809Y-85052380D02*
X145023809Y-84052380D01*
X144928571Y-84195238D01*
X144833333Y-84290476D01*
X144738095Y-84338095D01*
X145642857Y-84052380D02*
X146261904Y-84052380D01*
X145928571Y-84433333D01*
X146071428Y-84433333D01*
X146166666Y-84480952D01*
X146214285Y-84528571D01*
X146261904Y-84623809D01*
X146261904Y-84861904D01*
X146214285Y-84957142D01*
X146166666Y-85004761D01*
X146071428Y-85052380D01*
X145785714Y-85052380D01*
X145690476Y-85004761D01*
X145642857Y-84957142D01*
X152333333Y-106352380D02*
X152000000Y-105876190D01*
X151761904Y-106352380D02*
X151761904Y-105352380D01*
X152142857Y-105352380D01*
X152238095Y-105400000D01*
X152285714Y-105447619D01*
X152333333Y-105542857D01*
X152333333Y-105685714D01*
X152285714Y-105780952D01*
X152238095Y-105828571D01*
X152142857Y-105876190D01*
X151761904Y-105876190D01*
X153285714Y-106352380D02*
X152714285Y-106352380D01*
X153000000Y-106352380D02*
X153000000Y-105352380D01*
X152904761Y-105495238D01*
X152809523Y-105590476D01*
X152714285Y-105638095D01*
X150657142Y-86357142D02*
X150609523Y-86404761D01*
X150466666Y-86452380D01*
X150371428Y-86452380D01*
X150228571Y-86404761D01*
X150133333Y-86309523D01*
X150085714Y-86214285D01*
X150038095Y-86023809D01*
X150038095Y-85880952D01*
X150085714Y-85690476D01*
X150133333Y-85595238D01*
X150228571Y-85500000D01*
X150371428Y-85452380D01*
X150466666Y-85452380D01*
X150609523Y-85500000D01*
X150657142Y-85547619D01*
X151609523Y-86452380D02*
X151038095Y-86452380D01*
X151323809Y-86452380D02*
X151323809Y-85452380D01*
X151228571Y-85595238D01*
X151133333Y-85690476D01*
X151038095Y-85738095D01*
X152466666Y-85785714D02*
X152466666Y-86452380D01*
X152228571Y-85404761D02*
X151990476Y-86119047D01*
X152609523Y-86119047D01*
X155957142Y-82857142D02*
X155909523Y-82904761D01*
X155766666Y-82952380D01*
X155671428Y-82952380D01*
X155528571Y-82904761D01*
X155433333Y-82809523D01*
X155385714Y-82714285D01*
X155338095Y-82523809D01*
X155338095Y-82380952D01*
X155385714Y-82190476D01*
X155433333Y-82095238D01*
X155528571Y-82000000D01*
X155671428Y-81952380D01*
X155766666Y-81952380D01*
X155909523Y-82000000D01*
X155957142Y-82047619D01*
X156909523Y-82952380D02*
X156338095Y-82952380D01*
X156623809Y-82952380D02*
X156623809Y-81952380D01*
X156528571Y-82095238D01*
X156433333Y-82190476D01*
X156338095Y-82238095D01*
X157814285Y-81952380D02*
X157338095Y-81952380D01*
X157290476Y-82428571D01*
X157338095Y-82380952D01*
X157433333Y-82333333D01*
X157671428Y-82333333D01*
X157766666Y-82380952D01*
X157814285Y-82428571D01*
X157861904Y-82523809D01*
X157861904Y-82761904D01*
X157814285Y-82857142D01*
X157766666Y-82904761D01*
X157671428Y-82952380D01*
X157433333Y-82952380D01*
X157338095Y-82904761D01*
X157290476Y-82857142D01*
X168457142Y-98357142D02*
X168409523Y-98404761D01*
X168266666Y-98452380D01*
X168171428Y-98452380D01*
X168028571Y-98404761D01*
X167933333Y-98309523D01*
X167885714Y-98214285D01*
X167838095Y-98023809D01*
X167838095Y-97880952D01*
X167885714Y-97690476D01*
X167933333Y-97595238D01*
X168028571Y-97500000D01*
X168171428Y-97452380D01*
X168266666Y-97452380D01*
X168409523Y-97500000D01*
X168457142Y-97547619D01*
X169409523Y-98452380D02*
X168838095Y-98452380D01*
X169123809Y-98452380D02*
X169123809Y-97452380D01*
X169028571Y-97595238D01*
X168933333Y-97690476D01*
X168838095Y-97738095D01*
X169980952Y-97880952D02*
X169885714Y-97833333D01*
X169838095Y-97785714D01*
X169790476Y-97690476D01*
X169790476Y-97642857D01*
X169838095Y-97547619D01*
X169885714Y-97500000D01*
X169980952Y-97452380D01*
X170171428Y-97452380D01*
X170266666Y-97500000D01*
X170314285Y-97547619D01*
X170361904Y-97642857D01*
X170361904Y-97690476D01*
X170314285Y-97785714D01*
X170266666Y-97833333D01*
X170171428Y-97880952D01*
X169980952Y-97880952D01*
X169885714Y-97928571D01*
X169838095Y-97976190D01*
X169790476Y-98071428D01*
X169790476Y-98261904D01*
X169838095Y-98357142D01*
X169885714Y-98404761D01*
X169980952Y-98452380D01*
X170171428Y-98452380D01*
X170266666Y-98404761D01*
X170314285Y-98357142D01*
X170361904Y-98261904D01*
X170361904Y-98071428D01*
X170314285Y-97976190D01*
X170266666Y-97928571D01*
X170171428Y-97880952D01*
M02*
